{
.appVersion = "1352";
DisplayStrings = (
"a/Placeholder a/space b/Placeholder b/space c/Placeholder c/space d/Placeholder d/space e/Placeholder e/space f/Placeholder f/space g/Placeholder g/space h/Placeholder h/space i/Placeholder i/space jjj/space k/Placeholder k/space l/Placeholder l/space m/Placeholder m/space n/Placeholder n/space o/Placeholder o/space p/Placeholder p/space q/Placeholder q/space r/Placeholder r/space s/Placeholder s/space t/Placeholder t/space u/Placeholder u/space v/Placeholder v/space w/Placeholder w/space x/Placeholder x/space y/Placeholder y/space z/Placeholder z\012nn/Placeholder no/Placeholder oo/space abcdefeghihukujklmnopqrstuvwxyz\012fear/space fall/space kilo/space long/space ovoide/space want/space wind/space oxo/space zapato\012Twombli/space Tgmaiwan/space Taiwan/space Tomato/space Temperture/space Tiro/space Twardock/space Walking/space Wonder/space Wc/space Wd/space/space Wrcnder/space/space You/space Family/space Fear/space Furor/space Vocal/space Viajar/space Zusam/space Pearl/space Point/space Pain/space Ayuda/space \012Kilo/space Londres/space Leon/space Lio/space Month\012\012HH0H1HH2HH3H\012HH4HH5HH6HH\012HH7H8HH9HH/zero.lf \0120/Placeholder 0/space 1/Placeholder 1/space 2/Placeholder 2/space 3/Placeholder 3/space 4/Placeholder 4/space 5/Placeholder 5/space 6/Placeholder 6/space 7/Placeholder 7/space 8/Placeholder 8/space 9/Placeholder 9\01210123475076479896/nbspace \012212324259608957\012/one.lf/two.lf/three.lf/four.lf/five.lf/six.lf/seven.lf/eight.lf/nine.lf \012nn/Placeholder no/Placeholder oo\012",
"oó/obreve ô/ocircumflexacute/ocircumflexdotbelow/ocircumflexgrave/ocircumflexhookabove/ocircumflextilde/odblgrave ö/odieresismacron/odotaccentmacron/odotbelow ò/ohookabove/ohorn/ohornacute/ohorndotbelow/ohorngrave/ohornhookabove/ohorntilde/ohungarumlaut/oinvertedbreve/omacron/oogonek ø/oslashacute õ/otildemacron",

glyphs = (
{
glyphname = .notdef;
lastChange = "2021-11-09 22:05:28 +0000";
layers = (
{
background = {
paths = (
{
closed = 1;
nodes = (
"443 -5 LINE",
"454 7 LINE",
"454 575 LINE",
"443 587 LINE",
"52 587 LINE",
"40 575 LINE",
"40 7 LINE",
"52 -5 LINE"
);
},
{
closed = 1;
nodes = (
"147 139 LINE",
"230 292 LINE",
"147 443 LINE",
"158 465 LINE",
"241 314 LINE",
"326 466 LINE",
"339 443 LINE",
"253 290 LINE",
"339 139 LINE",
"326 117 LINE",
"241 267 LINE",
"158 117 LINE"
);
},
{
closed = 1;
nodes = (
"66 561 LINE",
"430 561 LINE",
"430 21 LINE",
"66 21 LINE"
);
},
{
closed = 1;
nodes = (
"407 40 LINE",
"407 538 LINE",
"87 538 LINE",
"87 40 LINE"
);
}
);
};
layerId = "960B82ED-BAE9-407E-815C-F6C3A86A2215";
paths = (
{
closed = 1;
nodes = (
"443 3 LINE",
"454 15 LINE",
"454 583 LINE",
"443 595 LINE",
"52 595 LINE",
"40 583 LINE",
"40 15 LINE",
"52 3 LINE"
);
},
{
closed = 1;
nodes = (
"147 147 LINE",
"230 300 LINE",
"147 451 LINE",
"158 473 LINE",
"241 322 LINE",
"326 474 LINE",
"339 451 LINE",
"253 298 LINE",
"339 147 LINE",
"326 125 LINE",
"241 275 LINE",
"158 125 LINE"
);
},
{
closed = 1;
nodes = (
"66 569 LINE",
"430 569 LINE",
"430 29 LINE",
"66 29 LINE"
);
},
{
closed = 1;
nodes = (
"407 48 LINE",
"407 546 LINE",
"87 546 LINE",
"87 48 LINE"
);
}
);
width = 494;
}
);
note = .notdef;
},
{
glyphname = A;
lastChange = "2021-11-09 21:48:01 +0000";
layers = (
{
anchors = (
{
name = bottom;
position = "{248, 0}";
},
{
name = ogonek;
position = "{591, -21}";
},
{
name = top;
position = "{763, 640}";
}
);
background = {
anchors = (
{
name = bottom;
position = "{318, -23}";
},
{
name = ogonek;
position = "{415, -71}";
},
{
name = top;
position = "{803, 679}";
}
);
paths = (
{
closed = 1;
nodes = (
"6 -143 OFFCURVE",
"15 -138 OFFCURVE",
"15 -124 CURVE SMOOTH",
"15 -115 OFFCURVE",
"15 -86 OFFCURVE",
"18 -74 CURVE SMOOTH",
"20 -69 OFFCURVE",
"20 -64 OFFCURVE",
"20 -59 CURVE SMOOTH",
"20 -50 LINE SMOOTH",
"20 -43 OFFCURVE",
"21 -36 OFFCURVE",
"25 -29 CURVE SMOOTH",
"54 16 OFFCURVE",
"16 -30 OFFCURVE",
"115 83 CURVE SMOOTH",
"121 89 OFFCURVE",
"148 119 OFFCURVE",
"155 127 CURVE SMOOTH",
"168 141 OFFCURVE",
"216 196 OFFCURVE",
"230 211 CURVE SMOOTH",
"241 222 OFFCURVE",
"257 232 OFFCURVE",
"268 244 CURVE SMOOTH",
"280 257 OFFCURVE",
"291 267 OFFCURVE",
"302 278 CURVE",
"367 283 OFFCURVE",
"443 287 OFFCURVE",
"502 287 CURVE",
"499 280 OFFCURVE",
"495 274 OFFCURVE",
"495 275 CURVE",
"458 215 OFFCURVE",
"475 162 OFFCURVE",
"443 96 CURVE SMOOTH",
"433 75 OFFCURVE",
"432 39 OFFCURVE",
"426 20 CURVE SMOOTH",
"423 10 OFFCURVE",
"430 3 OFFCURVE",
"430 -3 CURVE SMOOTH",
"430 -4 OFFCURVE",
"430 -5 OFFCURVE",
"429 -6 CURVE",
"427 -12 OFFCURVE",
"426 -17 OFFCURVE",
"426 -21 CURVE SMOOTH",
"426 -29 OFFCURVE",
"429 -36 OFFCURVE",
"433 -44 CURVE SMOOTH",
"438 -54 OFFCURVE",
"444 -63 OFFCURVE",
"453 -63 CURVE SMOOTH",
"455 -63 OFFCURVE",
"457 -63 OFFCURVE",
"459 -62 CURVE SMOOTH",
"470 -55 OFFCURVE",
"474 -46 OFFCURVE",
"474 -38 CURVE SMOOTH",
"474 -29 OFFCURVE",
"470 -21 OFFCURVE",
"466 -16 CURVE",
"463 -14 OFFCURVE",
"473 7 OFFCURVE",
"473 20 CURVE",
"478 57 OFFCURVE",
"510 180 OFFCURVE",
"567 287 CURVE",
"578 287 OFFCURVE",
"586 288 OFFCURVE",
"593 288 CURVE SMOOTH",
"609 288 OFFCURVE",
"616 294 OFFCURVE",
"616 301 CURVE SMOOTH",
"616 310 OFFCURVE",
"605 320 OFFCURVE",
"586 319 CURVE",
"629 394 OFFCURVE",
"680 469 OFFCURVE",
"742 543 CURVE SMOOTH",
"748 550 OFFCURVE",
"765 556 OFFCURVE",
"773 566 CURVE SMOOTH",
"781 576 OFFCURVE",
"796 582 OFFCURVE",
"804 592 CURVE SMOOTH",
"810 598 OFFCURVE",
"812 604 OFFCURVE",
"812 610 CURVE SMOOTH",
"812 630 OFFCURVE",
"783 646 OFFCURVE",
"759 646 CURVE SMOOTH",
"751 646 OFFCURVE",
"744 644 OFFCURVE",
"738 640 CURVE SMOOTH",
"733 636 OFFCURVE",
"720 634 OFFCURVE",
"715 629 CURVE SMOOTH",
"712 625 OFFCURVE",
"688 623 OFFCURVE",
"682 616 CURVE SMOOTH",
"677 609 OFFCURVE",
"671 597 OFFCURVE",
"666 594 CURVE",
"604 540 OFFCURVE",
"512 516 OFFCURVE",
"456 462 CURVE SMOOTH",
"453 459 OFFCURVE",
"413 445 OFFCURVE",
"326 369 CURVE SMOOTH",
"319 363 OFFCURVE",
"318 360 OFFCURVE",
"318 358 CURVE SMOOTH",
"318 357 LINE SMOOTH",
"318 355 OFFCURVE",
"318 353 OFFCURVE",
"311 348 CURVE",
"303 340 OFFCURVE",
"282 324 OFFCURVE",
"265 310 CURVE",
"212 305 OFFCURVE",
"197 299 OFFCURVE",
"197 293 CURVE SMOOTH",
"197 285 OFFCURVE",
"224 276 OFFCURVE",
"224 271 CURVE SMOOTH",
"224 268 OFFCURVE",
"215 266 OFFCURVE",
"187 266 CURVE SMOOTH",
"186 266 LINE SMOOTH",
"175 266 OFFCURVE",
"210 270 OFFCURVE",
"223 271 CURVE",
"109 152 OFFCURVE",
"40 50 OFFCURVE",
"14 10 CURVE SMOOTH",
"-21 -44 OFFCURVE",
"-33 -77 OFFCURVE",
"-33 -98 CURVE SMOOTH",
"-33 -118 OFFCURVE",
"-24 -129 OFFCURVE",
"-12 -139 CURVE SMOOTH",
"-10 -141 OFFCURVE",
"-6 -143 OFFCURVE",
"-2 -143 CURVE SMOOTH"
);
},
{
closed = 1;
nodes = (
"445 315 OFFCURVE",
"430 316 OFFCURVE",
"414 316 CURVE SMOOTH",
"392 316 OFFCURVE",
"368 315 OFFCURVE",
"343 315 CURVE",
"400 366 OFFCURVE",
"444 399 OFFCURVE",
"453 403 CURVE",
"454 404 LINE",
"453 405 OFFCURVE",
"535 457 OFFCURVE",
"558 478 CURVE SMOOTH",
"572 490 OFFCURVE",
"583 496 OFFCURVE",
"591 496 CURVE SMOOTH",
"597 496 OFFCURVE",
"601 493 OFFCURVE",
"604 487 CURVE",
"613 477 OFFCURVE",
"594 467 OFFCURVE",
"593 446 CURVE",
"559 403 OFFCURVE",
"596 403 OFFCURVE",
"525 332 CURVE SMOOTH",
"524 331 LINE",
"516 314 LINE",
"458 314 LINE SMOOTH"
);
}
);
};
layerId = "960B82ED-BAE9-407E-815C-F6C3A86A2215";
paths = (
{
closed = 1;
nodes = (
"6 -135 OFFCURVE",
"15 -130 OFFCURVE",
"15 -116 CURVE SMOOTH",
"15 -107 OFFCURVE",
"15 -78 OFFCURVE",
"18 -66 CURVE SMOOTH",
"20 -61 OFFCURVE",
"20 -56 OFFCURVE",
"20 -51 CURVE SMOOTH",
"20 -42 LINE SMOOTH",
"20 -35 OFFCURVE",
"21 -28 OFFCURVE",
"25 -21 CURVE SMOOTH",
"54 24 OFFCURVE",
"16 -22 OFFCURVE",
"115 91 CURVE SMOOTH",
"121 97 OFFCURVE",
"148 127 OFFCURVE",
"155 135 CURVE SMOOTH",
"168 149 OFFCURVE",
"216 204 OFFCURVE",
"230 219 CURVE SMOOTH",
"241 230 OFFCURVE",
"257 240 OFFCURVE",
"268 252 CURVE SMOOTH",
"280 265 OFFCURVE",
"291 275 OFFCURVE",
"302 286 CURVE",
"367 291 OFFCURVE",
"443 295 OFFCURVE",
"502 295 CURVE",
"499 288 OFFCURVE",
"495 282 OFFCURVE",
"495 283 CURVE",
"458 223 OFFCURVE",
"475 170 OFFCURVE",
"443 104 CURVE SMOOTH",
"433 83 OFFCURVE",
"432 47 OFFCURVE",
"426 28 CURVE SMOOTH",
"423 18 OFFCURVE",
"430 11 OFFCURVE",
"430 5 CURVE SMOOTH",
"430 4 OFFCURVE",
"430 3 OFFCURVE",
"429 2 CURVE",
"427 -4 OFFCURVE",
"426 -9 OFFCURVE",
"426 -13 CURVE SMOOTH",
"426 -21 OFFCURVE",
"429 -28 OFFCURVE",
"433 -36 CURVE SMOOTH",
"438 -46 OFFCURVE",
"444 -55 OFFCURVE",
"453 -55 CURVE SMOOTH",
"455 -55 OFFCURVE",
"457 -55 OFFCURVE",
"459 -54 CURVE SMOOTH",
"470 -47 OFFCURVE",
"474 -38 OFFCURVE",
"474 -30 CURVE SMOOTH",
"474 -21 OFFCURVE",
"470 -13 OFFCURVE",
"466 -8 CURVE",
"463 -6 OFFCURVE",
"473 15 OFFCURVE",
"473 28 CURVE",
"478 65 OFFCURVE",
"510 188 OFFCURVE",
"567 295 CURVE",
"578 295 OFFCURVE",
"586 296 OFFCURVE",
"593 296 CURVE SMOOTH",
"609 296 OFFCURVE",
"616 302 OFFCURVE",
"616 309 CURVE SMOOTH",
"616 318 OFFCURVE",
"605 328 OFFCURVE",
"586 327 CURVE",
"629 402 OFFCURVE",
"680 477 OFFCURVE",
"742 551 CURVE SMOOTH",
"748 558 OFFCURVE",
"765 564 OFFCURVE",
"773 574 CURVE SMOOTH",
"781 584 OFFCURVE",
"796 590 OFFCURVE",
"804 600 CURVE SMOOTH",
"810 606 OFFCURVE",
"812 612 OFFCURVE",
"812 618 CURVE SMOOTH",
"812 638 OFFCURVE",
"783 654 OFFCURVE",
"759 654 CURVE SMOOTH",
"751 654 OFFCURVE",
"744 652 OFFCURVE",
"738 648 CURVE SMOOTH",
"733 644 OFFCURVE",
"720 642 OFFCURVE",
"715 637 CURVE SMOOTH",
"712 633 OFFCURVE",
"688 631 OFFCURVE",
"682 624 CURVE SMOOTH",
"677 617 OFFCURVE",
"671 605 OFFCURVE",
"666 602 CURVE",
"604 548 OFFCURVE",
"512 524 OFFCURVE",
"456 470 CURVE SMOOTH",
"453 467 OFFCURVE",
"413 453 OFFCURVE",
"326 377 CURVE SMOOTH",
"319 371 OFFCURVE",
"318 368 OFFCURVE",
"318 366 CURVE SMOOTH",
"318 365 LINE SMOOTH",
"318 363 OFFCURVE",
"318 361 OFFCURVE",
"311 356 CURVE",
"303 348 OFFCURVE",
"282 332 OFFCURVE",
"265 318 CURVE",
"212 313 OFFCURVE",
"197 307 OFFCURVE",
"197 301 CURVE SMOOTH",
"197 293 OFFCURVE",
"224 284 OFFCURVE",
"224 279 CURVE SMOOTH",
"224 276 OFFCURVE",
"215 274 OFFCURVE",
"187 274 CURVE SMOOTH",
"186 274 LINE SMOOTH",
"175 274 OFFCURVE",
"210 278 OFFCURVE",
"223 279 CURVE",
"109 160 OFFCURVE",
"40 58 OFFCURVE",
"14 18 CURVE SMOOTH",
"-21 -36 OFFCURVE",
"-33 -69 OFFCURVE",
"-33 -90 CURVE SMOOTH",
"-33 -110 OFFCURVE",
"-24 -121 OFFCURVE",
"-12 -131 CURVE SMOOTH",
"-10 -133 OFFCURVE",
"-6 -135 OFFCURVE",
"-2 -135 CURVE SMOOTH"
);
},
{
closed = 1;
nodes = (
"445 322 OFFCURVE",
"430 324 OFFCURVE",
"414 324 CURVE SMOOTH",
"392 324 OFFCURVE",
"368 323 OFFCURVE",
"343 323 CURVE",
"400 374 OFFCURVE",
"444 407 OFFCURVE",
"453 411 CURVE",
"454 412 LINE",
"453 413 OFFCURVE",
"535 465 OFFCURVE",
"558 486 CURVE SMOOTH",
"572 498 OFFCURVE",
"583 504 OFFCURVE",
"591 504 CURVE SMOOTH",
"597 504 OFFCURVE",
"601 501 OFFCURVE",
"604 495 CURVE",
"613 485 OFFCURVE",
"594 475 OFFCURVE",
"593 454 CURVE",
"559 411 OFFCURVE",
"596 411 OFFCURVE",
"525 340 CURVE SMOOTH",
"524 339 LINE",
"516 322 LINE",
"458 322 LINE SMOOTH"
);
}
);
width = 635;
}
);
note = A;
unicode = 0041;
},
{
glyphname = AE;
lastChange = "2021-11-09 21:29:53 +0000";
layers = (
{
anchors = (
{
name = bottom;
position = "{480, 0}";
},
{
name = top;
position = "{925, 640}";
}
);
background = {
anchors = (
{
name = bottom;
position = "{318, -23}";
},
{
name = ogonek;
position = "{415, -71}";
},
{
name = top;
position = "{803, 679}";
}
);
paths = (
{
closed = 1;
nodes = (
"6 -143 OFFCURVE",
"15 -138 OFFCURVE",
"15 -124 CURVE SMOOTH",
"15 -115 OFFCURVE",
"15 -86 OFFCURVE",
"18 -74 CURVE SMOOTH",
"20 -69 OFFCURVE",
"20 -64 OFFCURVE",
"20 -59 CURVE SMOOTH",
"20 -50 LINE SMOOTH",
"20 -43 OFFCURVE",
"21 -36 OFFCURVE",
"25 -29 CURVE SMOOTH",
"54 16 OFFCURVE",
"16 -30 OFFCURVE",
"115 83 CURVE SMOOTH",
"121 89 OFFCURVE",
"148 119 OFFCURVE",
"155 127 CURVE SMOOTH",
"168 141 OFFCURVE",
"216 196 OFFCURVE",
"230 211 CURVE SMOOTH",
"241 222 OFFCURVE",
"257 232 OFFCURVE",
"268 244 CURVE SMOOTH",
"280 257 OFFCURVE",
"291 267 OFFCURVE",
"302 278 CURVE",
"367 283 OFFCURVE",
"443 287 OFFCURVE",
"502 287 CURVE",
"519 284 LINE",
"476 221 LINE SMOOTH",
"459 197 OFFCURVE",
"445 165 OFFCURVE",
"424 137 CURVE",
"396 75 LINE",
"375 77 OFFCURVE",
"355 71 OFFCURVE",
"355 50 CURVE SMOOTH",
"355 38 OFFCURVE",
"361 22 OFFCURVE",
"376 0 CURVE",
"379 -3 OFFCURVE",
"400 -8 OFFCURVE",
"404 -12 CURVE SMOOTH",
"405 -13 LINE",
"405 -13 OFFCURVE",
"414 -15 OFFCURVE",
"426 -9 CURVE",
"425 -9 LINE",
"433 -6 OFFCURVE",
"435 7 OFFCURVE",
"439 17 CURVE",
"468 8 OFFCURVE",
"503 1 OFFCURVE",
"531 -1 CURVE",
"540 -3 OFFCURVE",
"569 -4 OFFCURVE",
"607 -4 CURVE SMOOTH",
"670 -4 OFFCURVE",
"755 -1 OFFCURVE",
"800 8 CURVE",
"816 9 OFFCURVE",
"850 13 OFFCURVE",
"865 21 CURVE SMOOTH",
"884 31 OFFCURVE",
"910 39 OFFCURVE",
"922 56 CURVE SMOOTH",
"934 74 OFFCURVE",
"930 99 OFFCURVE",
"942 115 CURVE SMOOTH",
"945 119 OFFCURVE",
"946 127 OFFCURVE",
"946 136 CURVE SMOOTH",
"946 150 OFFCURVE",
"942 166 OFFCURVE",
"928 168 CURVE",
"905 167 OFFCURVE",
"893 129 OFFCURVE",
"888 122 CURVE SMOOTH",
"878 108 OFFCURVE",
"877 108 OFFCURVE",
"867 99 CURVE SMOOTH",
"849 83 OFFCURVE",
"823 64 OFFCURVE",
"792 58 CURVE SMOOTH",
"756 51 OFFCURVE",
"723 46 OFFCURVE",
"691 43 CURVE SMOOTH",
"680 42 OFFCURVE",
"675 32 OFFCURVE",
"669 32 CURVE SMOOTH",
"668 32 LINE SMOOTH",
"661 32 OFFCURVE",
"645 38 OFFCURVE",
"637 38 CURVE SMOOTH",
"546 38 LINE SMOOTH",
"517 38 OFFCURVE",
"482 43 OFFCURVE",
"449 54 CURVE",
"450 70 OFFCURVE",
"457 102 OFFCURVE",
"457 96 CURVE SMOOTH",
"457 95 LINE SMOOTH",
"457 81 OFFCURVE",
"467 112 OFFCURVE",
"477 133 CURVE SMOOTH",
"483 144 OFFCURVE",
"540 242 OFFCURVE",
"599 321 CURVE",
"613 326 OFFCURVE",
"627 330 OFFCURVE",
"639 330 CURVE",
"745 342 OFFCURVE",
"812 342 OFFCURVE",
"914 342 CURVE",
"921 340 OFFCURVE",
"927 337 OFFCURVE",
"932 337 CURVE SMOOTH",
"935 337 OFFCURVE",
"938 339 OFFCURVE",
"939 344 CURVE",
"939 351 OFFCURVE",
"918 360 OFFCURVE",
"918 362 CURVE SMOOTH",
"918 363 OFFCURVE",
"918 363 OFFCURVE",
"920 363 CURVE SMOOTH",
"921 363 LINE",
"912 366 OFFCURVE",
"908 368 OFFCURVE",
"899 368 CURVE SMOOTH",
"854 368 OFFCURVE",
"810 373 OFFCURVE",
"765 373 CURVE SMOOTH",
"749 373 OFFCURVE",
"733 375 OFFCURVE",
"719 375 CURVE SMOOTH",
"704 376 OFFCURVE",
"688 376 OFFCURVE",
"673 377 CURVE",
"646 375 LINE",
"654 380 OFFCURVE",
"662 386 OFFCURVE",
"669 393 CURVE SMOOTH",
"682 408 OFFCURVE",
"730 475 OFFCURVE",
"745 497 CURVE",
"758 512 OFFCURVE",
"789 543 OFFCURVE",
"804 557 CURVE SMOOTH",
"822 574 OFFCURVE",
"836 570 OFFCURVE",
"839 580 CURVE",
"892 583 OFFCURVE",
"932 597 OFFCURVE",
"983 597 CURVE SMOOTH",
"1043 597 OFFCURVE",
"1032 590 OFFCURVE",
"1064 590 CURVE SMOOTH",
"1065 590 OFFCURVE",
"1084 577 OFFCURVE",
"1102 569 CURVE SMOOTH",
"1125 560 OFFCURVE",
"1115 536 OFFCURVE",
"1139 538 CURVE",
"1158 543 OFFCURVE",
"1165 559 OFFCURVE",
"1165 573 CURVE SMOOTH",
"1165 583 OFFCURVE",
"1161 593 OFFCURVE",
"1156 597 CURVE SMOOTH",
"1150 603 OFFCURVE",
"1125 616 OFFCURVE",
"1125 616 CURVE",
"1108 617 LINE",
"1104 616 OFFCURVE",
"1099 625 OFFCURVE",
"1088 625 CURVE",
"1062 630 OFFCURVE",
"1050 631 OFFCURVE",
"1035 631 CURVE SMOOTH",
"979 631 OFFCURVE",
"909 629 OFFCURVE",
"826 623 CURVE",
"822 635 OFFCURVE",
"813 642 OFFCURVE",
"800 642 CURVE SMOOTH",
"796 642 OFFCURVE",
"792 641 OFFCURVE",
"787 640 CURVE",
"778 644 OFFCURVE",
"769 646 OFFCURVE",
"760 646 CURVE SMOOTH",
"752 646 OFFCURVE",
"744 644 OFFCURVE",
"738 640 CURVE SMOOTH",
"733 636 OFFCURVE",
"720 634 OFFCURVE",
"715 629 CURVE SMOOTH",
"712 625 OFFCURVE",
"688 623 OFFCURVE",
"682 616 CURVE SMOOTH",
"677 609 OFFCURVE",
"671 597 OFFCURVE",
"666 594 CURVE",
"604 540 OFFCURVE",
"512 516 OFFCURVE",
"456 462 CURVE SMOOTH",
"453 459 OFFCURVE",
"413 445 OFFCURVE",
"326 369 CURVE SMOOTH",
"319 363 OFFCURVE",
"318 360 OFFCURVE",
"318 358 CURVE SMOOTH",
"318 357 LINE SMOOTH",
"318 355 OFFCURVE",
"318 353 OFFCURVE",
"311 348 CURVE",
"303 340 OFFCURVE",
"282 324 OFFCURVE",
"265 310 CURVE",
"212 305 OFFCURVE",
"197 299 OFFCURVE",
"197 293 CURVE SMOOTH",
"197 283 OFFCURVE",
"235 272 OFFCURVE",
"220 268 CURVE",
"108 150 OFFCURVE",
"40 50 OFFCURVE",
"14 10 CURVE SMOOTH",
"-21 -44 OFFCURVE",
"-33 -77 OFFCURVE",
"-33 -98 CURVE SMOOTH",
"-33 -118 OFFCURVE",
"-24 -129 OFFCURVE",
"-12 -139 CURVE SMOOTH",
"-10 -141 OFFCURVE",
"-6 -143 OFFCURVE",
"-2 -143 CURVE SMOOTH"
);
},
{
closed = 1;
nodes = (
"187 266 LINE SMOOTH",
"205 266 OFFCURVE",
"215 267 OFFCURVE",
"220 268 CURVE",
"223 271 LINE",
"210 270 OFFCURVE",
"175 266 OFFCURVE",
"186 266 CURVE SMOOTH"
);
},
{
closed = 1;
nodes = (
"458 314 LINE SMOOTH",
"445 315 OFFCURVE",
"430 316 OFFCURVE",
"414 316 CURVE SMOOTH",
"392 316 OFFCURVE",
"368 315 OFFCURVE",
"343 315 CURVE",
"400 366 OFFCURVE",
"444 399 OFFCURVE",
"453 403 CURVE",
"454 404 LINE",
"453 405 OFFCURVE",
"535 457 OFFCURVE",
"558 478 CURVE SMOOTH",
"583 500 OFFCURVE",
"651 543 OFFCURVE",
"706 558 CURVE",
"688 534 OFFCURVE",
"677 504 OFFCURVE",
"650 473 CURVE",
"640 446 OFFCURVE",
"596 391 OFFCURVE",
"574 360 CURVE SMOOTH",
"559 339 OFFCURVE",
"535 329 OFFCURVE",
"516 314 CURVE"
);
}
);
};
layerId = "960B82ED-BAE9-407E-815C-F6C3A86A2215";
paths = (
{
closed = 1;
nodes = (
"6 -135 OFFCURVE",
"15 -130 OFFCURVE",
"15 -116 CURVE SMOOTH",
"15 -107 OFFCURVE",
"15 -78 OFFCURVE",
"18 -66 CURVE SMOOTH",
"20 -61 OFFCURVE",
"20 -56 OFFCURVE",
"20 -51 CURVE SMOOTH",
"20 -42 LINE SMOOTH",
"20 -35 OFFCURVE",
"21 -28 OFFCURVE",
"25 -21 CURVE SMOOTH",
"54 24 OFFCURVE",
"16 -22 OFFCURVE",
"115 91 CURVE SMOOTH",
"121 97 OFFCURVE",
"148 127 OFFCURVE",
"155 135 CURVE SMOOTH",
"168 149 OFFCURVE",
"216 204 OFFCURVE",
"230 219 CURVE SMOOTH",
"241 230 OFFCURVE",
"257 240 OFFCURVE",
"268 252 CURVE SMOOTH",
"280 265 OFFCURVE",
"291 275 OFFCURVE",
"302 286 CURVE",
"367 291 OFFCURVE",
"443 295 OFFCURVE",
"502 295 CURVE",
"519 292 LINE",
"476 229 LINE SMOOTH",
"459 205 OFFCURVE",
"445 173 OFFCURVE",
"424 145 CURVE",
"396 83 LINE",
"375 85 OFFCURVE",
"355 79 OFFCURVE",
"355 58 CURVE SMOOTH",
"355 46 OFFCURVE",
"361 30 OFFCURVE",
"376 8 CURVE",
"379 5 OFFCURVE",
"400 0 OFFCURVE",
"404 -4 CURVE SMOOTH",
"405 -5 LINE",
"405 -5 OFFCURVE",
"414 -7 OFFCURVE",
"426 -1 CURVE",
"425 -1 LINE",
"433 2 OFFCURVE",
"435 15 OFFCURVE",
"439 25 CURVE",
"468 16 OFFCURVE",
"503 9 OFFCURVE",
"531 7 CURVE",
"540 5 OFFCURVE",
"569 4 OFFCURVE",
"607 4 CURVE SMOOTH",
"670 4 OFFCURVE",
"755 7 OFFCURVE",
"800 16 CURVE",
"816 17 OFFCURVE",
"850 21 OFFCURVE",
"865 29 CURVE SMOOTH",
"884 39 OFFCURVE",
"910 47 OFFCURVE",
"922 64 CURVE SMOOTH",
"934 82 OFFCURVE",
"930 107 OFFCURVE",
"942 123 CURVE SMOOTH",
"945 127 OFFCURVE",
"946 135 OFFCURVE",
"946 144 CURVE SMOOTH",
"946 158 OFFCURVE",
"942 174 OFFCURVE",
"928 176 CURVE",
"905 175 OFFCURVE",
"893 137 OFFCURVE",
"888 130 CURVE SMOOTH",
"878 116 OFFCURVE",
"877 116 OFFCURVE",
"867 107 CURVE SMOOTH",
"849 91 OFFCURVE",
"823 72 OFFCURVE",
"792 66 CURVE SMOOTH",
"756 59 OFFCURVE",
"723 54 OFFCURVE",
"691 51 CURVE SMOOTH",
"680 50 OFFCURVE",
"675 40 OFFCURVE",
"669 40 CURVE SMOOTH",
"668 40 LINE SMOOTH",
"661 40 OFFCURVE",
"645 46 OFFCURVE",
"637 46 CURVE SMOOTH",
"546 46 LINE SMOOTH",
"517 46 OFFCURVE",
"482 51 OFFCURVE",
"449 62 CURVE",
"450 78 OFFCURVE",
"457 110 OFFCURVE",
"457 104 CURVE SMOOTH",
"457 103 LINE SMOOTH",
"457 89 OFFCURVE",
"467 120 OFFCURVE",
"477 141 CURVE SMOOTH",
"483 152 OFFCURVE",
"540 250 OFFCURVE",
"599 329 CURVE",
"613 334 OFFCURVE",
"627 338 OFFCURVE",
"639 338 CURVE",
"745 350 OFFCURVE",
"812 350 OFFCURVE",
"914 350 CURVE",
"921 348 OFFCURVE",
"927 345 OFFCURVE",
"932 345 CURVE SMOOTH",
"935 345 OFFCURVE",
"938 347 OFFCURVE",
"939 352 CURVE",
"939 359 OFFCURVE",
"918 368 OFFCURVE",
"918 370 CURVE SMOOTH",
"918 371 OFFCURVE",
"918 371 OFFCURVE",
"920 371 CURVE SMOOTH",
"921 371 LINE",
"912 374 OFFCURVE",
"908 376 OFFCURVE",
"899 376 CURVE SMOOTH",
"854 376 OFFCURVE",
"810 381 OFFCURVE",
"765 381 CURVE SMOOTH",
"749 381 OFFCURVE",
"733 383 OFFCURVE",
"719 383 CURVE SMOOTH",
"704 384 OFFCURVE",
"688 384 OFFCURVE",
"673 385 CURVE",
"646 383 LINE",
"654 388 OFFCURVE",
"662 394 OFFCURVE",
"669 401 CURVE SMOOTH",
"682 416 OFFCURVE",
"730 483 OFFCURVE",
"745 505 CURVE",
"758 520 OFFCURVE",
"789 551 OFFCURVE",
"804 565 CURVE SMOOTH",
"822 582 OFFCURVE",
"836 578 OFFCURVE",
"839 588 CURVE",
"892 591 OFFCURVE",
"932 605 OFFCURVE",
"983 605 CURVE SMOOTH",
"1043 605 OFFCURVE",
"1032 598 OFFCURVE",
"1064 598 CURVE SMOOTH",
"1065 598 OFFCURVE",
"1084 585 OFFCURVE",
"1102 577 CURVE SMOOTH",
"1125 568 OFFCURVE",
"1115 544 OFFCURVE",
"1139 546 CURVE",
"1158 551 OFFCURVE",
"1165 567 OFFCURVE",
"1165 581 CURVE SMOOTH",
"1165 591 OFFCURVE",
"1161 601 OFFCURVE",
"1156 605 CURVE SMOOTH",
"1150 611 OFFCURVE",
"1125 624 OFFCURVE",
"1125 624 CURVE",
"1108 625 LINE",
"1104 624 OFFCURVE",
"1099 633 OFFCURVE",
"1088 633 CURVE",
"1062 638 OFFCURVE",
"1050 639 OFFCURVE",
"1035 639 CURVE SMOOTH",
"979 639 OFFCURVE",
"909 637 OFFCURVE",
"826 631 CURVE",
"822 643 OFFCURVE",
"813 650 OFFCURVE",
"800 650 CURVE SMOOTH",
"796 650 OFFCURVE",
"792 649 OFFCURVE",
"787 648 CURVE",
"778 652 OFFCURVE",
"769 654 OFFCURVE",
"760 654 CURVE SMOOTH",
"752 654 OFFCURVE",
"744 652 OFFCURVE",
"738 648 CURVE SMOOTH",
"733 644 OFFCURVE",
"720 642 OFFCURVE",
"715 637 CURVE SMOOTH",
"712 633 OFFCURVE",
"688 631 OFFCURVE",
"682 624 CURVE SMOOTH",
"677 617 OFFCURVE",
"671 605 OFFCURVE",
"666 602 CURVE",
"604 548 OFFCURVE",
"512 524 OFFCURVE",
"456 470 CURVE SMOOTH",
"453 467 OFFCURVE",
"413 453 OFFCURVE",
"326 377 CURVE SMOOTH",
"319 371 OFFCURVE",
"318 368 OFFCURVE",
"318 366 CURVE SMOOTH",
"318 365 LINE SMOOTH",
"318 363 OFFCURVE",
"318 361 OFFCURVE",
"311 356 CURVE",
"303 348 OFFCURVE",
"282 332 OFFCURVE",
"265 318 CURVE",
"212 313 OFFCURVE",
"197 307 OFFCURVE",
"197 301 CURVE SMOOTH",
"197 291 OFFCURVE",
"235 280 OFFCURVE",
"220 276 CURVE",
"108 158 OFFCURVE",
"40 58 OFFCURVE",
"14 18 CURVE SMOOTH",
"-21 -36 OFFCURVE",
"-33 -69 OFFCURVE",
"-33 -90 CURVE SMOOTH",
"-33 -110 OFFCURVE",
"-24 -121 OFFCURVE",
"-12 -131 CURVE SMOOTH",
"-10 -133 OFFCURVE",
"-6 -135 OFFCURVE",
"-2 -135 CURVE SMOOTH"
);
},
{
closed = 1;
nodes = (
"187 274 LINE SMOOTH",
"205 274 OFFCURVE",
"215 275 OFFCURVE",
"220 276 CURVE",
"223 279 LINE",
"210 278 OFFCURVE",
"175 274 OFFCURVE",
"186 274 CURVE SMOOTH"
);
},
{
closed = 1;
nodes = (
"445 322 OFFCURVE",
"430 324 OFFCURVE",
"414 324 CURVE SMOOTH",
"392 324 OFFCURVE",
"368 323 OFFCURVE",
"343 323 CURVE",
"400 374 OFFCURVE",
"444 407 OFFCURVE",
"453 411 CURVE",
"454 412 LINE",
"453 413 OFFCURVE",
"535 465 OFFCURVE",
"558 486 CURVE SMOOTH",
"583 508 OFFCURVE",
"651 551 OFFCURVE",
"706 566 CURVE",
"688 542 OFFCURVE",
"677 512 OFFCURVE",
"650 481 CURVE",
"640 454 OFFCURVE",
"596 399 OFFCURVE",
"574 368 CURVE SMOOTH",
"559 347 OFFCURVE",
"535 337 OFFCURVE",
"516 322 CURVE",
"458 322 LINE SMOOTH"
);
}
);
width = 959;
}
);
note = AE;
unicode = 00C6;
},
{
glyphname = B;
lastChange = "2021-11-09 20:24:30 +0000";
layers = (
{
background = {
paths = (
{
closed = 1;
nodes = (
"323 -81 OFFCURVE",
"377 -70 OFFCURVE",
"430 -55 CURVE SMOOTH",
"475 -42 OFFCURVE",
"540 -21 OFFCURVE",
"587 18 CURVE SMOOTH",
"658 78 OFFCURVE",
"665 53 OFFCURVE",
"697 111 CURVE SMOOTH",
"714 142 OFFCURVE",
"721 169 OFFCURVE",
"721 192 CURVE SMOOTH",
"721 220 OFFCURVE",
"710 242 OFFCURVE",
"693 257 CURVE",
"680 265 OFFCURVE",
"655 268 OFFCURVE",
"628 268 CURVE SMOOTH",
"612 268 OFFCURVE",
"596 267 OFFCURVE",
"582 265 CURVE",
"638 288 OFFCURVE",
"697 316 OFFCURVE",
"734 340 CURVE SMOOTH",
"739 344 OFFCURVE",
"749 343 OFFCURVE",
"756 349 CURVE SMOOTH",
"763 354 OFFCURVE",
"764 363 OFFCURVE",
"768 366 CURVE SMOOTH",
"790 383 OFFCURVE",
"804 401 OFFCURVE",
"815 417 CURVE",
"816 417 LINE",
"834 444 OFFCURVE",
"842 470 OFFCURVE",
"842 493 CURVE SMOOTH",
"842 577 OFFCURVE",
"733 631 OFFCURVE",
"572 637 CURVE SMOOTH",
"554 638 OFFCURVE",
"537 638 OFFCURVE",
"521 638 CURVE SMOOTH",
"483 638 OFFCURVE",
"449 636 OFFCURVE",
"417 632 CURVE",
"411 632 OFFCURVE",
"409 626 OFFCURVE",
"406 626 CURVE SMOOTH",
"407 626 LINE SMOOTH",
"402 625 OFFCURVE",
"395 629 OFFCURVE",
"389 629 CURVE SMOOTH",
"387 629 LINE SMOOTH",
"238 608 OFFCURVE",
"151 552 OFFCURVE",
"112 505 CURVE SMOOTH",
"110 502 OFFCURVE",
"101 503 OFFCURVE",
"96 497 CURVE",
"97 497 LINE",
"92 491 OFFCURVE",
"94 481 OFFCURVE",
"92 479 CURVE",
"83 462 OFFCURVE",
"81 446 OFFCURVE",
"83 437 CURVE",
"92 422 OFFCURVE",
"117 423 OFFCURVE",
"145 423 CURVE SMOOTH",
"151 423 OFFCURVE",
"177 430 OFFCURVE",
"188 440 CURVE",
"193 443 OFFCURVE",
"196 448 OFFCURVE",
"196 452 CURVE SMOOTH",
"196 457 OFFCURVE",
"192 461 OFFCURVE",
"187 461 CURVE SMOOTH",
"185 461 OFFCURVE",
"182 460 OFFCURVE",
"179 458 CURVE SMOOTH",
"171 451 OFFCURVE",
"168 465 OFFCURVE",
"168 474 CURVE SMOOTH",
"168 477 LINE SMOOTH",
"165 496 OFFCURVE",
"199 533 OFFCURVE",
"263 563 CURVE SMOOTH",
"276 569 OFFCURVE",
"291 566 OFFCURVE",
"309 572 CURVE SMOOTH",
"327 579 OFFCURVE",
"345 593 OFFCURVE",
"366 597 CURVE SMOOTH",
"411 608 OFFCURVE",
"463 615 OFFCURVE",
"523 615 CURVE SMOOTH",
"536 615 OFFCURVE",
"549 615 OFFCURVE",
"562 614 CURVE SMOOTH",
"686 609 OFFCURVE",
"771 573 OFFCURVE",
"776 510 CURVE SMOOTH",
"778 488 OFFCURVE",
"777 458 OFFCURVE",
"758 431 CURVE",
"757 431 LINE",
"757 424 OFFCURVE",
"764 421 OFFCURVE",
"764 420 CURVE",
"763 420 LINE",
"760 416 OFFCURVE",
"740 407 OFFCURVE",
"734 400 CURVE SMOOTH",
"684 343 OFFCURVE",
"584 271 OFFCURVE",
"481 266 CURVE SMOOTH",
"453 265 OFFCURVE",
"424 261 OFFCURVE",
"411 256 CURVE SMOOTH",
"389 249 OFFCURVE",
"376 234 OFFCURVE",
"376 223 CURVE SMOOTH",
"376 215 OFFCURVE",
"382 210 OFFCURVE",
"396 210 CURVE",
"401 211 OFFCURVE",
"407 209 OFFCURVE",
"420 210 CURVE SMOOTH",
"428 211 OFFCURVE",
"443 217 OFFCURVE",
"448 217 CURVE",
"471 221 OFFCURVE",
"517 233 OFFCURVE",
"517 233 CURVE",
"534 233 OFFCURVE",
"558 236 OFFCURVE",
"580 236 CURVE SMOOTH",
"603 236 OFFCURVE",
"625 233 OFFCURVE",
"634 220 CURVE SMOOTH",
"642 209 OFFCURVE",
"647 194 OFFCURVE",
"647 176 CURVE SMOOTH",
"647 158 OFFCURVE",
"642 136 OFFCURVE",
"628 110 CURVE SMOOTH",
"605 67 OFFCURVE",
"545 12 OFFCURVE",
"441 -23 CURVE SMOOTH",
"363 -48 OFFCURVE",
"348 -48 OFFCURVE",
"305 -50 CURVE",
"299 -51 OFFCURVE",
"286 -50 OFFCURVE",
"287 -48 CURVE",
"280 -31 OFFCURVE",
"273 -25 OFFCURVE",
"267 -25 CURVE SMOOTH",
"257 -25 OFFCURVE",
"250 -39 OFFCURVE",
"250 -53 CURVE SMOOTH",
"250 -63 OFFCURVE",
"254 -73 OFFCURVE",
"263 -77 CURVE SMOOTH",
"269 -80 OFFCURVE",
"278 -81 OFFCURVE",
"289 -81 CURVE SMOOTH"
);
},
{
closed = 1;
nodes = (
"88 -119 OFFCURVE",
"102 -104 OFFCURVE",
"112 -62 CURVE SMOOTH",
"124 -12 OFFCURVE",
"148 13 OFFCURVE",
"152 23 CURVE SMOOTH",
"156 37 OFFCURVE",
"181 73 OFFCURVE",
"190 93 CURVE SMOOTH",
"196 106 OFFCURVE",
"228 123 OFFCURVE",
"238 140 CURVE",
"239 140 LINE",
"247 154 OFFCURVE",
"255 181 OFFCURVE",
"323 263 CURVE SMOOTH",
"333 275 OFFCURVE",
"391 350 OFFCURVE",
"403 363 CURVE SMOOTH",
"415 377 OFFCURVE",
"469 406 OFFCURVE",
"484 429 CURVE SMOOTH",
"495 443 OFFCURVE",
"525 458 OFFCURVE",
"541 472 CURVE SMOOTH",
"570 498 OFFCURVE",
"577 525 OFFCURVE",
"580 544 CURVE",
"580 558 OFFCURVE",
"569 563 OFFCURVE",
"553 563 CURVE SMOOTH",
"531 563 OFFCURVE",
"502 553 OFFCURVE",
"482 543 CURVE SMOOTH",
"471 538 OFFCURVE",
"457 520 OFFCURVE",
"448 512 CURVE SMOOTH",
"438 503 OFFCURVE",
"422 470 OFFCURVE",
"415 461 CURVE SMOOTH",
"389 431 OFFCURVE",
"344 378 OFFCURVE",
"320 347 CURVE",
"320 347 OFFCURVE",
"277 296 OFFCURVE",
"276 291 CURVE",
"270 284 OFFCURVE",
"208 200 OFFCURVE",
"177 150 CURVE SMOOTH",
"162 126 OFFCURVE",
"115 37 OFFCURVE",
"96 -1 CURVE SMOOTH",
"75 -43 OFFCURVE",
"67 -87 OFFCURVE",
"67 -100 CURVE SMOOTH",
"67 -111 OFFCURVE",
"72 -119 OFFCURVE",
"79 -119 CURVE SMOOTH"
);
}
);
};
layerId = "960B82ED-BAE9-407E-815C-F6C3A86A2215";
paths = (
{
closed = 1;
nodes = (
"323 -73 OFFCURVE",
"377 -62 OFFCURVE",
"430 -47 CURVE SMOOTH",
"475 -34 OFFCURVE",
"540 -13 OFFCURVE",
"587 26 CURVE SMOOTH",
"658 86 OFFCURVE",
"665 61 OFFCURVE",
"697 119 CURVE SMOOTH",
"714 150 OFFCURVE",
"721 177 OFFCURVE",
"721 200 CURVE SMOOTH",
"721 228 OFFCURVE",
"710 250 OFFCURVE",
"693 265 CURVE",
"680 273 OFFCURVE",
"655 276 OFFCURVE",
"628 276 CURVE SMOOTH",
"612 276 OFFCURVE",
"596 275 OFFCURVE",
"582 273 CURVE",
"638 296 OFFCURVE",
"697 324 OFFCURVE",
"734 348 CURVE SMOOTH",
"739 352 OFFCURVE",
"749 351 OFFCURVE",
"756 357 CURVE SMOOTH",
"763 362 OFFCURVE",
"764 371 OFFCURVE",
"768 374 CURVE SMOOTH",
"790 391 OFFCURVE",
"804 409 OFFCURVE",
"815 425 CURVE",
"816 425 LINE",
"834 452 OFFCURVE",
"842 478 OFFCURVE",
"842 501 CURVE SMOOTH",
"842 585 OFFCURVE",
"733 639 OFFCURVE",
"572 645 CURVE SMOOTH",
"554 646 OFFCURVE",
"537 646 OFFCURVE",
"521 646 CURVE SMOOTH",
"483 646 OFFCURVE",
"449 644 OFFCURVE",
"417 640 CURVE",
"411 640 OFFCURVE",
"409 634 OFFCURVE",
"406 634 CURVE SMOOTH",
"407 634 LINE SMOOTH",
"402 633 OFFCURVE",
"395 637 OFFCURVE",
"389 637 CURVE SMOOTH",
"387 637 LINE SMOOTH",
"238 616 OFFCURVE",
"151 560 OFFCURVE",
"112 513 CURVE SMOOTH",
"110 510 OFFCURVE",
"101 511 OFFCURVE",
"96 505 CURVE",
"97 505 LINE",
"92 499 OFFCURVE",
"94 489 OFFCURVE",
"92 487 CURVE",
"83 470 OFFCURVE",
"81 454 OFFCURVE",
"83 445 CURVE",
"92 430 OFFCURVE",
"117 431 OFFCURVE",
"145 431 CURVE SMOOTH",
"151 431 OFFCURVE",
"177 438 OFFCURVE",
"188 448 CURVE",
"193 451 OFFCURVE",
"196 456 OFFCURVE",
"196 460 CURVE SMOOTH",
"196 465 OFFCURVE",
"192 469 OFFCURVE",
"187 469 CURVE SMOOTH",
"185 469 OFFCURVE",
"182 468 OFFCURVE",
"179 466 CURVE SMOOTH",
"171 459 OFFCURVE",
"168 473 OFFCURVE",
"168 482 CURVE SMOOTH",
"168 485 LINE SMOOTH",
"165 504 OFFCURVE",
"199 541 OFFCURVE",
"263 571 CURVE SMOOTH",
"276 577 OFFCURVE",
"291 574 OFFCURVE",
"309 580 CURVE SMOOTH",
"327 587 OFFCURVE",
"345 601 OFFCURVE",
"366 605 CURVE SMOOTH",
"411 616 OFFCURVE",
"463 623 OFFCURVE",
"523 623 CURVE SMOOTH",
"536 623 OFFCURVE",
"549 623 OFFCURVE",
"562 622 CURVE SMOOTH",
"686 617 OFFCURVE",
"771 581 OFFCURVE",
"776 518 CURVE SMOOTH",
"778 496 OFFCURVE",
"777 466 OFFCURVE",
"758 439 CURVE",
"757 439 LINE",
"757 432 OFFCURVE",
"764 429 OFFCURVE",
"764 428 CURVE",
"763 428 LINE",
"760 424 OFFCURVE",
"740 415 OFFCURVE",
"734 408 CURVE SMOOTH",
"684 351 OFFCURVE",
"584 279 OFFCURVE",
"481 274 CURVE SMOOTH",
"453 273 OFFCURVE",
"424 269 OFFCURVE",
"411 264 CURVE SMOOTH",
"389 257 OFFCURVE",
"376 242 OFFCURVE",
"376 231 CURVE SMOOTH",
"376 223 OFFCURVE",
"382 218 OFFCURVE",
"396 218 CURVE",
"401 219 OFFCURVE",
"407 217 OFFCURVE",
"420 218 CURVE SMOOTH",
"428 219 OFFCURVE",
"443 225 OFFCURVE",
"448 225 CURVE",
"471 229 OFFCURVE",
"517 241 OFFCURVE",
"517 241 CURVE",
"534 241 OFFCURVE",
"558 244 OFFCURVE",
"580 244 CURVE SMOOTH",
"603 244 OFFCURVE",
"625 241 OFFCURVE",
"634 228 CURVE SMOOTH",
"642 217 OFFCURVE",
"647 202 OFFCURVE",
"647 184 CURVE SMOOTH",
"647 166 OFFCURVE",
"642 144 OFFCURVE",
"628 118 CURVE SMOOTH",
"605 75 OFFCURVE",
"545 20 OFFCURVE",
"441 -15 CURVE SMOOTH",
"363 -40 OFFCURVE",
"348 -40 OFFCURVE",
"305 -42 CURVE",
"299 -43 OFFCURVE",
"286 -42 OFFCURVE",
"287 -40 CURVE",
"280 -23 OFFCURVE",
"273 -17 OFFCURVE",
"267 -17 CURVE SMOOTH",
"257 -17 OFFCURVE",
"250 -31 OFFCURVE",
"250 -45 CURVE SMOOTH",
"250 -55 OFFCURVE",
"254 -65 OFFCURVE",
"263 -69 CURVE SMOOTH",
"269 -72 OFFCURVE",
"278 -73 OFFCURVE",
"289 -73 CURVE SMOOTH"
);
},
{
closed = 1;
nodes = (
"88 -111 OFFCURVE",
"102 -96 OFFCURVE",
"112 -54 CURVE SMOOTH",
"124 -4 OFFCURVE",
"148 21 OFFCURVE",
"152 31 CURVE SMOOTH",
"156 45 OFFCURVE",
"181 81 OFFCURVE",
"190 101 CURVE SMOOTH",
"196 114 OFFCURVE",
"228 131 OFFCURVE",
"238 148 CURVE",
"239 148 LINE",
"247 162 OFFCURVE",
"255 189 OFFCURVE",
"323 271 CURVE SMOOTH",
"333 283 OFFCURVE",
"391 358 OFFCURVE",
"403 371 CURVE SMOOTH",
"415 385 OFFCURVE",
"469 414 OFFCURVE",
"484 437 CURVE SMOOTH",
"495 451 OFFCURVE",
"525 466 OFFCURVE",
"541 480 CURVE SMOOTH",
"570 506 OFFCURVE",
"577 533 OFFCURVE",
"580 552 CURVE",
"580 566 OFFCURVE",
"569 571 OFFCURVE",
"553 571 CURVE SMOOTH",
"531 571 OFFCURVE",
"502 561 OFFCURVE",
"482 551 CURVE SMOOTH",
"471 546 OFFCURVE",
"457 528 OFFCURVE",
"448 520 CURVE SMOOTH",
"438 511 OFFCURVE",
"422 478 OFFCURVE",
"415 469 CURVE SMOOTH",
"389 439 OFFCURVE",
"344 386 OFFCURVE",
"320 355 CURVE",
"320 355 OFFCURVE",
"277 304 OFFCURVE",
"276 299 CURVE",
"270 292 OFFCURVE",
"208 208 OFFCURVE",
"177 158 CURVE SMOOTH",
"162 134 OFFCURVE",
"115 45 OFFCURVE",
"96 7 CURVE SMOOTH",
"75 -35 OFFCURVE",
"67 -79 OFFCURVE",
"67 -92 CURVE SMOOTH",
"67 -103 OFFCURVE",
"72 -111 OFFCURVE",
"79 -111 CURVE SMOOTH"
);
}
);
width = 754;
}
);
note = B;
unicode = 0042;
},
{
glyphname = C;
lastChange = "2021-11-09 21:29:53 +0000";
layers = (
{
anchors = (
{
name = bottom;
position = "{264, -20}";
},
{
name = top;
position = "{605, 640}";
}
);
background = {
paths = (
{
closed = 1;
nodes = (
"303 -29 OFFCURVE",
"366 -11 OFFCURVE",
"388 -5 CURVE SMOOTH",
"406 0 OFFCURVE",
"420 13 OFFCURVE",
"437 20 CURVE SMOOTH",
"500 45 OFFCURVE",
"549 98 OFFCURVE",
"600 134 CURVE SMOOTH",
"622 149 OFFCURVE",
"634 165 OFFCURVE",
"634 173 CURVE SMOOTH",
"634 177 OFFCURVE",
"632 179 OFFCURVE",
"627 179 CURVE SMOOTH",
"617 179 OFFCURVE",
"595 168 OFFCURVE",
"561 137 CURVE SMOOTH",
"521 101 OFFCURVE",
"486 68 OFFCURVE",
"421 44 CURVE SMOOTH",
"408 39 OFFCURVE",
"388 35 OFFCURVE",
"376 32 CURVE SMOOTH",
"366 30 OFFCURVE",
"335 14 OFFCURVE",
"326 12 CURVE SMOOTH",
"314 10 OFFCURVE",
"284 5 OFFCURVE",
"252 5 CURVE SMOOTH",
"207 5 OFFCURVE",
"156 14 OFFCURVE",
"135 53 CURVE SMOOTH",
"124 73 OFFCURVE",
"114 104 OFFCURVE",
"114 136 CURVE SMOOTH",
"114 154 OFFCURVE",
"117 173 OFFCURVE",
"125 190 CURVE SMOOTH",
"139 220 OFFCURVE",
"143 279 OFFCURVE",
"173 321 CURVE SMOOTH",
"178 329 OFFCURVE",
"195 347 OFFCURVE",
"202 355 CURVE SMOOTH",
"211 367 OFFCURVE",
"210 367 OFFCURVE",
"218 378 CURVE",
"280 449 OFFCURVE",
"380 500 OFFCURVE",
"483 546 CURVE SMOOTH",
"516 561 OFFCURVE",
"546 565 OFFCURVE",
"571 565 CURVE SMOOTH",
"588 565 OFFCURVE",
"603 563 OFFCURVE",
"615 561 CURVE SMOOTH",
"616 561 LINE SMOOTH",
"637 557 OFFCURVE",
"650 557 OFFCURVE",
"657 543 CURVE",
"659 535 OFFCURVE",
"667 523 OFFCURVE",
"670 516 CURVE SMOOTH",
"674 505 OFFCURVE",
"680 501 OFFCURVE",
"686 501 CURVE SMOOTH",
"699 501 OFFCURVE",
"715 520 OFFCURVE",
"715 541 CURVE SMOOTH",
"715 546 OFFCURVE",
"714 550 OFFCURVE",
"713 554 CURVE SMOOTH",
"707 575 OFFCURVE",
"712 605 OFFCURVE",
"669 615 CURVE SMOOTH",
"652 619 OFFCURVE",
"629 621 OFFCURVE",
"605 621 CURVE SMOOTH",
"554 621 OFFCURVE",
"495 613 OFFCURVE",
"458 598 CURVE SMOOTH",
"414 581 OFFCURVE",
"357 564 OFFCURVE",
"318 536 CURVE",
"310 529 OFFCURVE",
"310 510 OFFCURVE",
"304 506 CURVE",
"301 503 OFFCURVE",
"295 503 OFFCURVE",
"289 503 CURVE SMOOTH",
"283 503 OFFCURVE",
"276 503 OFFCURVE",
"270 499 CURVE SMOOTH",
"259 490 OFFCURVE",
"249 480 OFFCURVE",
"238 470 CURVE SMOOTH",
"143 383 OFFCURVE",
"82 300 OFFCURVE",
"59 202 CURVE SMOOTH",
"56 188 OFFCURVE",
"53 168 OFFCURVE",
"53 147 CURVE SMOOTH",
"53 98 OFFCURVE",
"65 39 OFFCURVE",
"99 11 CURVE SMOOTH",
"137 -19 OFFCURVE",
"187 -29 OFFCURVE",
"236 -29 CURVE SMOOTH"
);
}
);
};
layerId = "960B82ED-BAE9-407E-815C-F6C3A86A2215";
paths = (
{
closed = 1;
nodes = (
"303 -21 OFFCURVE",
"366 -3 OFFCURVE",
"388 3 CURVE SMOOTH",
"406 8 OFFCURVE",
"420 21 OFFCURVE",
"437 28 CURVE SMOOTH",
"500 53 OFFCURVE",
"549 106 OFFCURVE",
"600 142 CURVE SMOOTH",
"622 157 OFFCURVE",
"634 173 OFFCURVE",
"634 181 CURVE SMOOTH",
"634 185 OFFCURVE",
"632 187 OFFCURVE",
"627 187 CURVE SMOOTH",
"617 187 OFFCURVE",
"595 176 OFFCURVE",
"561 145 CURVE SMOOTH",
"521 109 OFFCURVE",
"486 76 OFFCURVE",
"421 52 CURVE SMOOTH",
"408 47 OFFCURVE",
"388 43 OFFCURVE",
"376 40 CURVE SMOOTH",
"366 38 OFFCURVE",
"335 22 OFFCURVE",
"326 20 CURVE SMOOTH",
"314 18 OFFCURVE",
"284 13 OFFCURVE",
"252 13 CURVE SMOOTH",
"207 13 OFFCURVE",
"156 22 OFFCURVE",
"135 61 CURVE SMOOTH",
"124 81 OFFCURVE",
"114 112 OFFCURVE",
"114 144 CURVE SMOOTH",
"114 162 OFFCURVE",
"117 181 OFFCURVE",
"125 198 CURVE SMOOTH",
"139 228 OFFCURVE",
"143 287 OFFCURVE",
"173 329 CURVE SMOOTH",
"178 337 OFFCURVE",
"195 355 OFFCURVE",
"202 363 CURVE SMOOTH",
"211 375 OFFCURVE",
"210 375 OFFCURVE",
"218 386 CURVE",
"280 457 OFFCURVE",
"380 508 OFFCURVE",
"483 554 CURVE SMOOTH",
"516 569 OFFCURVE",
"546 573 OFFCURVE",
"571 573 CURVE SMOOTH",
"588 573 OFFCURVE",
"603 569 OFFCURVE",
"615 569 CURVE SMOOTH",
"616 569 LINE SMOOTH",
"637 569 OFFCURVE",
"650 565 OFFCURVE",
"657 551 CURVE",
"659 543 OFFCURVE",
"667 531 OFFCURVE",
"670 524 CURVE SMOOTH",
"674 513 OFFCURVE",
"680 509 OFFCURVE",
"686 509 CURVE SMOOTH",
"699 509 OFFCURVE",
"715 528 OFFCURVE",
"715 549 CURVE SMOOTH",
"715 554 OFFCURVE",
"714 558 OFFCURVE",
"713 562 CURVE SMOOTH",
"707 583 OFFCURVE",
"712 613 OFFCURVE",
"669 623 CURVE SMOOTH",
"652 627 OFFCURVE",
"629 629 OFFCURVE",
"605 629 CURVE SMOOTH",
"554 629 OFFCURVE",
"495 621 OFFCURVE",
"458 606 CURVE SMOOTH",
"414 589 OFFCURVE",
"357 572 OFFCURVE",
"318 544 CURVE",
"310 537 OFFCURVE",
"310 518 OFFCURVE",
"304 514 CURVE",
"301 511 OFFCURVE",
"295 511 OFFCURVE",
"289 511 CURVE SMOOTH",
"283 511 OFFCURVE",
"276 511 OFFCURVE",
"270 507 CURVE SMOOTH",
"259 498 OFFCURVE",
"249 488 OFFCURVE",
"238 478 CURVE SMOOTH",
"143 391 OFFCURVE",
"82 308 OFFCURVE",
"59 210 CURVE SMOOTH",
"56 196 OFFCURVE",
"53 176 OFFCURVE",
"53 155 CURVE SMOOTH",
"53 106 OFFCURVE",
"65 47 OFFCURVE",
"99 19 CURVE SMOOTH",
"137 -11 OFFCURVE",
"187 -21 OFFCURVE",
"236 -21 CURVE SMOOTH"
);
}
);
width = 604;
}
);
note = C;
unicode = 0043;
},
{
glyphname = D;
lastChange = "2021-11-09 21:29:53 +0000";
layers = (
{
anchors = (
{
name = bottom;
position = "{440, 0}";
},
{
name = center;
position = "{324, 301}";
},
{
name = top;
position = "{747, 585}";
}
);
background = {
paths = (
{
closed = 1;
nodes = (
"89 -89 OFFCURVE",
"103 -74 OFFCURVE",
"113 -32 CURVE SMOOTH",
"125 18 OFFCURVE",
"149 43 OFFCURVE",
"153 53 CURVE SMOOTH",
"157 67 OFFCURVE",
"182 102 OFFCURVE",
"191 123 CURVE SMOOTH",
"197 135 OFFCURVE",
"229 153 OFFCURVE",
"239 170 CURVE",
"240 170 LINE",
"248 184 OFFCURVE",
"256 211 OFFCURVE",
"324 293 CURVE SMOOTH",
"334 305 OFFCURVE",
"392 380 OFFCURVE",
"404 393 CURVE SMOOTH",
"416 407 OFFCURVE",
"470 436 OFFCURVE",
"485 459 CURVE SMOOTH",
"496 473 OFFCURVE",
"526 487 OFFCURVE",
"542 502 CURVE SMOOTH",
"568 525 OFFCURVE",
"577 550 OFFCURVE",
"580 569 CURVE",
"684 553 OFFCURVE",
"777 508 OFFCURVE",
"808 461 CURVE SMOOTH",
"830 428 OFFCURVE",
"839 390 OFFCURVE",
"839 352 CURVE SMOOTH",
"839 302 OFFCURVE",
"823 251 OFFCURVE",
"793 210 CURVE SMOOTH",
"735 128 OFFCURVE",
"643 71 OFFCURVE",
"496 0 CURVE SMOOTH",
"457 -18 OFFCURVE",
"343 -41 OFFCURVE",
"287 -41 CURVE SMOOTH",
"280 -41 OFFCURVE",
"273 -41 OFFCURVE",
"268 -40 CURVE",
"260 -41 OFFCURVE",
"208 -42 OFFCURVE",
"189 -24 CURVE SMOOTH",
"178 -14 OFFCURVE",
"169 -10 OFFCURVE",
"161 -10 CURVE SMOOTH",
"148 -10 OFFCURVE",
"140 -23 OFFCURVE",
"140 -37 CURVE SMOOTH",
"140 -48 OFFCURVE",
"144 -58 OFFCURVE",
"154 -64 CURVE SMOOTH",
"168 -73 OFFCURVE",
"200 -77 OFFCURVE",
"239 -77 CURVE SMOOTH",
"265 -77 OFFCURVE",
"293 -75 OFFCURVE",
"321 -71 CURVE SMOOTH",
"367 -64 OFFCURVE",
"483 -46 OFFCURVE",
"561 0 CURVE SMOOTH",
"642 47 OFFCURVE",
"760 91 OFFCURVE",
"850 206 CURVE SMOOTH",
"899 268 OFFCURVE",
"922 326 OFFCURVE",
"922 378 CURVE SMOOTH",
"922 506 OFFCURVE",
"780 593 OFFCURVE",
"538 597 CURVE SMOOTH",
"498 598 OFFCURVE",
"478 602 OFFCURVE",
"454 602 CURVE SMOOTH",
"443 602 OFFCURVE",
"432 601 OFFCURVE",
"418 599 CURVE SMOOTH",
"414 599 OFFCURVE",
"369 590 OFFCURVE",
"365 590 CURVE SMOOTH",
"366 590 LINE SMOOTH",
"359 589 OFFCURVE",
"359 590 OFFCURVE",
"353 589 CURVE SMOOTH",
"204 568 OFFCURVE",
"117 512 OFFCURVE",
"78 465 CURVE SMOOTH",
"76 462 OFFCURVE",
"67 463 OFFCURVE",
"62 457 CURVE",
"63 457 LINE",
"58 451 OFFCURVE",
"60 441 OFFCURVE",
"58 439 CURVE",
"49 422 OFFCURVE",
"47 406 OFFCURVE",
"49 397 CURVE",
"58 382 OFFCURVE",
"83 383 OFFCURVE",
"111 383 CURVE SMOOTH",
"117 383 OFFCURVE",
"143 390 OFFCURVE",
"154 400 CURVE",
"159 403 OFFCURVE",
"162 408 OFFCURVE",
"162 412 CURVE SMOOTH",
"162 417 OFFCURVE",
"158 421 OFFCURVE",
"153 421 CURVE SMOOTH",
"151 421 OFFCURVE",
"148 420 OFFCURVE",
"145 418 CURVE SMOOTH",
"137 411 OFFCURVE",
"134 425 OFFCURVE",
"134 434 CURVE SMOOTH",
"134 437 LINE SMOOTH",
"131 456 OFFCURVE",
"165 493 OFFCURVE",
"229 523 CURVE SMOOTH",
"243 529 OFFCURVE",
"262 533 OFFCURVE",
"278 539 CURVE SMOOTH",
"296 546 OFFCURVE",
"311 552 OFFCURVE",
"332 557 CURVE SMOOTH",
"377 567 OFFCURVE",
"428 574 OFFCURVE",
"487 575 CURVE",
"483 573 LINE SMOOTH",
"472 567 OFFCURVE",
"458 550 OFFCURVE",
"449 542 CURVE SMOOTH",
"439 533 OFFCURVE",
"423 500 OFFCURVE",
"416 491 CURVE SMOOTH",
"390 461 OFFCURVE",
"345 408 OFFCURVE",
"321 377 CURVE",
"321 377 OFFCURVE",
"278 326 OFFCURVE",
"277 321 CURVE",
"271 314 OFFCURVE",
"209 230 OFFCURVE",
"178 180 CURVE SMOOTH",
"163 156 OFFCURVE",
"116 67 OFFCURVE",
"97 29 CURVE SMOOTH",
"76 -13 OFFCURVE",
"68 -57 OFFCURVE",
"68 -70 CURVE SMOOTH",
"68 -81 OFFCURVE",
"73 -89 OFFCURVE",
"80 -89 CURVE SMOOTH"
);
}
);
};
layerId = "960B82ED-BAE9-407E-815C-F6C3A86A2215";
paths = (
{
closed = 1;
nodes = (
"89 -81 OFFCURVE",
"103 -66 OFFCURVE",
"113 -24 CURVE SMOOTH",
"125 26 OFFCURVE",
"149 51 OFFCURVE",
"153 61 CURVE SMOOTH",
"157 75 OFFCURVE",
"182 110 OFFCURVE",
"191 131 CURVE SMOOTH",
"197 143 OFFCURVE",
"229 161 OFFCURVE",
"239 178 CURVE",
"240 178 LINE",
"248 192 OFFCURVE",
"256 219 OFFCURVE",
"324 301 CURVE SMOOTH",
"334 313 OFFCURVE",
"392 388 OFFCURVE",
"404 401 CURVE SMOOTH",
"416 415 OFFCURVE",
"470 444 OFFCURVE",
"485 467 CURVE SMOOTH",
"496 481 OFFCURVE",
"526 495 OFFCURVE",
"542 510 CURVE SMOOTH",
"568 533 OFFCURVE",
"577 558 OFFCURVE",
"580 577 CURVE",
"684 561 OFFCURVE",
"777 516 OFFCURVE",
"808 469 CURVE SMOOTH",
"830 436 OFFCURVE",
"839 398 OFFCURVE",
"839 360 CURVE SMOOTH",
"839 310 OFFCURVE",
"823 259 OFFCURVE",
"793 218 CURVE SMOOTH",
"735 136 OFFCURVE",
"643 79 OFFCURVE",
"496 8 CURVE SMOOTH",
"457 -10 OFFCURVE",
"343 -33 OFFCURVE",
"287 -33 CURVE SMOOTH",
"280 -33 OFFCURVE",
"273 -33 OFFCURVE",
"268 -32 CURVE",
"260 -33 OFFCURVE",
"208 -34 OFFCURVE",
"189 -16 CURVE SMOOTH",
"178 -6 OFFCURVE",
"169 -2 OFFCURVE",
"161 -2 CURVE SMOOTH",
"148 -2 OFFCURVE",
"140 -15 OFFCURVE",
"140 -29 CURVE SMOOTH",
"140 -40 OFFCURVE",
"144 -50 OFFCURVE",
"154 -56 CURVE SMOOTH",
"168 -65 OFFCURVE",
"200 -69 OFFCURVE",
"239 -69 CURVE SMOOTH",
"265 -69 OFFCURVE",
"293 -67 OFFCURVE",
"321 -63 CURVE SMOOTH",
"367 -56 OFFCURVE",
"483 -38 OFFCURVE",
"561 8 CURVE SMOOTH",
"642 55 OFFCURVE",
"760 99 OFFCURVE",
"850 214 CURVE SMOOTH",
"899 276 OFFCURVE",
"922 334 OFFCURVE",
"922 386 CURVE SMOOTH",
"922 514 OFFCURVE",
"780 601 OFFCURVE",
"538 605 CURVE SMOOTH",
"498 606 OFFCURVE",
"478 610 OFFCURVE",
"454 610 CURVE SMOOTH",
"443 610 OFFCURVE",
"432 609 OFFCURVE",
"418 607 CURVE SMOOTH",
"414 607 OFFCURVE",
"361 598 OFFCURVE",
"365 598 CURVE SMOOTH",
"366 598 LINE SMOOTH",
"373 598 OFFCURVE",
"359 598 OFFCURVE",
"353 597 CURVE SMOOTH",
"204 576 OFFCURVE",
"117 520 OFFCURVE",
"78 473 CURVE SMOOTH",
"76 470 OFFCURVE",
"67 471 OFFCURVE",
"62 465 CURVE",
"63 465 LINE",
"58 459 OFFCURVE",
"60 449 OFFCURVE",
"58 447 CURVE",
"49 430 OFFCURVE",
"47 414 OFFCURVE",
"49 405 CURVE",
"58 390 OFFCURVE",
"83 391 OFFCURVE",
"111 391 CURVE SMOOTH",
"117 391 OFFCURVE",
"143 398 OFFCURVE",
"154 408 CURVE",
"159 411 OFFCURVE",
"162 416 OFFCURVE",
"162 420 CURVE SMOOTH",
"162 425 OFFCURVE",
"158 429 OFFCURVE",
"153 429 CURVE SMOOTH",
"151 429 OFFCURVE",
"148 428 OFFCURVE",
"145 426 CURVE SMOOTH",
"137 419 OFFCURVE",
"134 433 OFFCURVE",
"134 442 CURVE SMOOTH",
"134 445 LINE SMOOTH",
"134 464 OFFCURVE",
"165 501 OFFCURVE",
"229 531 CURVE SMOOTH",
"243 537 OFFCURVE",
"262 541 OFFCURVE",
"278 547 CURVE SMOOTH",
"296 554 OFFCURVE",
"311 560 OFFCURVE",
"332 565 CURVE SMOOTH",
"377 575 OFFCURVE",
"428 582 OFFCURVE",
"487 583 CURVE",
"483 581 LINE SMOOTH",
"472 575 OFFCURVE",
"458 558 OFFCURVE",
"449 550 CURVE SMOOTH",
"439 541 OFFCURVE",
"423 508 OFFCURVE",
"416 499 CURVE SMOOTH",
"390 469 OFFCURVE",
"345 416 OFFCURVE",
"321 385 CURVE",
"321 385 OFFCURVE",
"278 334 OFFCURVE",
"277 329 CURVE",
"271 322 OFFCURVE",
"209 238 OFFCURVE",
"178 188 CURVE SMOOTH",
"163 164 OFFCURVE",
"116 75 OFFCURVE",
"97 37 CURVE SMOOTH",
"76 -5 OFFCURVE",
"68 -49 OFFCURVE",
"68 -62 CURVE SMOOTH",
"68 -73 OFFCURVE",
"73 -81 OFFCURVE",
"80 -81 CURVE SMOOTH"
);
}
);
width = 880;
}
);
note = D;
unicode = 0044;
},
{
glyphname = Eth;
lastChange = "2021-11-09 20:47:00 +0000";
layers = (
{
background = {
paths = (
{
closed = 1;
nodes = (
"89 -89 OFFCURVE",
"103 -74 OFFCURVE",
"113 -32 CURVE SMOOTH",
"125 18 OFFCURVE",
"149 43 OFFCURVE",
"153 53 CURVE SMOOTH",
"157 67 OFFCURVE",
"182 102 OFFCURVE",
"191 123 CURVE SMOOTH",
"197 135 OFFCURVE",
"229 153 OFFCURVE",
"239 170 CURVE",
"240 170 LINE",
"248 184 OFFCURVE",
"256 211 OFFCURVE",
"324 293 CURVE SMOOTH",
"334 305 OFFCURVE",
"392 380 OFFCURVE",
"404 393 CURVE SMOOTH",
"416 407 OFFCURVE",
"470 436 OFFCURVE",
"485 459 CURVE SMOOTH",
"496 473 OFFCURVE",
"526 487 OFFCURVE",
"542 502 CURVE SMOOTH",
"568 525 OFFCURVE",
"577 550 OFFCURVE",
"580 569 CURVE",
"684 553 OFFCURVE",
"777 508 OFFCURVE",
"808 461 CURVE SMOOTH",
"830 428 OFFCURVE",
"839 390 OFFCURVE",
"839 352 CURVE SMOOTH",
"839 302 OFFCURVE",
"823 251 OFFCURVE",
"793 210 CURVE SMOOTH",
"735 128 OFFCURVE",
"643 71 OFFCURVE",
"496 0 CURVE SMOOTH",
"457 -18 OFFCURVE",
"343 -41 OFFCURVE",
"287 -41 CURVE SMOOTH",
"280 -41 OFFCURVE",
"273 -41 OFFCURVE",
"268 -40 CURVE",
"260 -41 OFFCURVE",
"208 -42 OFFCURVE",
"189 -24 CURVE SMOOTH",
"178 -14 OFFCURVE",
"169 -10 OFFCURVE",
"161 -10 CURVE SMOOTH",
"148 -10 OFFCURVE",
"140 -23 OFFCURVE",
"140 -37 CURVE SMOOTH",
"140 -48 OFFCURVE",
"144 -58 OFFCURVE",
"154 -64 CURVE SMOOTH",
"168 -73 OFFCURVE",
"200 -77 OFFCURVE",
"239 -77 CURVE SMOOTH",
"265 -77 OFFCURVE",
"293 -75 OFFCURVE",
"321 -71 CURVE SMOOTH",
"367 -64 OFFCURVE",
"483 -46 OFFCURVE",
"561 0 CURVE SMOOTH",
"642 47 OFFCURVE",
"760 91 OFFCURVE",
"850 206 CURVE SMOOTH",
"899 268 OFFCURVE",
"922 326 OFFCURVE",
"922 378 CURVE SMOOTH",
"922 506 OFFCURVE",
"780 593 OFFCURVE",
"538 597 CURVE SMOOTH",
"498 598 OFFCURVE",
"478 602 OFFCURVE",
"454 602 CURVE SMOOTH",
"443 602 OFFCURVE",
"432 601 OFFCURVE",
"418 599 CURVE SMOOTH",
"414 599 OFFCURVE",
"369 590 OFFCURVE",
"365 590 CURVE SMOOTH",
"366 590 LINE SMOOTH",
"359 589 OFFCURVE",
"359 590 OFFCURVE",
"353 589 CURVE SMOOTH",
"204 568 OFFCURVE",
"117 512 OFFCURVE",
"78 465 CURVE SMOOTH",
"76 462 OFFCURVE",
"67 463 OFFCURVE",
"62 457 CURVE",
"63 457 LINE",
"58 451 OFFCURVE",
"60 441 OFFCURVE",
"58 439 CURVE",
"49 422 OFFCURVE",
"47 406 OFFCURVE",
"49 397 CURVE",
"58 382 OFFCURVE",
"83 383 OFFCURVE",
"111 383 CURVE SMOOTH",
"117 383 OFFCURVE",
"143 390 OFFCURVE",
"154 400 CURVE",
"159 403 OFFCURVE",
"162 408 OFFCURVE",
"162 412 CURVE SMOOTH",
"162 417 OFFCURVE",
"158 421 OFFCURVE",
"153 421 CURVE SMOOTH",
"151 421 OFFCURVE",
"148 420 OFFCURVE",
"145 418 CURVE SMOOTH",
"137 411 OFFCURVE",
"134 425 OFFCURVE",
"134 434 CURVE SMOOTH",
"134 437 LINE SMOOTH",
"131 456 OFFCURVE",
"165 493 OFFCURVE",
"229 523 CURVE SMOOTH",
"243 529 OFFCURVE",
"262 533 OFFCURVE",
"278 539 CURVE SMOOTH",
"296 546 OFFCURVE",
"311 552 OFFCURVE",
"332 557 CURVE SMOOTH",
"377 567 OFFCURVE",
"428 574 OFFCURVE",
"487 575 CURVE",
"483 573 LINE SMOOTH",
"472 567 OFFCURVE",
"458 550 OFFCURVE",
"449 542 CURVE SMOOTH",
"439 533 OFFCURVE",
"423 500 OFFCURVE",
"416 491 CURVE SMOOTH",
"390 461 OFFCURVE",
"345 408 OFFCURVE",
"321 377 CURVE",
"321 377 OFFCURVE",
"278 326 OFFCURVE",
"277 321 CURVE",
"271 314 OFFCURVE",
"209 230 OFFCURVE",
"178 180 CURVE SMOOTH",
"163 156 OFFCURVE",
"116 67 OFFCURVE",
"97 29 CURVE SMOOTH",
"76 -13 OFFCURVE",
"68 -57 OFFCURVE",
"68 -70 CURVE SMOOTH",
"68 -81 OFFCURVE",
"73 -89 OFFCURVE",
"80 -89 CURVE SMOOTH"
);
},
{
closed = 1;
nodes = (
"36 114 OFFCURVE",
"55 119 OFFCURVE",
"66 121 CURVE SMOOTH",
"76 123 OFFCURVE",
"150 120 OFFCURVE",
"163 125 CURVE SMOOTH",
"178 130 OFFCURVE",
"175 138 OFFCURVE",
"189 141 CURVE",
"192 143 OFFCURVE",
"193 139 OFFCURVE",
"200 139 CURVE SMOOTH",
"202 139 LINE",
"231 146 OFFCURVE",
"305 143 OFFCURVE",
"345 146 CURVE SMOOTH",
"395 150 OFFCURVE",
"411 163 OFFCURVE",
"411 172 CURVE SMOOTH",
"411 178 OFFCURVE",
"404 183 OFFCURVE",
"395 183 CURVE",
"395 183 LINE",
"269 183 LINE SMOOTH",
"174 183 OFFCURVE",
"64 182 OFFCURVE",
"47 178 CURVE",
"27 170 OFFCURVE",
"6 138 OFFCURVE",
"11 118 CURVE",
"11 119 LINE",
"12 116 OFFCURVE",
"17 114 OFFCURVE",
"23 114 CURVE SMOOTH"
);
}
);
};
components = (
{
name = D;
},
{
name = strokeshortcomb;
transform = "{1, 0, 0, 1, 185, 145}";
}
);
layerId = "960B82ED-BAE9-407E-815C-F6C3A86A2215";
width = 880;
}
);
note = Eth;
unicode = 00D0;
},
{
glyphname = E;
lastChange = "2021-11-09 21:29:53 +0000";
layers = (
{
anchors = (
{
name = bottom;
position = "{245, 4}";
},
{
name = ogonek;
position = "{590, 34}";
},
{
name = top;
position = "{617, 639}";
},
{
name = topleft;
position = "{20, 640}";
}
);
background = {
paths = (
{
closed = 1;
nodes = (
"43 -13 OFFCURVE",
"52 -15 OFFCURVE",
"64 -9 CURVE",
"63 -9 LINE",
"71 -6 OFFCURVE",
"73 7 OFFCURVE",
"77 17 CURVE",
"106 8 OFFCURVE",
"141 1 OFFCURVE",
"169 -1 CURVE",
"178 -3 OFFCURVE",
"207 -4 OFFCURVE",
"245 -4 CURVE SMOOTH",
"308 -4 OFFCURVE",
"393 -1 OFFCURVE",
"438 8 CURVE",
"454 9 OFFCURVE",
"488 13 OFFCURVE",
"503 21 CURVE SMOOTH",
"522 31 OFFCURVE",
"548 39 OFFCURVE",
"560 56 CURVE SMOOTH",
"572 74 OFFCURVE",
"568 99 OFFCURVE",
"580 115 CURVE SMOOTH",
"583 119 OFFCURVE",
"584 127 OFFCURVE",
"584 136 CURVE SMOOTH",
"584 150 OFFCURVE",
"580 166 OFFCURVE",
"566 168 CURVE",
"543 167 OFFCURVE",
"531 129 OFFCURVE",
"526 122 CURVE SMOOTH",
"516 108 OFFCURVE",
"515 108 OFFCURVE",
"505 99 CURVE SMOOTH",
"487 83 OFFCURVE",
"461 64 OFFCURVE",
"430 58 CURVE SMOOTH",
"394 51 OFFCURVE",
"361 46 OFFCURVE",
"329 43 CURVE SMOOTH",
"318 42 OFFCURVE",
"313 32 OFFCURVE",
"307 32 CURVE SMOOTH",
"306 32 LINE SMOOTH",
"299 32 OFFCURVE",
"283 38 OFFCURVE",
"275 38 CURVE SMOOTH",
"184 38 LINE SMOOTH",
"155 38 OFFCURVE",
"120 43 OFFCURVE",
"87 54 CURVE",
"88 70 OFFCURVE",
"95 90 OFFCURVE",
"95 96 CURVE SMOOTH",
"95 95 LINE SMOOTH",
"98 109 OFFCURVE",
"105 112 OFFCURVE",
"115 133 CURVE SMOOTH",
"121 144 OFFCURVE",
"178 242 OFFCURVE",
"237 321 CURVE",
"251 326 OFFCURVE",
"265 330 OFFCURVE",
"277 330 CURVE",
"383 342 OFFCURVE",
"450 342 OFFCURVE",
"552 342 CURVE",
"559 340 OFFCURVE",
"565 337 OFFCURVE",
"570 337 CURVE SMOOTH",
"573 337 OFFCURVE",
"576 339 OFFCURVE",
"577 344 CURVE",
"577 352 OFFCURVE",
"569 363 OFFCURVE",
"558 363 CURVE SMOOTH",
"559 363 LINE",
"550 366 OFFCURVE",
"546 368 OFFCURVE",
"537 368 CURVE SMOOTH",
"492 368 OFFCURVE",
"448 373 OFFCURVE",
"403 373 CURVE SMOOTH",
"387 373 OFFCURVE",
"371 375 OFFCURVE",
"357 375 CURVE",
"350 374 OFFCURVE",
"349 371 OFFCURVE",
"349 369 CURVE",
"341 369 OFFCURVE",
"320 377 OFFCURVE",
"311 377 CURVE SMOOTH",
"284 375 LINE",
"292 380 OFFCURVE",
"300 386 OFFCURVE",
"307 393 CURVE SMOOTH",
"320 408 OFFCURVE",
"368 475 OFFCURVE",
"383 497 CURVE",
"396 512 OFFCURVE",
"427 543 OFFCURVE",
"442 557 CURVE SMOOTH",
"460 574 OFFCURVE",
"474 570 OFFCURVE",
"477 580 CURVE",
"530 583 OFFCURVE",
"570 597 OFFCURVE",
"621 597 CURVE SMOOTH",
"681 597 OFFCURVE",
"670 590 OFFCURVE",
"702 590 CURVE SMOOTH",
"703 590 OFFCURVE",
"722 577 OFFCURVE",
"740 569 CURVE SMOOTH",
"763 560 OFFCURVE",
"753 536 OFFCURVE",
"777 538 CURVE",
"796 543 OFFCURVE",
"803 559 OFFCURVE",
"803 573 CURVE SMOOTH",
"803 583 OFFCURVE",
"799 593 OFFCURVE",
"794 597 CURVE SMOOTH",
"788 603 OFFCURVE",
"763 616 OFFCURVE",
"763 616 CURVE",
"746 617 LINE",
"742 616 OFFCURVE",
"737 625 OFFCURVE",
"726 625 CURVE",
"700 630 OFFCURVE",
"688 631 OFFCURVE",
"673 631 CURVE SMOOTH",
"617 631 OFFCURVE",
"547 629 OFFCURVE",
"464 623 CURVE",
"460 635 OFFCURVE",
"450 642 OFFCURVE",
"437 642 CURVE SMOOTH",
"430 642 OFFCURVE",
"421 640 OFFCURVE",
"412 635 CURVE",
"413 635 LINE SMOOTH",
"409 635 OFFCURVE",
"397 630 OFFCURVE",
"391 623 CURVE",
"295 616 OFFCURVE",
"145 612 OFFCURVE",
"98 589 CURVE SMOOTH",
"83 582 OFFCURVE",
"77 575 OFFCURVE",
"77 568 CURVE SMOOTH",
"77 553 OFFCURVE",
"108 541 OFFCURVE",
"127 538 CURVE SMOOTH",
"138 536 OFFCURVE",
"151 534 OFFCURVE",
"168 534 CURVE SMOOTH",
"180 534 OFFCURVE",
"193 535 OFFCURVE",
"209 538 CURVE SMOOTH",
"208 538 LINE",
"213 540 OFFCURVE",
"214 545 OFFCURVE",
"214 549 CURVE SMOOTH",
"214 552 OFFCURVE",
"213 555 OFFCURVE",
"213 558 CURVE SMOOTH",
"213 560 OFFCURVE",
"213 562 OFFCURVE",
"216 562 CURVE SMOOTH",
"218 562 LINE SMOOTH",
"244 565 OFFCURVE",
"277 577 OFFCURVE",
"321 582 CURVE SMOOTH",
"329 583 OFFCURVE",
"331 584 OFFCURVE",
"331 584 CURVE",
"331 585 OFFCURVE",
"304 585 OFFCURVE",
"374 587 CURVE",
"363 577 OFFCURVE",
"302 490 OFFCURVE",
"294 480 CURVE SMOOTH",
"267 450 OFFCURVE",
"277 450 OFFCURVE",
"256 418 CURVE",
"256 417 OFFCURVE",
"237 398 OFFCURVE",
"237 392 CURVE SMOOTH",
"237 394 LINE",
"237 394 OFFCURVE",
"231 383 OFFCURVE",
"222 371 CURVE",
"217 371 LINE SMOOTH",
"203 371 OFFCURVE",
"190 369 OFFCURVE",
"177 369 CURVE SMOOTH",
"169 369 OFFCURVE",
"168 364 OFFCURVE",
"164 364 CURVE SMOOTH",
"163 364 LINE SMOOTH",
"154 364 OFFCURVE",
"139 362 OFFCURVE",
"133 362 CURVE SMOOTH",
"114 361 OFFCURVE",
"87 330 OFFCURVE",
"90 313 CURVE SMOOTH",
"90 314 LINE SMOOTH",
"91 308 OFFCURVE",
"104 295 OFFCURVE",
"112 294 CURVE",
"136 294 LINE",
"136 294 OFFCURVE",
"153 297 OFFCURVE",
"170 301 CURVE",
"114 221 LINE SMOOTH",
"97 197 OFFCURVE",
"83 165 OFFCURVE",
"62 137 CURVE",
"34 75 LINE",
"13 77 OFFCURVE",
"-7 71 OFFCURVE",
"-7 50 CURVE SMOOTH",
"-7 38 OFFCURVE",
"-1 22 OFFCURVE",
"14 0 CURVE",
"17 -3 OFFCURVE",
"38 -8 OFFCURVE",
"42 -12 CURVE SMOOTH",
"43 -13 LINE"
);
}
);
};
layerId = "960B82ED-BAE9-407E-815C-F6C3A86A2215";
paths = (
{
closed = 1;
nodes = (
"43 -5 OFFCURVE",
"52 -7 OFFCURVE",
"64 -1 CURVE",
"63 -1 LINE",
"71 2 OFFCURVE",
"73 15 OFFCURVE",
"77 25 CURVE",
"106 16 OFFCURVE",
"141 9 OFFCURVE",
"169 7 CURVE",
"178 5 OFFCURVE",
"207 4 OFFCURVE",
"245 4 CURVE SMOOTH",
"308 4 OFFCURVE",
"393 7 OFFCURVE",
"438 16 CURVE",
"454 17 OFFCURVE",
"488 21 OFFCURVE",
"503 29 CURVE SMOOTH",
"522 39 OFFCURVE",
"548 47 OFFCURVE",
"560 64 CURVE SMOOTH",
"572 82 OFFCURVE",
"568 107 OFFCURVE",
"580 123 CURVE SMOOTH",
"583 127 OFFCURVE",
"584 135 OFFCURVE",
"584 144 CURVE SMOOTH",
"584 158 OFFCURVE",
"580 174 OFFCURVE",
"566 176 CURVE",
"543 175 OFFCURVE",
"531 137 OFFCURVE",
"526 130 CURVE SMOOTH",
"516 116 OFFCURVE",
"515 116 OFFCURVE",
"505 107 CURVE SMOOTH",
"487 91 OFFCURVE",
"461 72 OFFCURVE",
"430 66 CURVE SMOOTH",
"394 59 OFFCURVE",
"361 54 OFFCURVE",
"329 51 CURVE SMOOTH",
"318 50 OFFCURVE",
"313 40 OFFCURVE",
"307 40 CURVE SMOOTH",
"306 40 LINE SMOOTH",
"299 40 OFFCURVE",
"283 46 OFFCURVE",
"275 46 CURVE SMOOTH",
"184 46 LINE SMOOTH",
"155 46 OFFCURVE",
"120 51 OFFCURVE",
"87 62 CURVE",
"88 78 OFFCURVE",
"95 110 OFFCURVE",
"95 104 CURVE SMOOTH",
"95 103 LINE SMOOTH",
"95 89 OFFCURVE",
"105 120 OFFCURVE",
"115 141 CURVE SMOOTH",
"121 152 OFFCURVE",
"178 250 OFFCURVE",
"237 329 CURVE",
"251 334 OFFCURVE",
"265 338 OFFCURVE",
"277 338 CURVE",
"383 350 OFFCURVE",
"450 350 OFFCURVE",
"552 350 CURVE",
"559 348 OFFCURVE",
"565 345 OFFCURVE",
"570 345 CURVE SMOOTH",
"573 345 OFFCURVE",
"576 347 OFFCURVE",
"577 352 CURVE",
"577 359 OFFCURVE",
"556 368 OFFCURVE",
"556 370 CURVE SMOOTH",
"556 371 OFFCURVE",
"556 371 OFFCURVE",
"558 371 CURVE SMOOTH",
"559 371 LINE",
"550 374 OFFCURVE",
"546 376 OFFCURVE",
"537 376 CURVE SMOOTH",
"492 376 OFFCURVE",
"448 381 OFFCURVE",
"403 381 CURVE SMOOTH",
"387 381 OFFCURVE",
"371 383 OFFCURVE",
"357 383 CURVE",
"350 382 OFFCURVE",
"349 379 OFFCURVE",
"349 377 CURVE",
"341 377 OFFCURVE",
"320 386 OFFCURVE",
"311 385 CURVE SMOOTH",
"284 383 LINE",
"292 388 OFFCURVE",
"300 394 OFFCURVE",
"307 401 CURVE SMOOTH",
"320 416 OFFCURVE",
"368 483 OFFCURVE",
"383 505 CURVE",
"396 520 OFFCURVE",
"427 551 OFFCURVE",
"442 565 CURVE SMOOTH",
"460 582 OFFCURVE",
"474 578 OFFCURVE",
"477 588 CURVE",
"530 591 OFFCURVE",
"570 605 OFFCURVE",
"621 605 CURVE SMOOTH",
"681 605 OFFCURVE",
"670 598 OFFCURVE",
"702 598 CURVE SMOOTH",
"703 598 OFFCURVE",
"722 585 OFFCURVE",
"740 577 CURVE SMOOTH",
"763 568 OFFCURVE",
"753 544 OFFCURVE",
"777 546 CURVE",
"796 551 OFFCURVE",
"803 567 OFFCURVE",
"803 581 CURVE SMOOTH",
"803 591 OFFCURVE",
"799 601 OFFCURVE",
"794 605 CURVE SMOOTH",
"788 611 OFFCURVE",
"763 624 OFFCURVE",
"763 624 CURVE",
"746 625 LINE",
"742 624 OFFCURVE",
"737 633 OFFCURVE",
"726 633 CURVE",
"700 638 OFFCURVE",
"688 639 OFFCURVE",
"673 639 CURVE SMOOTH",
"617 639 OFFCURVE",
"547 637 OFFCURVE",
"464 631 CURVE",
"460 643 OFFCURVE",
"450 650 OFFCURVE",
"437 650 CURVE SMOOTH",
"430 650 OFFCURVE",
"421 648 OFFCURVE",
"412 643 CURVE",
"413 643 LINE SMOOTH",
"417 643 OFFCURVE",
"397 638 OFFCURVE",
"391 631 CURVE",
"295 624 OFFCURVE",
"145 620 OFFCURVE",
"98 597 CURVE SMOOTH",
"83 590 OFFCURVE",
"77 583 OFFCURVE",
"77 576 CURVE SMOOTH",
"77 561 OFFCURVE",
"108 549 OFFCURVE",
"127 546 CURVE SMOOTH",
"138 544 OFFCURVE",
"151 542 OFFCURVE",
"168 542 CURVE SMOOTH",
"180 542 OFFCURVE",
"225 546 OFFCURVE",
"209 546 CURVE SMOOTH",
"208 546 LINE",
"213 548 OFFCURVE",
"214 553 OFFCURVE",
"214 557 CURVE SMOOTH",
"214 560 OFFCURVE",
"213 563 OFFCURVE",
"213 566 CURVE SMOOTH",
"213 568 OFFCURVE",
"213 570 OFFCURVE",
"216 570 CURVE SMOOTH",
"218 570 LINE SMOOTH",
"244 570 OFFCURVE",
"277 585 OFFCURVE",
"321 590 CURVE SMOOTH",
"329 591 OFFCURVE",
"331 592 OFFCURVE",
"331 592 CURVE",
"331 593 OFFCURVE",
"304 593 OFFCURVE",
"374 595 CURVE",
"363 585 OFFCURVE",
"302 498 OFFCURVE",
"294 488 CURVE SMOOTH",
"267 458 OFFCURVE",
"277 458 OFFCURVE",
"256 426 CURVE",
"256 425 OFFCURVE",
"237 394 OFFCURVE",
"237 400 CURVE SMOOTH",
"237 402 LINE",
"237 402 OFFCURVE",
"231 391 OFFCURVE",
"222 379 CURVE",
"217 379 LINE SMOOTH",
"203 379 OFFCURVE",
"190 377 OFFCURVE",
"177 377 CURVE SMOOTH",
"169 377 OFFCURVE",
"168 372 OFFCURVE",
"164 372 CURVE SMOOTH",
"163 372 LINE SMOOTH",
"154 372 OFFCURVE",
"139 370 OFFCURVE",
"133 370 CURVE SMOOTH",
"114 369 OFFCURVE",
"90 304 OFFCURVE",
"90 321 CURVE SMOOTH",
"90 322 LINE SMOOTH",
"90 328 OFFCURVE",
"104 303 OFFCURVE",
"112 302 CURVE",
"136 302 LINE",
"136 302 OFFCURVE",
"153 305 OFFCURVE",
"170 309 CURVE",
"114 229 LINE SMOOTH",
"97 205 OFFCURVE",
"83 173 OFFCURVE",
"62 145 CURVE",
"34 83 LINE",
"13 85 OFFCURVE",
"-7 79 OFFCURVE",
"-7 58 CURVE SMOOTH",
"-7 46 OFFCURVE",
"-1 30 OFFCURVE",
"14 8 CURVE",
"17 5 OFFCURVE",
"38 0 OFFCURVE",
"42 -4 CURVE SMOOTH",
"43 -5 LINE"
);
}
);
width = 597;
}
);
note = E;
unicode = 0045;
},
{
glyphname = F;
lastChange = "2021-11-09 21:29:53 +0000";
layers = (
{
background = {
paths = (
{
closed = 1;
nodes = (
"29 -13 OFFCURVE",
"38 -15 OFFCURVE",
"50 -9 CURVE",
"57 -4 OFFCURVE",
"68 6 OFFCURVE",
"76 12 CURVE SMOOTH",
"77 13 LINE",
"96 66 LINE SMOOTH",
"97 68 OFFCURVE",
"95 70 OFFCURVE",
"93 70 CURVE SMOOTH",
"89 69 OFFCURVE",
"79 84 OFFCURVE",
"79 92 CURVE SMOOTH",
"79 93 OFFCURVE",
"80 94 OFFCURVE",
"80 95 CURVE",
"84 109 OFFCURVE",
"91 112 OFFCURVE",
"100 133 CURVE SMOOTH",
"106 144 OFFCURVE",
"164 242 OFFCURVE",
"222 321 CURVE",
"237 326 OFFCURVE",
"251 330 OFFCURVE",
"262 330 CURVE",
"342 339 OFFCURVE",
"404 346 OFFCURVE",
"457 346 CURVE SMOOTH",
"489 346 OFFCURVE",
"467 342 OFFCURVE",
"495 342 CURVE SMOOTH",
"518 342 OFFCURVE",
"530 337 OFFCURVE",
"538 337 CURVE SMOOTH",
"537 337 LINE",
"544 335 OFFCURVE",
"550 332 OFFCURVE",
"555 332 CURVE SMOOTH",
"559 332 OFFCURVE",
"561 334 OFFCURVE",
"562 339 CURVE",
"562 347 OFFCURVE",
"555 358 OFFCURVE",
"543 358 CURVE SMOOTH",
"544 358 LINE",
"535 361 OFFCURVE",
"531 363 OFFCURVE",
"522 363 CURVE SMOOTH",
"511 363 OFFCURVE",
"492 365 OFFCURVE",
"481 365 CURVE",
"448 370 OFFCURVE",
"422 373 OFFCURVE",
"389 373 CURVE SMOOTH",
"357 373 OFFCURVE",
"325 377 OFFCURVE",
"293 377 CURVE SMOOTH",
"270 375 LINE",
"278 380 OFFCURVE",
"285 386 OFFCURVE",
"292 393 CURVE SMOOTH",
"305 408 OFFCURVE",
"353 475 OFFCURVE",
"369 497 CURVE SMOOTH",
"381 512 OFFCURVE",
"412 543 OFFCURVE",
"427 557 CURVE SMOOTH",
"445 573 OFFCURVE",
"449 582 OFFCURVE",
"450 590 CURVE",
"501 594 OFFCURVE",
"555 597 OFFCURVE",
"606 597 CURVE SMOOTH",
"666 597 OFFCURVE",
"722 583 OFFCURVE",
"753 583 CURVE SMOOTH",
"757 583 OFFCURVE",
"795 574 OFFCURVE",
"812 565 CURVE",
"813 565 LINE",
"813 568 OFFCURVE",
"821 542 OFFCURVE",
"840 542 CURVE SMOOTH",
"849 542 OFFCURVE",
"853 550 OFFCURVE",
"853 560 CURVE SMOOTH",
"853 567 OFFCURVE",
"850 575 OFFCURVE",
"845 580 CURVE SMOOTH",
"838 586 OFFCURVE",
"809 600 OFFCURVE",
"798 605 CURVE",
"797 605 LINE",
"780 606 LINE",
"776 605 OFFCURVE",
"772 615 OFFCURVE",
"760 615 CURVE",
"721 623 OFFCURVE",
"665 631 OFFCURVE",
"632 631 CURVE SMOOTH",
"580 631 OFFCURVE",
"519 628 OFFCURVE",
"450 623 CURVE",
"446 635 OFFCURVE",
"436 642 OFFCURVE",
"423 642 CURVE SMOOTH",
"416 642 OFFCURVE",
"407 640 OFFCURVE",
"398 635 CURVE",
"392 634 OFFCURVE",
"388 627 OFFCURVE",
"384 619 CURVE",
"281 614 OFFCURVE",
"181 612 OFFCURVE",
"126 585 CURVE SMOOTH",
"112 578 OFFCURVE",
"106 570 OFFCURVE",
"106 561 CURVE SMOOTH",
"106 546 OFFCURVE",
"126 531 OFFCURVE",
"144 531 CURVE SMOOTH",
"149 531 OFFCURVE",
"154 532 OFFCURVE",
"158 534 CURVE SMOOTH",
"204 562 OFFCURVE",
"286 585 OFFCURVE",
"359 587 CURVE",
"349 576 OFFCURVE",
"287 490 OFFCURVE",
"279 480 CURVE SMOOTH",
"252 450 OFFCURVE",
"263 450 OFFCURVE",
"241 418 CURVE",
"241 417 OFFCURVE",
"223 398 OFFCURVE",
"222 392 CURVE",
"222 394 LINE",
"222 394 OFFCURVE",
"217 383 OFFCURVE",
"207 371 CURVE",
"202 371 LINE SMOOTH",
"189 371 OFFCURVE",
"176 369 OFFCURVE",
"163 369 CURVE SMOOTH",
"154 369 OFFCURVE",
"153 364 OFFCURVE",
"150 364 CURVE SMOOTH",
"149 364 LINE SMOOTH",
"139 364 OFFCURVE",
"125 362 OFFCURVE",
"118 362 CURVE SMOOTH",
"99 361 OFFCURVE",
"72 330 OFFCURVE",
"76 313 CURVE SMOOTH",
"76 314 LINE SMOOTH",
"77 308 OFFCURVE",
"90 295 OFFCURVE",
"98 294 CURVE",
"121 294 LINE",
"121 294 OFFCURVE",
"138 297 OFFCURVE",
"155 301 CURVE",
"99 221 LINE SMOOTH",
"82 197 OFFCURVE",
"69 165 OFFCURVE",
"48 137 CURVE",
"47 137 LINE",
"15 71 OFFCURVE",
"6 38 OFFCURVE",
"6 20 CURVE SMOOTH",
"6 3 OFFCURVE",
"15 1 OFFCURVE",
"19 -3 CURVE SMOOTH",
"23 -6 OFFCURVE",
"24 -8 OFFCURVE",
"27 -12 CURVE SMOOTH",
"28 -13 LINE"
);
}
);
};
guideLines = (
{
position = "{555, 639}";
}
);
layerId = "960B82ED-BAE9-407E-815C-F6C3A86A2215";
paths = (
{
closed = 1;
nodes = (
"29 -5 OFFCURVE",
"38 -7 OFFCURVE",
"50 -1 CURVE",
"57 4 OFFCURVE",
"69 13 OFFCURVE",
"76 20 CURVE SMOOTH",
"77 21 LINE",
"96 74 LINE SMOOTH",
"97 76 OFFCURVE",
"95 78 OFFCURVE",
"93 78 CURVE SMOOTH",
"89 77 OFFCURVE",
"79 92 OFFCURVE",
"79 100 CURVE SMOOTH",
"79 101 OFFCURVE",
"80 102 OFFCURVE",
"80 103 CURVE",
"84 117 OFFCURVE",
"91 120 OFFCURVE",
"100 141 CURVE SMOOTH",
"106 152 OFFCURVE",
"164 250 OFFCURVE",
"222 329 CURVE",
"237 334 OFFCURVE",
"251 338 OFFCURVE",
"262 338 CURVE",
"342 347 OFFCURVE",
"404 354 OFFCURVE",
"457 354 CURVE SMOOTH",
"489 354 OFFCURVE",
"467 350 OFFCURVE",
"495 350 CURVE SMOOTH",
"518 350 OFFCURVE",
"546 345 OFFCURVE",
"538 345 CURVE SMOOTH",
"537 345 LINE",
"544 343 OFFCURVE",
"550 340 OFFCURVE",
"555 340 CURVE SMOOTH",
"559 340 OFFCURVE",
"561 342 OFFCURVE",
"562 347 CURVE",
"562 354 OFFCURVE",
"540 363 OFFCURVE",
"540 365 CURVE SMOOTH",
"540 366 OFFCURVE",
"541 366 OFFCURVE",
"543 366 CURVE SMOOTH",
"544 366 LINE",
"535 369 OFFCURVE",
"531 371 OFFCURVE",
"522 371 CURVE SMOOTH",
"511 371 OFFCURVE",
"492 373 OFFCURVE",
"481 373 CURVE",
"448 378 OFFCURVE",
"422 381 OFFCURVE",
"389 381 CURVE SMOOTH",
"363 381 OFFCURVE",
"336 386 OFFCURVE",
"310 386 CURVE SMOOTH",
"304 386 OFFCURVE",
"299 386 OFFCURVE",
"293 385 CURVE SMOOTH",
"270 383 LINE",
"278 388 OFFCURVE",
"285 394 OFFCURVE",
"292 401 CURVE SMOOTH",
"305 416 OFFCURVE",
"353 483 OFFCURVE",
"369 505 CURVE SMOOTH",
"381 520 OFFCURVE",
"412 551 OFFCURVE",
"427 565 CURVE SMOOTH",
"445 581 OFFCURVE",
"449 590 OFFCURVE",
"450 598 CURVE",
"501 602 OFFCURVE",
"555 605 OFFCURVE",
"606 605 CURVE SMOOTH",
"666 605 OFFCURVE",
"722 591 OFFCURVE",
"753 591 CURVE SMOOTH",
"757 591 OFFCURVE",
"795 582 OFFCURVE",
"812 573 CURVE",
"813 573 LINE",
"813 576 OFFCURVE",
"821 550 OFFCURVE",
"840 550 CURVE SMOOTH",
"849 550 OFFCURVE",
"853 558 OFFCURVE",
"853 568 CURVE SMOOTH",
"853 575 OFFCURVE",
"850 583 OFFCURVE",
"845 588 CURVE SMOOTH",
"838 594 OFFCURVE",
"809 608 OFFCURVE",
"798 613 CURVE",
"797 613 LINE",
"780 614 LINE",
"776 613 OFFCURVE",
"772 623 OFFCURVE",
"760 623 CURVE",
"721 631 OFFCURVE",
"665 639 OFFCURVE",
"632 639 CURVE SMOOTH",
"580 639 OFFCURVE",
"519 636 OFFCURVE",
"450 631 CURVE",
"446 643 OFFCURVE",
"436 650 OFFCURVE",
"423 650 CURVE SMOOTH",
"416 650 OFFCURVE",
"407 648 OFFCURVE",
"398 643 CURVE",
"392 642 OFFCURVE",
"388 635 OFFCURVE",
"384 627 CURVE",
"281 622 OFFCURVE",
"181 620 OFFCURVE",
"126 593 CURVE SMOOTH",
"112 586 OFFCURVE",
"106 578 OFFCURVE",
"106 569 CURVE SMOOTH",
"106 554 OFFCURVE",
"126 539 OFFCURVE",
"144 539 CURVE SMOOTH",
"149 539 OFFCURVE",
"154 540 OFFCURVE",
"158 542 CURVE SMOOTH",
"204 570 OFFCURVE",
"286 593 OFFCURVE",
"359 595 CURVE",
"349 584 OFFCURVE",
"287 498 OFFCURVE",
"279 488 CURVE SMOOTH",
"252 458 OFFCURVE",
"263 458 OFFCURVE",
"241 426 CURVE",
"241 425 OFFCURVE",
"223 406 OFFCURVE",
"222 400 CURVE",
"222 402 LINE",
"222 402 OFFCURVE",
"217 391 OFFCURVE",
"207 379 CURVE",
"202 379 LINE SMOOTH",
"189 379 OFFCURVE",
"176 377 OFFCURVE",
"163 377 CURVE SMOOTH",
"154 377 OFFCURVE",
"153 372 OFFCURVE",
"150 372 CURVE SMOOTH",
"149 372 LINE SMOOTH",
"139 372 OFFCURVE",
"125 370 OFFCURVE",
"118 370 CURVE SMOOTH",
"99 369 OFFCURVE",
"76 304 OFFCURVE",
"76 321 CURVE SMOOTH",
"76 322 LINE SMOOTH",
"76 328 OFFCURVE",
"90 303 OFFCURVE",
"98 302 CURVE",
"121 302 LINE",
"121 302 OFFCURVE",
"138 305 OFFCURVE",
"155 309 CURVE",
"99 229 LINE SMOOTH",
"82 205 OFFCURVE",
"69 173 OFFCURVE",
"48 145 CURVE",
"47 145 LINE",
"15 79 OFFCURVE",
"6 46 OFFCURVE",
"6 28 CURVE SMOOTH",
"6 11 OFFCURVE",
"15 9 OFFCURVE",
"19 5 CURVE SMOOTH",
"23 2 OFFCURVE",
"23 0 OFFCURVE",
"27 -4 CURVE SMOOTH",
"28 -5 LINE"
);
}
);
width = 466;
}
);
note = F;
unicode = 0046;
},
{
glyphname = G;
lastChange = "2021-11-09 21:29:53 +0000";
layers = (
{
anchors = (
{
name = bottom;
position = "{283, -26}";
},
{
name = top;
position = "{720, 640}";
}
);
background = {
paths = (
{
closed = 1;
nodes = (
"298 -34 OFFCURVE",
"362 -19 OFFCURVE",
"407 -5 CURVE SMOOTH",
"428 2 OFFCURVE",
"443 12 OFFCURVE",
"464 20 CURVE SMOOTH",
"534 45 OFFCURVE",
"624 106 OFFCURVE",
"650 143 CURVE SMOOTH",
"657 152 OFFCURVE",
"677 177 OFFCURVE",
"680 182 CURVE",
"694 198 OFFCURVE",
"698 212 OFFCURVE",
"698 224 CURVE SMOOTH",
"698 239 OFFCURVE",
"692 250 OFFCURVE",
"692 257 CURVE",
"691 259 OFFCURVE",
"713 281 OFFCURVE",
"728 281 CURVE SMOOTH",
"754 280 OFFCURVE",
"752 288 OFFCURVE",
"787 288 CURVE SMOOTH",
"815 288 OFFCURVE",
"825 295 OFFCURVE",
"825 303 CURVE SMOOTH",
"825 310 OFFCURVE",
"815 316 OFFCURVE",
"803 316 CURVE SMOOTH",
"788 317 OFFCURVE",
"768 316 OFFCURVE",
"751 316 CURVE SMOOTH",
"712 316 LINE SMOOTH",
"691 316 OFFCURVE",
"678 316 OFFCURVE",
"670 313 CURVE",
"655 318 OFFCURVE",
"641 319 OFFCURVE",
"626 319 CURVE SMOOTH",
"589 319 OFFCURVE",
"552 308 OFFCURVE",
"522 301 CURVE SMOOTH",
"478 290 OFFCURVE",
"454 279 OFFCURVE",
"422 266 CURVE",
"423 266 LINE",
"419 265 OFFCURVE",
"410 272 OFFCURVE",
"410 272 CURVE",
"387 262 OFFCURVE",
"364 237 OFFCURVE",
"343 226 CURVE SMOOTH",
"334 220 OFFCURVE",
"330 207 OFFCURVE",
"330 195 CURVE SMOOTH",
"330 180 OFFCURVE",
"337 166 OFFCURVE",
"352 172 CURVE",
"351 172 LINE",
"355 176 OFFCURVE",
"358 167 OFFCURVE",
"376 177 CURVE",
"377 177 LINE",
"401 191 OFFCURVE",
"437 212 OFFCURVE",
"448 219 CURVE SMOOTH",
"486 242 OFFCURVE",
"501 250 OFFCURVE",
"529 256 CURVE SMOOTH",
"538 258 OFFCURVE",
"549 258 OFFCURVE",
"560 258 CURVE SMOOTH",
"593 258 OFFCURVE",
"630 253 OFFCURVE",
"630 253 CURVE",
"634 249 OFFCURVE",
"637 237 OFFCURVE",
"637 223 CURVE SMOOTH",
"637 213 OFFCURVE",
"635 201 OFFCURVE",
"632 190 CURVE SMOOTH",
"628 176 OFFCURVE",
"613 155 OFFCURVE",
"596 137 CURVE SMOOTH",
"570 111 OFFCURVE",
"504 82 OFFCURVE",
"457 55 CURVE",
"446 47 OFFCURVE",
"416 32 OFFCURVE",
"405 32 CURVE SMOOTH",
"394 32 OFFCURVE",
"360 16 OFFCURVE",
"350 12 CURVE SMOOTH",
"328 5 OFFCURVE",
"296 -1 OFFCURVE",
"263 -1 CURVE SMOOTH",
"212 -1 OFFCURVE",
"160 12 OFFCURVE",
"150 53 CURVE",
"146 63 OFFCURVE",
"144 76 OFFCURVE",
"144 91 CURVE SMOOTH",
"144 121 OFFCURVE",
"153 158 OFFCURVE",
"176 190 CURVE SMOOTH",
"197 219 OFFCURVE",
"217 279 OFFCURVE",
"258 321 CURVE SMOOTH",
"266 329 OFFCURVE",
"288 347 OFFCURVE",
"296 355 CURVE SMOOTH",
"309 366 OFFCURVE",
"307 367 OFFCURVE",
"319 378 CURVE SMOOTH",
"400 449 OFFCURVE",
"513 500 OFFCURVE",
"629 546 CURVE SMOOTH",
"666 561 OFFCURVE",
"697 565 OFFCURVE",
"722 565 CURVE SMOOTH",
"738 565 OFFCURVE",
"752 563 OFFCURVE",
"763 561 CURVE SMOOTH",
"764 561 LINE SMOOTH",
"788 557 OFFCURVE",
"800 557 OFFCURVE",
"800 542 CURVE SMOOTH",
"800 534 OFFCURVE",
"807 524 OFFCURVE",
"807 518 CURVE SMOOTH",
"807 517 LINE SMOOTH",
"808 506 OFFCURVE",
"813 501 OFFCURVE",
"819 501 CURVE SMOOTH",
"835 501 OFFCURVE",
"859 528 OFFCURVE",
"859 553 CURVE SMOOTH",
"859 561 OFFCURVE",
"861 570 OFFCURVE",
"861 579 CURVE SMOOTH",
"861 594 OFFCURVE",
"856 608 OFFCURVE",
"830 615 CURVE SMOOTH",
"815 619 OFFCURVE",
"794 621 OFFCURVE",
"771 621 CURVE SMOOTH",
"720 621 OFFCURVE",
"658 612 OFFCURVE",
"617 598 CURVE SMOOTH",
"567 580 OFFCURVE",
"506 564 OFFCURVE",
"459 537 CURVE",
"459 536 LINE",
"450 529 OFFCURVE",
"449 517 OFFCURVE",
"449 517 CURVE",
"439 510 OFFCURVE",
"414 507 OFFCURVE",
"403 499 CURVE SMOOTH",
"389 490 OFFCURVE",
"376 480 OFFCURVE",
"363 470 CURVE SMOOTH",
"244 383 OFFCURVE",
"164 301 OFFCURVE",
"113 202 CURVE SMOOTH",
"99 174 OFFCURVE",
"83 122 OFFCURVE",
"83 77 CURVE SMOOTH",
"83 51 OFFCURVE",
"88 27 OFFCURVE",
"103 11 CURVE SMOOTH",
"135 -23 OFFCURVE",
"185 -34 OFFCURVE",
"238 -34 CURVE SMOOTH"
);
}
);
};
layerId = "960B82ED-BAE9-407E-815C-F6C3A86A2215";
paths = (
{
closed = 1;
nodes = (
"298 -26 OFFCURVE",
"362 -11 OFFCURVE",
"407 3 CURVE SMOOTH",
"428 10 OFFCURVE",
"443 20 OFFCURVE",
"464 28 CURVE SMOOTH",
"534 53 OFFCURVE",
"624 114 OFFCURVE",
"650 151 CURVE SMOOTH",
"657 160 OFFCURVE",
"677 185 OFFCURVE",
"680 190 CURVE",
"694 206 OFFCURVE",
"698 220 OFFCURVE",
"698 232 CURVE SMOOTH",
"698 247 OFFCURVE",
"692 258 OFFCURVE",
"692 265 CURVE",
"691 267 OFFCURVE",
"713 289 OFFCURVE",
"728 289 CURVE SMOOTH",
"754 288 OFFCURVE",
"752 296 OFFCURVE",
"787 296 CURVE SMOOTH",
"815 296 OFFCURVE",
"825 303 OFFCURVE",
"825 311 CURVE SMOOTH",
"825 318 OFFCURVE",
"815 324 OFFCURVE",
"803 324 CURVE SMOOTH",
"788 325 OFFCURVE",
"768 324 OFFCURVE",
"751 324 CURVE SMOOTH",
"712 324 LINE SMOOTH",
"691 324 OFFCURVE",
"678 324 OFFCURVE",
"670 321 CURVE",
"655 326 OFFCURVE",
"641 327 OFFCURVE",
"626 327 CURVE SMOOTH",
"589 327 OFFCURVE",
"552 316 OFFCURVE",
"522 309 CURVE SMOOTH",
"478 298 OFFCURVE",
"454 287 OFFCURVE",
"422 274 CURVE",
"423 274 LINE",
"419 273 OFFCURVE",
"410 280 OFFCURVE",
"410 280 CURVE",
"387 270 OFFCURVE",
"364 245 OFFCURVE",
"343 234 CURVE SMOOTH",
"334 228 OFFCURVE",
"330 215 OFFCURVE",
"330 203 CURVE SMOOTH",
"330 190 OFFCURVE",
"335 179 OFFCURVE",
"345 179 CURVE SMOOTH",
"347 179 OFFCURVE",
"350 179 OFFCURVE",
"352 180 CURVE",
"351 180 LINE",
"355 184 OFFCURVE",
"358 175 OFFCURVE",
"376 185 CURVE",
"377 185 LINE",
"401 199 OFFCURVE",
"437 220 OFFCURVE",
"448 227 CURVE SMOOTH",
"486 250 OFFCURVE",
"501 258 OFFCURVE",
"529 264 CURVE SMOOTH",
"538 266 OFFCURVE",
"549 266 OFFCURVE",
"560 266 CURVE SMOOTH",
"593 266 OFFCURVE",
"630 261 OFFCURVE",
"630 261 CURVE",
"634 257 OFFCURVE",
"637 245 OFFCURVE",
"637 231 CURVE SMOOTH",
"637 221 OFFCURVE",
"635 209 OFFCURVE",
"632 198 CURVE SMOOTH",
"628 184 OFFCURVE",
"613 163 OFFCURVE",
"596 145 CURVE SMOOTH",
"570 119 OFFCURVE",
"504 90 OFFCURVE",
"457 63 CURVE",
"446 55 OFFCURVE",
"416 40 OFFCURVE",
"405 40 CURVE SMOOTH",
"394 40 OFFCURVE",
"360 24 OFFCURVE",
"350 20 CURVE SMOOTH",
"328 13 OFFCURVE",
"296 7 OFFCURVE",
"263 7 CURVE SMOOTH",
"212 7 OFFCURVE",
"160 20 OFFCURVE",
"150 61 CURVE",
"146 71 OFFCURVE",
"144 84 OFFCURVE",
"144 99 CURVE SMOOTH",
"144 129 OFFCURVE",
"153 166 OFFCURVE",
"176 198 CURVE SMOOTH",
"197 227 OFFCURVE",
"217 287 OFFCURVE",
"258 329 CURVE SMOOTH",
"266 337 OFFCURVE",
"288 355 OFFCURVE",
"296 363 CURVE SMOOTH",
"309 374 OFFCURVE",
"307 375 OFFCURVE",
"319 386 CURVE SMOOTH",
"400 457 OFFCURVE",
"513 508 OFFCURVE",
"629 554 CURVE SMOOTH",
"666 569 OFFCURVE",
"697 573 OFFCURVE",
"722 573 CURVE SMOOTH",
"738 573 OFFCURVE",
"752 569 OFFCURVE",
"763 569 CURVE SMOOTH",
"764 569 LINE SMOOTH",
"788 569 OFFCURVE",
"800 565 OFFCURVE",
"800 550 CURVE SMOOTH",
"800 542 OFFCURVE",
"807 532 OFFCURVE",
"807 526 CURVE SMOOTH",
"807 525 LINE SMOOTH",
"807 514 OFFCURVE",
"813 509 OFFCURVE",
"819 509 CURVE SMOOTH",
"835 509 OFFCURVE",
"859 536 OFFCURVE",
"859 561 CURVE SMOOTH",
"859 569 OFFCURVE",
"861 578 OFFCURVE",
"861 587 CURVE SMOOTH",
"861 602 OFFCURVE",
"856 616 OFFCURVE",
"830 623 CURVE SMOOTH",
"815 627 OFFCURVE",
"794 629 OFFCURVE",
"771 629 CURVE SMOOTH",
"720 629 OFFCURVE",
"658 620 OFFCURVE",
"617 606 CURVE SMOOTH",
"567 588 OFFCURVE",
"506 572 OFFCURVE",
"459 545 CURVE",
"459 544 LINE",
"450 537 OFFCURVE",
"449 525 OFFCURVE",
"449 525 CURVE",
"439 518 OFFCURVE",
"414 515 OFFCURVE",
"403 507 CURVE SMOOTH",
"389 498 OFFCURVE",
"376 488 OFFCURVE",
"363 478 CURVE SMOOTH",
"244 391 OFFCURVE",
"164 309 OFFCURVE",
"113 210 CURVE SMOOTH",
"99 182 OFFCURVE",
"83 130 OFFCURVE",
"83 85 CURVE SMOOTH",
"83 59 OFFCURVE",
"88 35 OFFCURVE",
"103 19 CURVE SMOOTH",
"135 -15 OFFCURVE",
"185 -26 OFFCURVE",
"238 -26 CURVE SMOOTH"
);
}
);
width = 741;
}
);
note = G;
unicode = 0047;
},
{
glyphname = H;
lastChange = "2021-11-09 21:29:53 +0000";
layers = (
{
anchors = (
{
name = bottom;
position = "{374, 0}";
},
{
name = center;
position = "{374, 320}";
},
{
name = top;
position = "{687, 640}";
},
{
name = topleft;
position = "{20, 640}";
}
);
background = {
paths = (
{
closed = 1;
nodes = (
"447 -47 OFFCURVE",
"461 -33 OFFCURVE",
"472 10 CURVE SMOOTH",
"484 59 OFFCURVE",
"507 84 OFFCURVE",
"512 95 CURVE",
"514 108 OFFCURVE",
"549 118 OFFCURVE",
"559 140 CURVE SMOOTH",
"566 154 OFFCURVE",
"588 197 OFFCURVE",
"598 211 CURVE",
"599 211 LINE",
"605 224 OFFCURVE",
"618 263 OFFCURVE",
"669 327 CURVE SMOOTH",
"671 330 OFFCURVE",
"691 321 OFFCURVE",
"703 321 CURVE SMOOTH",
"707 321 OFFCURVE",
"710 322 OFFCURVE",
"712 324 CURVE SMOOTH",
"719 332 OFFCURVE",
"696 351 OFFCURVE",
"703 360 CURVE SMOOTH",
"724 387 OFFCURVE",
"755 425 OFFCURVE",
"763 435 CURVE SMOOTH",
"774 448 OFFCURVE",
"828 477 OFFCURVE",
"844 500 CURVE SMOOTH",
"854 515 OFFCURVE",
"884 530 OFFCURVE",
"900 543 CURVE SMOOTH",
"930 569 OFFCURVE",
"936 597 OFFCURVE",
"939 616 CURVE",
"939 629 OFFCURVE",
"929 633 OFFCURVE",
"914 633 CURVE SMOOTH",
"892 633 OFFCURVE",
"861 623 OFFCURVE",
"841 614 CURVE",
"831 608 OFFCURVE",
"809 591 OFFCURVE",
"800 583 CURVE SMOOTH",
"791 574 OFFCURVE",
"781 541 OFFCURVE",
"774 532 CURVE SMOOTH",
"748 503 OFFCURVE",
"704 449 OFFCURVE",
"679 418 CURVE",
"679 418 OFFCURVE",
"642 375 OFFCURVE",
"636 365 CURVE",
"619 366 OFFCURVE",
"592 364 OFFCURVE",
"557 370 CURVE SMOOTH",
"545 372 OFFCURVE",
"523 373 OFFCURVE",
"496 373 CURVE SMOOTH",
"426 373 OFFCURVE",
"322 367 OFFCURVE",
"264 362 CURVE",
"268 368 LINE SMOOTH",
"277 379 OFFCURVE",
"295 386 OFFCURVE",
"307 400 CURVE SMOOTH",
"321 415 OFFCURVE",
"345 442 OFFCURVE",
"363 465 CURVE SMOOTH",
"375 480 OFFCURVE",
"407 514 OFFCURVE",
"423 528 CURVE SMOOTH",
"451 553 OFFCURVE",
"445 559 OFFCURVE",
"449 576 CURVE SMOOTH",
"449 577 LINE SMOOTH",
"449 591 OFFCURVE",
"440 596 OFFCURVE",
"427 596 CURVE SMOOTH",
"411 596 OFFCURVE",
"388 588 OFFCURVE",
"369 579 CURVE",
"356 570 OFFCURVE",
"363 560 OFFCURVE",
"356 554 CURVE SMOOTH",
"347 546 OFFCURVE",
"306 497 OFFCURVE",
"298 487 CURVE SMOOTH",
"270 455 OFFCURVE",
"282 454 OFFCURVE",
"257 423 CURVE",
"257 423 OFFCURVE",
"240 401 OFFCURVE",
"237 398 CURVE",
"236 396 OFFCURVE",
"224 379 OFFCURVE",
"208 357 CURVE",
"127 348 OFFCURVE",
"96 335 OFFCURVE",
"96 327 CURVE SMOOTH",
"96 322 OFFCURVE",
"108 318 OFFCURVE",
"127 318 CURVE SMOOTH",
"139 318 OFFCURVE",
"155 319 OFFCURVE",
"172 323 CURVE SMOOTH",
"176 324 OFFCURVE",
"180 325 OFFCURVE",
"185 325 CURVE",
"149 277 OFFCURVE",
"111 223 OFFCURVE",
"107 218 CURVE SMOOTH",
"90 195 OFFCURVE",
"75 161 OFFCURVE",
"53 133 CURVE",
"52 133 LINE",
"16 63 OFFCURVE",
"6 30 OFFCURVE",
"6 13 CURVE SMOOTH",
"6 -3 OFFCURVE",
"15 -4 OFFCURVE",
"19 -8 CURVE SMOOTH",
"23 -11 OFFCURVE",
"24 -13 OFFCURVE",
"27 -17 CURVE SMOOTH",
"29 -19 OFFCURVE",
"34 -20 OFFCURVE",
"40 -20 CURVE SMOOTH",
"46 -20 OFFCURVE",
"53 -19 OFFCURVE",
"60 -15 CURVE SMOOTH",
"68 -11 OFFCURVE",
"72 -2 OFFCURVE",
"79 5 CURVE",
"80 7 OFFCURVE",
"80 10 OFFCURVE",
"80 14 CURVE SMOOTH",
"80 26 OFFCURVE",
"76 44 OFFCURVE",
"71 47 CURVE",
"67 42 OFFCURVE",
"79 83 OFFCURVE",
"84 93 CURVE",
"88 107 OFFCURVE",
"96 110 OFFCURVE",
"105 132 CURVE SMOOTH",
"111 144 OFFCURVE",
"175 247 OFFCURVE",
"238 329 CURVE",
"326 334 OFFCURVE",
"529 341 OFFCURVE",
"619 340 CURVE",
"597 310 OFFCURVE",
"559 256 OFFCURVE",
"537 221 CURVE SMOOTH",
"522 197 OFFCURVE",
"474 108 OFFCURVE",
"455 70 CURVE SMOOTH",
"434 28 OFFCURVE",
"426 -16 OFFCURVE",
"426 -29 CURVE SMOOTH",
"426 -40 OFFCURVE",
"431 -47 OFFCURVE",
"438 -47 CURVE SMOOTH"
);
}
);
};
layerId = "960B82ED-BAE9-407E-815C-F6C3A86A2215";
paths = (
{
closed = 1;
nodes = (
"447 -39 OFFCURVE",
"461 -25 OFFCURVE",
"472 18 CURVE SMOOTH",
"484 67 OFFCURVE",
"507 92 OFFCURVE",
"512 103 CURVE",
"514 116 OFFCURVE",
"549 126 OFFCURVE",
"559 148 CURVE SMOOTH",
"566 162 OFFCURVE",
"588 205 OFFCURVE",
"598 219 CURVE",
"599 219 LINE",
"605 232 OFFCURVE",
"618 271 OFFCURVE",
"669 335 CURVE SMOOTH",
"671 338 OFFCURVE",
"691 329 OFFCURVE",
"703 329 CURVE SMOOTH",
"707 329 OFFCURVE",
"710 330 OFFCURVE",
"712 332 CURVE SMOOTH",
"719 340 OFFCURVE",
"696 359 OFFCURVE",
"703 368 CURVE SMOOTH",
"724 395 OFFCURVE",
"755 433 OFFCURVE",
"763 443 CURVE SMOOTH",
"774 456 OFFCURVE",
"828 485 OFFCURVE",
"844 508 CURVE SMOOTH",
"854 523 OFFCURVE",
"884 538 OFFCURVE",
"900 551 CURVE SMOOTH",
"930 577 OFFCURVE",
"936 605 OFFCURVE",
"939 624 CURVE",
"939 637 OFFCURVE",
"929 641 OFFCURVE",
"914 641 CURVE SMOOTH",
"892 641 OFFCURVE",
"861 631 OFFCURVE",
"841 622 CURVE",
"831 616 OFFCURVE",
"809 599 OFFCURVE",
"800 591 CURVE SMOOTH",
"791 582 OFFCURVE",
"781 549 OFFCURVE",
"774 540 CURVE SMOOTH",
"748 511 OFFCURVE",
"704 457 OFFCURVE",
"679 426 CURVE",
"679 426 OFFCURVE",
"642 383 OFFCURVE",
"636 373 CURVE",
"619 374 OFFCURVE",
"592 372 OFFCURVE",
"557 378 CURVE SMOOTH",
"545 380 OFFCURVE",
"523 381 OFFCURVE",
"496 381 CURVE SMOOTH",
"426 381 OFFCURVE",
"322 375 OFFCURVE",
"264 370 CURVE",
"268 376 LINE SMOOTH",
"276 388 OFFCURVE",
"295 394 OFFCURVE",
"307 408 CURVE SMOOTH",
"321 423 OFFCURVE",
"345 450 OFFCURVE",
"363 473 CURVE SMOOTH",
"375 488 OFFCURVE",
"407 522 OFFCURVE",
"423 536 CURVE SMOOTH",
"451 561 OFFCURVE",
"449 567 OFFCURVE",
"449 584 CURVE SMOOTH",
"449 585 LINE SMOOTH",
"449 599 OFFCURVE",
"440 604 OFFCURVE",
"427 604 CURVE SMOOTH",
"411 604 OFFCURVE",
"388 596 OFFCURVE",
"369 587 CURVE",
"356 578 OFFCURVE",
"363 568 OFFCURVE",
"356 562 CURVE SMOOTH",
"347 554 OFFCURVE",
"306 505 OFFCURVE",
"298 495 CURVE SMOOTH",
"270 463 OFFCURVE",
"282 462 OFFCURVE",
"257 431 CURVE",
"257 431 OFFCURVE",
"240 409 OFFCURVE",
"237 406 CURVE",
"236 404 OFFCURVE",
"224 387 OFFCURVE",
"208 365 CURVE",
"127 356 OFFCURVE",
"96 343 OFFCURVE",
"96 335 CURVE SMOOTH",
"96 330 OFFCURVE",
"108 326 OFFCURVE",
"127 326 CURVE SMOOTH",
"139 326 OFFCURVE",
"155 327 OFFCURVE",
"172 331 CURVE SMOOTH",
"176 332 OFFCURVE",
"180 333 OFFCURVE",
"185 333 CURVE",
"149 285 OFFCURVE",
"111 231 OFFCURVE",
"107 226 CURVE SMOOTH",
"90 203 OFFCURVE",
"75 169 OFFCURVE",
"53 141 CURVE",
"52 141 LINE",
"16 71 OFFCURVE",
"6 38 OFFCURVE",
"6 21 CURVE SMOOTH",
"6 5 OFFCURVE",
"15 4 OFFCURVE",
"19 0 CURVE SMOOTH",
"23 -3 OFFCURVE",
"24 -5 OFFCURVE",
"27 -9 CURVE SMOOTH",
"29 -11 OFFCURVE",
"34 -12 OFFCURVE",
"40 -12 CURVE SMOOTH",
"46 -12 OFFCURVE",
"53 -11 OFFCURVE",
"60 -7 CURVE SMOOTH",
"68 -3 OFFCURVE",
"72 6 OFFCURVE",
"79 13 CURVE",
"80 15 OFFCURVE",
"80 18 OFFCURVE",
"80 22 CURVE SMOOTH",
"80 34 OFFCURVE",
"76 52 OFFCURVE",
"71 55 CURVE",
"67 50 OFFCURVE",
"79 91 OFFCURVE",
"84 101 CURVE",
"88 115 OFFCURVE",
"96 118 OFFCURVE",
"105 140 CURVE SMOOTH",
"111 152 OFFCURVE",
"175 255 OFFCURVE",
"238 337 CURVE",
"326 342 OFFCURVE",
"529 349 OFFCURVE",
"619 348 CURVE",
"597 318 OFFCURVE",
"559 264 OFFCURVE",
"537 229 CURVE SMOOTH",
"522 205 OFFCURVE",
"474 116 OFFCURVE",
"455 78 CURVE SMOOTH",
"434 36 OFFCURVE",
"426 -8 OFFCURVE",
"426 -21 CURVE SMOOTH",
"426 -32 OFFCURVE",
"431 -39 OFFCURVE",
"438 -39 CURVE SMOOTH"
);
}
);
width = 748;
}
);
note = H;
unicode = 0048;
},
{
glyphname = Hbar;
lastChange = "2021-11-09 21:29:53 +0000";
layers = (
{
background = {
components = (
{
name = H;
},
{
name = emdash;
transform = "{1.6305, 0, 0, 0.74783, -32, 236}";
}
);
};
layerId = "960B82ED-BAE9-407E-815C-F6C3A86A2215";
paths = (
{
closed = 1;
nodes = (
"447 -39 OFFCURVE",
"461 -25 OFFCURVE",
"472 18 CURVE SMOOTH",
"484 67 OFFCURVE",
"507 92 OFFCURVE",
"512 103 CURVE",
"514 116 OFFCURVE",
"549 126 OFFCURVE",
"559 148 CURVE SMOOTH",
"566 162 OFFCURVE",
"588 205 OFFCURVE",
"598 219 CURVE",
"599 219 LINE",
"605 232 OFFCURVE",
"618 271 OFFCURVE",
"669 335 CURVE SMOOTH",
"671 338 OFFCURVE",
"691 329 OFFCURVE",
"703 329 CURVE SMOOTH",
"707 329 OFFCURVE",
"710 330 OFFCURVE",
"712 332 CURVE SMOOTH",
"719 340 OFFCURVE",
"696 359 OFFCURVE",
"703 368 CURVE SMOOTH",
"724 395 OFFCURVE",
"755 433 OFFCURVE",
"763 443 CURVE SMOOTH",
"774 456 OFFCURVE",
"828 485 OFFCURVE",
"844 508 CURVE SMOOTH",
"854 523 OFFCURVE",
"884 538 OFFCURVE",
"900 551 CURVE SMOOTH",
"930 577 OFFCURVE",
"936 605 OFFCURVE",
"939 624 CURVE",
"939 637 OFFCURVE",
"929 641 OFFCURVE",
"914 641 CURVE SMOOTH",
"892 641 OFFCURVE",
"861 631 OFFCURVE",
"841 622 CURVE",
"831 616 OFFCURVE",
"809 599 OFFCURVE",
"800 591 CURVE SMOOTH",
"791 582 OFFCURVE",
"781 549 OFFCURVE",
"774 540 CURVE SMOOTH",
"748 511 OFFCURVE",
"704 457 OFFCURVE",
"679 426 CURVE",
"679 426 OFFCURVE",
"642 383 OFFCURVE",
"636 373 CURVE",
"619 374 OFFCURVE",
"592 372 OFFCURVE",
"557 378 CURVE SMOOTH",
"545 380 OFFCURVE",
"523 381 OFFCURVE",
"496 381 CURVE SMOOTH",
"426 381 OFFCURVE",
"322 375 OFFCURVE",
"264 370 CURVE",
"268 376 LINE SMOOTH",
"277 387 OFFCURVE",
"295 394 OFFCURVE",
"307 408 CURVE SMOOTH",
"321 423 OFFCURVE",
"345 450 OFFCURVE",
"363 473 CURVE SMOOTH",
"375 488 OFFCURVE",
"407 522 OFFCURVE",
"423 536 CURVE SMOOTH",
"451 561 OFFCURVE",
"445 567 OFFCURVE",
"449 584 CURVE SMOOTH",
"449 585 LINE SMOOTH",
"449 599 OFFCURVE",
"440 604 OFFCURVE",
"427 604 CURVE SMOOTH",
"411 604 OFFCURVE",
"388 596 OFFCURVE",
"369 587 CURVE",
"356 578 OFFCURVE",
"363 568 OFFCURVE",
"356 562 CURVE SMOOTH",
"347 554 OFFCURVE",
"306 505 OFFCURVE",
"298 495 CURVE SMOOTH",
"270 463 OFFCURVE",
"282 462 OFFCURVE",
"257 431 CURVE",
"257 431 OFFCURVE",
"240 409 OFFCURVE",
"237 406 CURVE",
"236 404 OFFCURVE",
"224 387 OFFCURVE",
"208 365 CURVE",
"127 356 OFFCURVE",
"96 343 OFFCURVE",
"96 335 CURVE SMOOTH",
"96 330 OFFCURVE",
"108 326 OFFCURVE",
"127 326 CURVE SMOOTH",
"139 326 OFFCURVE",
"155 327 OFFCURVE",
"172 331 CURVE SMOOTH",
"176 332 OFFCURVE",
"180 333 OFFCURVE",
"185 333 CURVE",
"149 285 OFFCURVE",
"111 231 OFFCURVE",
"107 226 CURVE SMOOTH",
"90 203 OFFCURVE",
"75 169 OFFCURVE",
"53 141 CURVE",
"52 141 LINE",
"16 71 OFFCURVE",
"6 38 OFFCURVE",
"6 21 CURVE SMOOTH",
"6 5 OFFCURVE",
"15 4 OFFCURVE",
"19 0 CURVE SMOOTH",
"23 -3 OFFCURVE",
"24 -5 OFFCURVE",
"27 -9 CURVE SMOOTH",
"29 -11 OFFCURVE",
"34 -12 OFFCURVE",
"40 -12 CURVE SMOOTH",
"46 -12 OFFCURVE",
"53 -11 OFFCURVE",
"60 -7 CURVE SMOOTH",
"68 -3 OFFCURVE",
"72 6 OFFCURVE",
"79 13 CURVE",
"80 15 OFFCURVE",
"80 18 OFFCURVE",
"80 22 CURVE SMOOTH",
"80 34 OFFCURVE",
"76 52 OFFCURVE",
"71 55 CURVE",
"67 50 OFFCURVE",
"79 91 OFFCURVE",
"84 101 CURVE",
"88 115 OFFCURVE",
"96 118 OFFCURVE",
"105 140 CURVE SMOOTH",
"111 152 OFFCURVE",
"175 255 OFFCURVE",
"238 337 CURVE",
"326 342 OFFCURVE",
"529 349 OFFCURVE",
"619 348 CURVE",
"597 318 OFFCURVE",
"559 264 OFFCURVE",
"537 229 CURVE SMOOTH",
"522 205 OFFCURVE",
"474 116 OFFCURVE",
"455 78 CURVE SMOOTH",
"434 36 OFFCURVE",
"426 -8 OFFCURVE",
"426 -21 CURVE SMOOTH",
"426 -32 OFFCURVE",
"431 -39 OFFCURVE",
"438 -39 CURVE SMOOTH"
);
},
{
closed = 1;
nodes = (
"180 427 LINE",
"196 429 OFFCURVE",
"244 430 OFFCURVE",
"265 434 CURVE SMOOTH",
"289 438 OFFCURVE",
"284 444 OFFCURVE",
"307 446 CURVE SMOOTH",
"319 448 OFFCURVE",
"588 457 OFFCURVE",
"601 458 CURVE SMOOTH",
"648 463 OFFCURVE",
"731 467 OFFCURVE",
"796 466 CURVE SMOOTH",
"809 466 OFFCURVE",
"821 465 OFFCURVE",
"831 465 CURVE SMOOTH",
"899 465 OFFCURVE",
"920 473 OFFCURVE",
"920 481 CURVE SMOOTH",
"920 487 OFFCURVE",
"902 493 OFFCURVE",
"886 493 CURVE SMOOTH",
"817 493 OFFCURVE",
"579 493 OFFCURVE",
"405 489 CURVE SMOOTH",
"389 489 OFFCURVE",
"372 488 OFFCURVE",
"356 488 CURVE SMOOTH",
"307 488 OFFCURVE",
"261 490 OFFCURVE",
"231 490 CURVE SMOOTH",
"216 490 OFFCURVE",
"204 490 OFFCURVE",
"198 489 CURVE SMOOTH",
"165 483 OFFCURVE",
"103 449 OFFCURVE",
"110 433 CURVE",
"110 434 LINE",
"113 429 OFFCURVE",
"134 427 OFFCURVE",
"156 427 CURVE SMOOTH"
);
}
);
width = 748;
}
);
unicode = 0126;
},
{
glyphname = I;
lastChange = "2021-11-09 21:49:54 +0000";
layers = (
{
anchors = (
{
name = bottom;
position = "{170, 0}";
},
{
name = ogonek;
position = "{311, 16}";
},
{
name = top;
position = "{526, 640}";
},
{
name = topleft;
position = "{20, 640}";
}
);
background = {
paths = (
{
closed = 1;
nodes = (
"58 -23 OFFCURVE",
"83 -10 OFFCURVE",
"94 -10 CURVE SMOOTH",
"105 -10 OFFCURVE",
"116 -3 OFFCURVE",
"126 0 CURVE",
"128 -3 OFFCURVE",
"133 -6 OFFCURVE",
"134 -7 CURVE SMOOTH",
"139 -11 OFFCURVE",
"147 -10 OFFCURVE",
"147 -13 CURVE",
"149 -14 LINE",
"149 -14 OFFCURVE",
"161 -19 OFFCURVE",
"173 -19 CURVE SMOOTH",
"178 -19 OFFCURVE",
"182 -19 OFFCURVE",
"185 -17 CURVE",
"183 -17 LINE",
"191 -15 OFFCURVE",
"197 -1 OFFCURVE",
"203 9 CURVE",
"247 15 OFFCURVE",
"297 27 OFFCURVE",
"322 34 CURVE SMOOTH",
"350 42 OFFCURVE",
"341 52 OFFCURVE",
"344 53 CURVE",
"348 64 OFFCURVE",
"330 63 OFFCURVE",
"302 64 CURVE SMOOTH",
"274 64 OFFCURVE",
"237 57 OFFCURVE",
"202 51 CURVE",
"201 53 LINE SMOOTH",
"200 55 OFFCURVE",
"199 56 OFFCURVE",
"198 55 CURVE SMOOTH",
"196 53 OFFCURVE",
"196 61 OFFCURVE",
"196 71 CURVE SMOOTH",
"196 84 OFFCURVE",
"196 100 OFFCURVE",
"197 105 CURVE SMOOTH",
"197 104 LINE",
"202 120 OFFCURVE",
"209 123 OFFCURVE",
"217 146 CURVE SMOOTH",
"223 162 OFFCURVE",
"243 209 OFFCURVE",
"252 226 CURVE SMOOTH",
"260 241 OFFCURVE",
"297 308 OFFCURVE",
"362 398 CURVE SMOOTH",
"371 410 OFFCURVE",
"388 417 OFFCURVE",
"399 432 CURVE SMOOTH",
"411 448 OFFCURVE",
"436 469 OFFCURVE",
"451 493 CURVE",
"450 493 LINE",
"462 510 OFFCURVE",
"481 531 OFFCURVE",
"496 546 CURVE SMOOTH",
"506 556 OFFCURVE",
"515 564 OFFCURVE",
"523 573 CURVE",
"550 577 OFFCURVE",
"574 583 OFFCURVE",
"596 583 CURVE SMOOTH",
"603 583 OFFCURVE",
"611 578 OFFCURVE",
"619 578 CURVE SMOOTH",
"630 579 OFFCURVE",
"637 590 OFFCURVE",
"643 589 CURVE",
"669 590 OFFCURVE",
"685 588 OFFCURVE",
"682 587 CURVE",
"686 577 OFFCURVE",
"705 588 OFFCURVE",
"705 602 CURVE SMOOTH",
"705 607 OFFCURVE",
"703 612 OFFCURVE",
"697 617 CURVE",
"695 617 LINE SMOOTH",
"693 617 OFFCURVE",
"675 618 OFFCURVE",
"649 618 CURVE SMOOTH",
"623 618 OFFCURVE",
"589 617 OFFCURVE",
"551 615 CURVE",
"552 621 LINE",
"551 631 OFFCURVE",
"542 635 OFFCURVE",
"529 635 CURVE SMOOTH",
"500 635 OFFCURVE",
"454 617 OFFCURVE",
"454 617 CURVE",
"446 610 LINE",
"382 606 OFFCURVE",
"328 602 OFFCURVE",
"316 597 CURVE SMOOTH",
"306 593 OFFCURVE",
"300 592 OFFCURVE",
"294 592 CURVE SMOOTH",
"283 592 OFFCURVE",
"276 596 OFFCURVE",
"263 594 CURVE SMOOTH",
"247 590 OFFCURVE",
"239 570 OFFCURVE",
"239 553 CURVE SMOOTH",
"239 541 OFFCURVE",
"243 530 OFFCURVE",
"250 524 CURVE",
"250 523 LINE",
"251 523 OFFCURVE",
"266 521 OFFCURVE",
"283 526 CURVE",
"282 526 LINE SMOOTH",
"293 527 OFFCURVE",
"301 543 OFFCURVE",
"311 542 CURVE",
"337 545 OFFCURVE",
"370 550 OFFCURVE",
"405 555 CURVE",
"398 546 OFFCURVE",
"390 537 OFFCURVE",
"387 531 CURVE",
"362 497 OFFCURVE",
"368 495 OFFCURVE",
"346 460 CURVE",
"347 460 LINE",
"346 459 OFFCURVE",
"331 438 OFFCURVE",
"330 431 CURVE",
"318 415 OFFCURVE",
"212 249 OFFCURVE",
"211 241 CURVE SMOOTH",
"211 243 LINE",
"197 217 OFFCURVE",
"183 182 OFFCURVE",
"163 151 CURVE",
"163 150 LINE",
"141 97 OFFCURVE",
"130 62 OFFCURVE",
"123 41 CURVE",
"108 41 OFFCURVE",
"95 36 OFFCURVE",
"89 36 CURVE SMOOTH",
"65 34 OFFCURVE",
"89 48 OFFCURVE",
"42 49 CURVE SMOOTH",
"7 49 OFFCURVE",
"8 37 OFFCURVE",
"0 21 CURVE SMOOTH",
"-2 18 OFFCURVE",
"-2 15 OFFCURVE",
"-2 11 CURVE SMOOTH",
"-2 -2 OFFCURVE",
"9 -17 OFFCURVE",
"17 -18 CURVE",
"20 -17 OFFCURVE",
"25 -23 OFFCURVE",
"45 -23 CURVE SMOOTH"
);
}
);
};
layerId = "960B82ED-BAE9-407E-815C-F6C3A86A2215";
paths = (
{
closed = 1;
nodes = (
"58 -15 OFFCURVE",
"83 -2 OFFCURVE",
"94 -2 CURVE SMOOTH",
"105 -2 OFFCURVE",
"116 5 OFFCURVE",
"126 8 CURVE",
"128 5 OFFCURVE",
"133 2 OFFCURVE",
"134 1 CURVE SMOOTH",
"139 -3 OFFCURVE",
"147 -2 OFFCURVE",
"147 -5 CURVE",
"149 -6 LINE",
"149 -6 OFFCURVE",
"161 -11 OFFCURVE",
"173 -11 CURVE SMOOTH",
"178 -11 OFFCURVE",
"182 -11 OFFCURVE",
"185 -9 CURVE",
"183 -9 LINE",
"191 -7 OFFCURVE",
"197 7 OFFCURVE",
"203 17 CURVE",
"247 23 OFFCURVE",
"297 35 OFFCURVE",
"322 42 CURVE SMOOTH",
"350 50 OFFCURVE",
"341 60 OFFCURVE",
"344 61 CURVE",
"348 72 OFFCURVE",
"330 71 OFFCURVE",
"302 72 CURVE SMOOTH",
"274 72 OFFCURVE",
"237 65 OFFCURVE",
"202 59 CURVE",
"201 61 LINE SMOOTH",
"200 63 OFFCURVE",
"199 64 OFFCURVE",
"198 63 CURVE SMOOTH",
"196 61 OFFCURVE",
"196 69 OFFCURVE",
"196 79 CURVE SMOOTH",
"196 92 OFFCURVE",
"197 118 OFFCURVE",
"197 113 CURVE SMOOTH",
"197 112 LINE",
"202 128 OFFCURVE",
"209 131 OFFCURVE",
"217 154 CURVE SMOOTH",
"223 170 OFFCURVE",
"243 217 OFFCURVE",
"252 234 CURVE SMOOTH",
"260 249 OFFCURVE",
"297 316 OFFCURVE",
"362 406 CURVE SMOOTH",
"371 418 OFFCURVE",
"388 425 OFFCURVE",
"399 440 CURVE SMOOTH",
"411 456 OFFCURVE",
"436 477 OFFCURVE",
"451 501 CURVE",
"450 501 LINE",
"462 518 OFFCURVE",
"481 539 OFFCURVE",
"496 554 CURVE SMOOTH",
"506 564 OFFCURVE",
"515 572 OFFCURVE",
"523 581 CURVE",
"550 585 OFFCURVE",
"574 591 OFFCURVE",
"596 591 CURVE SMOOTH",
"603 591 OFFCURVE",
"611 586 OFFCURVE",
"619 586 CURVE SMOOTH",
"630 587 OFFCURVE",
"637 598 OFFCURVE",
"643 597 CURVE",
"669 598 OFFCURVE",
"685 596 OFFCURVE",
"682 595 CURVE",
"686 585 OFFCURVE",
"705 596 OFFCURVE",
"705 610 CURVE SMOOTH",
"705 615 OFFCURVE",
"703 620 OFFCURVE",
"697 625 CURVE",
"695 625 LINE SMOOTH",
"693 625 OFFCURVE",
"675 626 OFFCURVE",
"649 626 CURVE SMOOTH",
"623 626 OFFCURVE",
"589 625 OFFCURVE",
"551 623 CURVE",
"552 629 LINE",
"551 639 OFFCURVE",
"542 643 OFFCURVE",
"529 643 CURVE SMOOTH",
"500 643 OFFCURVE",
"454 625 OFFCURVE",
"454 625 CURVE",
"446 618 LINE",
"382 614 OFFCURVE",
"328 610 OFFCURVE",
"316 605 CURVE SMOOTH",
"306 601 OFFCURVE",
"300 600 OFFCURVE",
"294 600 CURVE SMOOTH",
"285 600 OFFCURVE",
"279 603 OFFCURVE",
"270 603 CURVE SMOOTH",
"268 603 OFFCURVE",
"266 602 OFFCURVE",
"263 602 CURVE",
"247 598 OFFCURVE",
"239 578 OFFCURVE",
"239 561 CURVE SMOOTH",
"239 549 OFFCURVE",
"243 538 OFFCURVE",
"250 532 CURVE",
"250 531 LINE",
"251 531 OFFCURVE",
"266 529 OFFCURVE",
"283 534 CURVE",
"282 534 LINE SMOOTH",
"271 534 OFFCURVE",
"301 551 OFFCURVE",
"311 550 CURVE",
"337 553 OFFCURVE",
"370 558 OFFCURVE",
"405 563 CURVE",
"398 554 OFFCURVE",
"390 545 OFFCURVE",
"387 539 CURVE",
"362 505 OFFCURVE",
"368 503 OFFCURVE",
"346 468 CURVE",
"347 468 LINE",
"346 467 OFFCURVE",
"331 446 OFFCURVE",
"330 439 CURVE",
"318 423 OFFCURVE",
"211 241 OFFCURVE",
"211 249 CURVE SMOOTH",
"211 251 LINE",
"197 225 OFFCURVE",
"183 190 OFFCURVE",
"163 159 CURVE",
"163 158 LINE",
"141 105 OFFCURVE",
"130 70 OFFCURVE",
"123 49 CURVE",
"108 49 OFFCURVE",
"95 44 OFFCURVE",
"89 44 CURVE SMOOTH",
"65 42 OFFCURVE",
"89 56 OFFCURVE",
"42 57 CURVE SMOOTH",
"7 57 OFFCURVE",
"8 45 OFFCURVE",
"0 29 CURVE SMOOTH",
"-2 26 OFFCURVE",
"-2 23 OFFCURVE",
"-2 19 CURVE SMOOTH",
"-2 6 OFFCURVE",
"9 -9 OFFCURVE",
"17 -10 CURVE",
"20 -9 OFFCURVE",
"25 -15 OFFCURVE",
"45 -15 CURVE SMOOTH"
);
}
);
width = 372;
}
);
note = I;
unicode = 0049;
},
{
glyphname = J;
lastChange = "2021-11-09 21:29:53 +0000";
layers = (
{
anchors = (
{
name = bottom;
position = "{172, 0}";
},
{
name = top;
position = "{404, 640}";
}
);
background = {
paths = (
{
closed = 1;
nodes = (
"-213 -243 OFFCURVE",
"-187 -237 OFFCURVE",
"-160 -223 CURVE SMOOTH",
"-58 -169 OFFCURVE",
"91 -22 OFFCURVE",
"190 130 CURVE",
"189 130 LINE",
"198 144 OFFCURVE",
"192 154 OFFCURVE",
"200 165 CURVE",
"206 177 OFFCURVE",
"226 191 OFFCURVE",
"233 202 CURVE SMOOTH",
"267 260 OFFCURVE",
"343 381 OFFCURVE",
"384 464 CURVE SMOOTH",
"389 473 OFFCURVE",
"410 483 OFFCURVE",
"416 493 CURVE",
"421 505 OFFCURVE",
"423 516 OFFCURVE",
"423 526 CURVE SMOOTH",
"423 545 OFFCURVE",
"415 556 OFFCURVE",
"404 557 CURVE",
"404 554 OFFCURVE",
"387 591 OFFCURVE",
"370 580 CURVE",
"363 574 OFFCURVE",
"342 572 OFFCURVE",
"342 572 CURVE",
"325 567 OFFCURVE",
"315 547 OFFCURVE",
"315 531 CURVE SMOOTH",
"315 520 OFFCURVE",
"319 511 OFFCURVE",
"328 509 CURVE",
"322 505 OFFCURVE",
"313 485 OFFCURVE",
"303 465 CURVE SMOOTH",
"299 457 OFFCURVE",
"298 445 OFFCURVE",
"294 436 CURVE SMOOTH",
"290 426 OFFCURVE",
"282 413 OFFCURVE",
"277 403 CURVE SMOOTH",
"244 337 OFFCURVE",
"208 262 OFFCURVE",
"177 210 CURVE SMOOTH",
"125 123 OFFCURVE",
"78 55 OFFCURVE",
"31 -3 CURVE SMOOTH",
"18 -18 OFFCURVE",
"12 -35 OFFCURVE",
"2 -46 CURVE SMOOTH",
"-9 -57 OFFCURVE",
"-27 -78 OFFCURVE",
"-37 -88 CURVE SMOOTH",
"-87 -133 OFFCURVE",
"-129 -167 OFFCURVE",
"-157 -176 CURVE SMOOTH",
"-191 -187 OFFCURVE",
"-220 -195 OFFCURVE",
"-240 -195 CURVE SMOOTH",
"-258 -195 OFFCURVE",
"-269 -188 OFFCURVE",
"-272 -171 CURVE SMOOTH",
"-274 -162 OFFCURVE",
"-269 -141 OFFCURVE",
"-260 -135 CURVE SMOOTH",
"-254 -132 OFFCURVE",
"-251 -126 OFFCURVE",
"-251 -120 CURVE SMOOTH",
"-251 -113 OFFCURVE",
"-256 -106 OFFCURVE",
"-268 -106 CURVE SMOOTH",
"-274 -106 OFFCURVE",
"-283 -108 OFFCURVE",
"-295 -115 CURVE SMOOTH",
"-324 -132 OFFCURVE",
"-332 -143 OFFCURVE",
"-332 -160 CURVE SMOOTH",
"-332 -166 OFFCURVE",
"-331 -173 OFFCURVE",
"-329 -182 CURVE SMOOTH",
"-322 -215 OFFCURVE",
"-286 -243 OFFCURVE",
"-236 -243 CURVE SMOOTH"
);
},
{
closed = 1;
nodes = (
"138 435 OFFCURVE",
"146 443 OFFCURVE",
"144 453 CURVE SMOOTH",
"141 467 OFFCURVE",
"139 478 OFFCURVE",
"139 487 CURVE SMOOTH",
"139 517 OFFCURVE",
"154 524 OFFCURVE",
"166 538 CURVE SMOOTH",
"177 552 OFFCURVE",
"172 567 OFFCURVE",
"269 581 CURVE SMOOTH",
"283 583 OFFCURVE",
"347 593 OFFCURVE",
"364 593 CURVE SMOOTH",
"375 594 OFFCURVE",
"392 600 OFFCURVE",
"408 598 CURVE SMOOTH",
"444 594 OFFCURVE",
"488 587 OFFCURVE",
"529 577 CURVE",
"548 577 OFFCURVE",
"584 559 OFFCURVE",
"600 559 CURVE SMOOTH",
"606 559 OFFCURVE",
"609 561 OFFCURVE",
"609 566 CURVE SMOOTH",
"609 571 OFFCURVE",
"606 579 OFFCURVE",
"599 591 CURVE SMOOTH",
"590 603 OFFCURVE",
"571 614 OFFCURVE",
"545 618 CURVE SMOOTH",
"496 625 OFFCURVE",
"440 635 OFFCURVE",
"362 635 CURVE SMOOTH",
"352 635 OFFCURVE",
"342 634 OFFCURVE",
"331 634 CURVE SMOOTH",
"268 632 OFFCURVE",
"166 614 OFFCURVE",
"150 602 CURVE",
"129 580 OFFCURVE",
"102 538 OFFCURVE",
"102 490 CURVE SMOOTH",
"102 481 OFFCURVE",
"103 473 OFFCURVE",
"105 464 CURVE SMOOTH",
"109 443 OFFCURVE",
"120 435 OFFCURVE",
"129 435 CURVE SMOOTH"
);
}
);
};
layerId = "960B82ED-BAE9-407E-815C-F6C3A86A2215";
paths = (
{
closed = 1;
nodes = (
"-213 -235 OFFCURVE",
"-187 -229 OFFCURVE",
"-160 -215 CURVE SMOOTH",
"-58 -161 OFFCURVE",
"91 -14 OFFCURVE",
"190 138 CURVE",
"189 138 LINE",
"198 152 OFFCURVE",
"192 162 OFFCURVE",
"200 173 CURVE",
"206 185 OFFCURVE",
"226 199 OFFCURVE",
"233 210 CURVE SMOOTH",
"267 268 OFFCURVE",
"343 389 OFFCURVE",
"384 472 CURVE SMOOTH",
"389 481 OFFCURVE",
"410 491 OFFCURVE",
"416 501 CURVE",
"421 513 OFFCURVE",
"423 524 OFFCURVE",
"423 534 CURVE SMOOTH",
"423 553 OFFCURVE",
"415 564 OFFCURVE",
"404 565 CURVE",
"404 562 OFFCURVE",
"387 599 OFFCURVE",
"370 588 CURVE",
"363 582 OFFCURVE",
"342 580 OFFCURVE",
"342 580 CURVE",
"325 575 OFFCURVE",
"315 555 OFFCURVE",
"315 539 CURVE SMOOTH",
"315 528 OFFCURVE",
"319 519 OFFCURVE",
"328 517 CURVE",
"322 513 OFFCURVE",
"313 493 OFFCURVE",
"303 473 CURVE SMOOTH",
"299 465 OFFCURVE",
"298 453 OFFCURVE",
"294 444 CURVE SMOOTH",
"290 434 OFFCURVE",
"282 421 OFFCURVE",
"277 411 CURVE SMOOTH",
"244 345 OFFCURVE",
"208 270 OFFCURVE",
"177 218 CURVE SMOOTH",
"125 131 OFFCURVE",
"78 63 OFFCURVE",
"31 5 CURVE SMOOTH",
"18 -10 OFFCURVE",
"12 -27 OFFCURVE",
"2 -38 CURVE SMOOTH",
"-9 -49 OFFCURVE",
"-27 -70 OFFCURVE",
"-37 -80 CURVE SMOOTH",
"-87 -125 OFFCURVE",
"-129 -159 OFFCURVE",
"-157 -168 CURVE SMOOTH",
"-191 -179 OFFCURVE",
"-220 -187 OFFCURVE",
"-240 -187 CURVE SMOOTH",
"-260 -187 OFFCURVE",
"-272 -179 OFFCURVE",
"-272 -158 CURVE SMOOTH",
"-272 -148 OFFCURVE",
"-268 -132 OFFCURVE",
"-260 -127 CURVE SMOOTH",
"-254 -124 OFFCURVE",
"-251 -118 OFFCURVE",
"-251 -112 CURVE SMOOTH",
"-251 -105 OFFCURVE",
"-256 -98 OFFCURVE",
"-268 -98 CURVE SMOOTH",
"-274 -98 OFFCURVE",
"-283 -100 OFFCURVE",
"-295 -107 CURVE SMOOTH",
"-324 -124 OFFCURVE",
"-332 -135 OFFCURVE",
"-332 -152 CURVE SMOOTH",
"-332 -158 OFFCURVE",
"-331 -165 OFFCURVE",
"-329 -174 CURVE SMOOTH",
"-322 -207 OFFCURVE",
"-286 -235 OFFCURVE",
"-236 -235 CURVE SMOOTH"
);
},
{
closed = 1;
nodes = (
"137 443 OFFCURVE",
"144 449 OFFCURVE",
"144 458 CURVE SMOOTH",
"144 461 LINE",
"141 475 OFFCURVE",
"139 486 OFFCURVE",
"139 495 CURVE SMOOTH",
"139 525 OFFCURVE",
"154 532 OFFCURVE",
"166 546 CURVE SMOOTH",
"177 560 OFFCURVE",
"172 575 OFFCURVE",
"269 589 CURVE SMOOTH",
"283 591 OFFCURVE",
"347 601 OFFCURVE",
"364 601 CURVE SMOOTH",
"375 602 OFFCURVE",
"392 608 OFFCURVE",
"408 606 CURVE SMOOTH",
"444 602 OFFCURVE",
"488 595 OFFCURVE",
"529 585 CURVE",
"548 585 OFFCURVE",
"584 567 OFFCURVE",
"600 567 CURVE SMOOTH",
"606 567 OFFCURVE",
"609 569 OFFCURVE",
"609 574 CURVE SMOOTH",
"609 579 OFFCURVE",
"606 587 OFFCURVE",
"599 599 CURVE SMOOTH",
"590 611 OFFCURVE",
"571 622 OFFCURVE",
"545 626 CURVE SMOOTH",
"496 633 OFFCURVE",
"440 643 OFFCURVE",
"362 643 CURVE SMOOTH",
"352 643 OFFCURVE",
"342 642 OFFCURVE",
"331 642 CURVE SMOOTH",
"268 640 OFFCURVE",
"166 622 OFFCURVE",
"150 610 CURVE",
"129 588 OFFCURVE",
"102 546 OFFCURVE",
"102 498 CURVE SMOOTH",
"102 489 OFFCURVE",
"103 481 OFFCURVE",
"105 472 CURVE SMOOTH",
"109 451 OFFCURVE",
"120 443 OFFCURVE",
"129 443 CURVE SMOOTH"
);
}
);
width = 343;
}
);
note = J;
unicode = 004A;
},
{
glyphname = K;
lastChange = "2021-11-09 21:29:53 +0000";
layers = (
{
anchors = (
{
name = bottom;
position = "{223, 0}";
},
{
name = top;
position = "{302, 640}";
}
);
background = {
paths = (
{
closed = 1;
nodes = (
"551 -71 OFFCURVE",
"561 -66 OFFCURVE",
"561 -59 CURVE SMOOTH",
"561 -54 OFFCURVE",
"556 -48 OFFCURVE",
"541 -42 CURVE",
"513 -26 OFFCURVE",
"453 19 OFFCURVE",
"436 33 CURVE",
"433 39 OFFCURVE",
"423 43 OFFCURVE",
"417 44 CURVE",
"414 48 OFFCURVE",
"416 54 OFFCURVE",
"409 61 CURVE SMOOTH",
"361 110 OFFCURVE",
"315 169 OFFCURVE",
"298 187 CURVE",
"298 187 OFFCURVE",
"283 201 OFFCURVE",
"270 217 CURVE",
"283 222 OFFCURVE",
"297 235 OFFCURVE",
"307 239 CURVE SMOOTH",
"377 267 OFFCURVE",
"443 299 OFFCURVE",
"527 343 CURVE",
"537 350 OFFCURVE",
"544 361 OFFCURVE",
"551 364 CURVE",
"558 369 OFFCURVE",
"570 366 OFFCURVE",
"578 370 CURVE SMOOTH",
"611 388 OFFCURVE",
"640 404 OFFCURVE",
"671 424 CURVE SMOOTH",
"710 449 LINE SMOOTH",
"807 511 OFFCURVE",
"862 552 OFFCURVE",
"944 628 CURVE SMOOTH",
"957 640 OFFCURVE",
"962 649 OFFCURVE",
"962 654 CURVE SMOOTH",
"962 660 OFFCURVE",
"956 662 OFFCURVE",
"949 662 CURVE SMOOTH",
"941 662 OFFCURVE",
"930 659 OFFCURVE",
"923 652 CURVE",
"900 636 OFFCURVE",
"879 620 OFFCURVE",
"860 605 CURVE SMOOTH",
"850 598 OFFCURVE",
"831 580 OFFCURVE",
"823 574 CURVE SMOOTH",
"777 539 OFFCURVE",
"747 521 OFFCURVE",
"688 483 CURVE SMOOTH",
"619 440 OFFCURVE",
"581 417 OFFCURVE",
"510 380 CURVE SMOOTH",
"436 341 OFFCURVE",
"361 332 OFFCURVE",
"299 308 CURVE SMOOTH",
"286 303 OFFCURVE",
"267 297 OFFCURVE",
"251 292 CURVE",
"260 303 OFFCURVE",
"269 311 OFFCURVE",
"288 334 CURVE SMOOTH",
"297 346 OFFCURVE",
"357 421 OFFCURVE",
"369 435 CURVE SMOOTH",
"380 448 OFFCURVE",
"434 477 OFFCURVE",
"450 500 CURVE SMOOTH",
"460 515 OFFCURVE",
"490 529 OFFCURVE",
"506 543 CURVE SMOOTH",
"536 568 OFFCURVE",
"542 597 OFFCURVE",
"545 616 CURVE",
"545 629 OFFCURVE",
"535 633 OFFCURVE",
"520 633 CURVE SMOOTH",
"498 633 OFFCURVE",
"467 623 OFFCURVE",
"447 614 CURVE",
"437 608 OFFCURVE",
"415 591 OFFCURVE",
"406 583 CURVE SMOOTH",
"397 574 OFFCURVE",
"387 541 OFFCURVE",
"380 532 CURVE SMOOTH",
"354 503 OFFCURVE",
"308 450 OFFCURVE",
"285 418 CURVE",
"285 417 OFFCURVE",
"243 370 OFFCURVE",
"240 362 CURVE",
"235 355 OFFCURVE",
"221 332 OFFCURVE",
"197 297 CURVE",
"191 303 LINE",
"187 305 OFFCURVE",
"182 306 OFFCURVE",
"177 306 CURVE SMOOTH",
"156 306 OFFCURVE",
"126 288 OFFCURVE",
"126 266 CURVE SMOOTH",
"126 255 OFFCURVE",
"133 243 OFFCURVE",
"152 231 CURVE",
"145 219 OFFCURVE",
"132 194 OFFCURVE",
"118 177 CURVE",
"117 177 LINE",
"98 141 OFFCURVE",
"73 95 OFFCURVE",
"61 70 CURVE SMOOTH",
"40 28 OFFCURVE",
"33 -16 OFFCURVE",
"32 -29 CURVE SMOOTH",
"32 -40 OFFCURVE",
"36 -47 OFFCURVE",
"43 -47 CURVE SMOOTH",
"53 -47 OFFCURVE",
"67 -33 OFFCURVE",
"77 10 CURVE SMOOTH",
"89 59 OFFCURVE",
"113 84 OFFCURVE",
"117 95 CURVE SMOOTH",
"121 109 OFFCURVE",
"137 121 OFFCURVE",
"146 142 CURVE SMOOTH",
"151 152 OFFCURVE",
"170 177 OFFCURVE",
"182 197 CURVE",
"201 184 LINE SMOOTH",
"229 165 OFFCURVE",
"250 148 OFFCURVE",
"257 140 CURVE SMOOTH",
"270 126 OFFCURVE",
"345 53 OFFCURVE",
"387 23 CURVE SMOOTH",
"430 -8 OFFCURVE",
"522 -68 OFFCURVE",
"547 -69 CURVE"
);
}
);
};
layerId = "960B82ED-BAE9-407E-815C-F6C3A86A2215";
paths = (
{
closed = 1;
nodes = (
"551 -63 OFFCURVE",
"561 -58 OFFCURVE",
"561 -51 CURVE SMOOTH",
"561 -46 OFFCURVE",
"556 -40 OFFCURVE",
"541 -34 CURVE",
"513 -18 OFFCURVE",
"453 27 OFFCURVE",
"436 41 CURVE",
"433 47 OFFCURVE",
"423 51 OFFCURVE",
"417 52 CURVE",
"414 56 OFFCURVE",
"416 62 OFFCURVE",
"409 69 CURVE SMOOTH",
"361 118 OFFCURVE",
"315 177 OFFCURVE",
"298 195 CURVE",
"298 195 OFFCURVE",
"283 209 OFFCURVE",
"270 225 CURVE",
"283 230 OFFCURVE",
"297 243 OFFCURVE",
"307 247 CURVE SMOOTH",
"377 275 OFFCURVE",
"443 307 OFFCURVE",
"527 351 CURVE",
"537 358 OFFCURVE",
"544 369 OFFCURVE",
"551 372 CURVE",
"558 377 OFFCURVE",
"570 374 OFFCURVE",
"578 378 CURVE SMOOTH",
"611 396 OFFCURVE",
"640 412 OFFCURVE",
"671 432 CURVE SMOOTH",
"710 457 LINE SMOOTH",
"807 519 OFFCURVE",
"862 560 OFFCURVE",
"944 636 CURVE SMOOTH",
"957 648 OFFCURVE",
"962 657 OFFCURVE",
"962 662 CURVE SMOOTH",
"962 668 OFFCURVE",
"956 670 OFFCURVE",
"949 670 CURVE SMOOTH",
"941 670 OFFCURVE",
"930 667 OFFCURVE",
"923 660 CURVE",
"900 644 OFFCURVE",
"879 628 OFFCURVE",
"860 613 CURVE SMOOTH",
"850 606 OFFCURVE",
"831 588 OFFCURVE",
"823 582 CURVE SMOOTH",
"777 547 OFFCURVE",
"747 529 OFFCURVE",
"688 491 CURVE SMOOTH",
"619 448 OFFCURVE",
"581 425 OFFCURVE",
"510 388 CURVE SMOOTH",
"436 349 OFFCURVE",
"361 340 OFFCURVE",
"299 316 CURVE SMOOTH",
"286 311 OFFCURVE",
"267 305 OFFCURVE",
"251 300 CURVE",
"260 311 OFFCURVE",
"269 319 OFFCURVE",
"288 342 CURVE SMOOTH",
"297 354 OFFCURVE",
"357 429 OFFCURVE",
"369 443 CURVE SMOOTH",
"380 456 OFFCURVE",
"434 485 OFFCURVE",
"450 508 CURVE SMOOTH",
"460 523 OFFCURVE",
"490 537 OFFCURVE",
"506 551 CURVE SMOOTH",
"536 576 OFFCURVE",
"542 605 OFFCURVE",
"545 624 CURVE",
"545 637 OFFCURVE",
"535 641 OFFCURVE",
"520 641 CURVE SMOOTH",
"498 641 OFFCURVE",
"467 631 OFFCURVE",
"447 622 CURVE",
"437 616 OFFCURVE",
"415 599 OFFCURVE",
"406 591 CURVE SMOOTH",
"397 582 OFFCURVE",
"387 549 OFFCURVE",
"380 540 CURVE SMOOTH",
"354 511 OFFCURVE",
"308 458 OFFCURVE",
"285 426 CURVE",
"285 425 OFFCURVE",
"243 378 OFFCURVE",
"240 370 CURVE",
"235 363 OFFCURVE",
"221 340 OFFCURVE",
"197 305 CURVE",
"191 311 LINE",
"187 313 OFFCURVE",
"182 314 OFFCURVE",
"177 314 CURVE SMOOTH",
"156 314 OFFCURVE",
"126 296 OFFCURVE",
"126 274 CURVE SMOOTH",
"126 263 OFFCURVE",
"133 251 OFFCURVE",
"152 239 CURVE",
"145 227 OFFCURVE",
"132 202 OFFCURVE",
"118 185 CURVE",
"117 185 LINE",
"98 149 OFFCURVE",
"73 103 OFFCURVE",
"61 78 CURVE SMOOTH",
"40 36 OFFCURVE",
"33 -8 OFFCURVE",
"32 -21 CURVE SMOOTH",
"32 -32 OFFCURVE",
"36 -39 OFFCURVE",
"43 -39 CURVE SMOOTH",
"53 -39 OFFCURVE",
"67 -25 OFFCURVE",
"77 18 CURVE SMOOTH",
"89 67 OFFCURVE",
"113 92 OFFCURVE",
"117 103 CURVE SMOOTH",
"121 117 OFFCURVE",
"137 129 OFFCURVE",
"146 150 CURVE SMOOTH",
"151 160 OFFCURVE",
"170 185 OFFCURVE",
"182 205 CURVE",
"201 192 LINE SMOOTH",
"229 173 OFFCURVE",
"250 156 OFFCURVE",
"257 148 CURVE SMOOTH",
"270 134 OFFCURVE",
"345 61 OFFCURVE",
"387 31 CURVE SMOOTH",
"430 0 OFFCURVE",
"522 -60 OFFCURVE",
"547 -61 CURVE"
);
}
);
width = 603;
}
);
note = K;
unicode = 004B;
},
{
glyphname = L;
lastChange = "2021-11-09 21:29:53 +0000";
layers = (
{
anchors = (
{
name = bottom;
position = "{230, 0}";
},
{
name = center;
position = "{230, 320}";
},
{
name = top;
position = "{436, 640}";
},
{
name = topright;
position = "{540, 640}";
}
);
background = {
paths = (
{
closed = 1;
nodes = (
"-1 -30 LINE",
"-1 -30 OFFCURVE",
"66 -20 OFFCURVE",
"79 -20 CURVE SMOOTH",
"88 -19 OFFCURVE",
"93 -10 OFFCURVE",
"100 -7 CURVE",
"101 -7 LINE",
"100 -7 OFFCURVE",
"121 4 OFFCURVE",
"124 5 CURVE SMOOTH",
"171 20 OFFCURVE",
"221 27 OFFCURVE",
"270 32 CURVE SMOOTH",
"287 34 OFFCURVE",
"298 34 OFFCURVE",
"306 34 CURVE SMOOTH",
"322 34 OFFCURVE",
"326 32 OFFCURVE",
"337 32 CURVE SMOOTH",
"341 32 OFFCURVE",
"345 32 OFFCURVE",
"350 33 CURVE",
"352 34 OFFCURVE",
"365 21 OFFCURVE",
"382 16 CURVE SMOOTH",
"403 9 OFFCURVE",
"386 -16 OFFCURVE",
"409 -12 CURVE",
"436 -4 OFFCURVE",
"447 21 OFFCURVE",
"447 38 CURVE SMOOTH",
"447 43 OFFCURVE",
"445 48 OFFCURVE",
"443 51 CURVE SMOOTH",
"439 56 OFFCURVE",
"429 62 OFFCURVE",
"417 66 CURVE",
"412 65 OFFCURVE",
"405 65 OFFCURVE",
"399 65 CURVE SMOOTH",
"395 65 OFFCURVE",
"393 71 OFFCURVE",
"384 71 CURVE SMOOTH",
"382 71 LINE",
"382 71 OFFCURVE",
"330 72 OFFCURVE",
"304 69 CURVE SMOOTH",
"252 64 OFFCURVE",
"190 51 OFFCURVE",
"119 44 CURVE SMOOTH",
"111 43 OFFCURVE",
"76 49 OFFCURVE",
"68 50 CURVE",
"82 73 OFFCURVE",
"93 95 OFFCURVE",
"93 95 CURVE",
"97 109 OFFCURVE",
"103 112 OFFCURVE",
"113 133 CURVE SMOOTH",
"118 145 OFFCURVE",
"215 284 OFFCURVE",
"276 370 CURVE",
"285 377 OFFCURVE",
"296 383 OFFCURVE",
"305 393 CURVE SMOOTH",
"317 408 OFFCURVE",
"365 475 OFFCURVE",
"382 497 CURVE SMOOTH",
"393 512 OFFCURVE",
"424 543 OFFCURVE",
"440 557 CURVE SMOOTH",
"453 569 OFFCURVE",
"474 579 OFFCURVE",
"474 597 CURVE SMOOTH",
"474 604 OFFCURVE",
"471 612 OFFCURVE",
"463 622 CURVE",
"460 634 OFFCURVE",
"450 642 OFFCURVE",
"436 642 CURVE SMOOTH",
"428 642 OFFCURVE",
"419 640 OFFCURVE",
"410 635 CURVE",
"411 635 LINE SMOOTH",
"407 635 OFFCURVE",
"395 630 OFFCURVE",
"389 622 CURVE",
"378 611 OFFCURVE",
"351 567 OFFCURVE",
"350 566 CURVE",
"346 558 OFFCURVE",
"299 490 OFFCURVE",
"292 480 CURVE",
"265 450 OFFCURVE",
"276 450 OFFCURVE",
"254 418 CURVE",
"254 417 OFFCURVE",
"237 399 OFFCURVE",
"235 392 CURVE",
"235 393 OFFCURVE",
"113 222 OFFCURVE",
"112 221 CURVE SMOOTH",
"96 197 OFFCURVE",
"82 165 OFFCURVE",
"61 137 CURVE",
"60 137 LINE",
"54 123 OFFCURVE",
"36 86 OFFCURVE",
"23 52 CURVE",
"-2 43 OFFCURVE",
"-15 13 OFFCURVE",
"-15 -6 CURVE SMOOTH",
"-15 -12 OFFCURVE",
"-14 -17 OFFCURVE",
"-11 -20 CURVE SMOOTH",
"-9 -23 OFFCURVE",
"-6 -25 OFFCURVE",
"-3 -30 CURVE"
);
}
);
};
layerId = "960B82ED-BAE9-407E-815C-F6C3A86A2215";
paths = (
{
closed = 1;
nodes = (
"-1 -22 LINE",
"-1 -22 OFFCURVE",
"66 -12 OFFCURVE",
"79 -12 CURVE SMOOTH",
"88 -11 OFFCURVE",
"93 -2 OFFCURVE",
"100 1 CURVE",
"101 1 LINE",
"100 1 OFFCURVE",
"121 12 OFFCURVE",
"124 13 CURVE SMOOTH",
"171 28 OFFCURVE",
"221 35 OFFCURVE",
"270 40 CURVE SMOOTH",
"287 42 OFFCURVE",
"298 42 OFFCURVE",
"306 42 CURVE SMOOTH",
"322 42 OFFCURVE",
"326 40 OFFCURVE",
"337 40 CURVE SMOOTH",
"341 40 OFFCURVE",
"345 40 OFFCURVE",
"350 41 CURVE",
"352 42 OFFCURVE",
"365 29 OFFCURVE",
"382 24 CURVE SMOOTH",
"403 17 OFFCURVE",
"386 -8 OFFCURVE",
"409 -4 CURVE",
"436 4 OFFCURVE",
"447 29 OFFCURVE",
"447 46 CURVE SMOOTH",
"447 51 OFFCURVE",
"445 56 OFFCURVE",
"443 59 CURVE SMOOTH",
"439 64 OFFCURVE",
"429 70 OFFCURVE",
"417 74 CURVE",
"412 73 OFFCURVE",
"405 73 OFFCURVE",
"399 73 CURVE SMOOTH",
"395 73 OFFCURVE",
"393 79 OFFCURVE",
"384 79 CURVE SMOOTH",
"382 79 LINE",
"382 79 OFFCURVE",
"330 80 OFFCURVE",
"304 77 CURVE SMOOTH",
"252 72 OFFCURVE",
"190 59 OFFCURVE",
"119 52 CURVE SMOOTH",
"111 51 OFFCURVE",
"76 57 OFFCURVE",
"68 58 CURVE",
"82 81 OFFCURVE",
"93 103 OFFCURVE",
"93 103 CURVE",
"97 117 OFFCURVE",
"103 120 OFFCURVE",
"113 141 CURVE SMOOTH",
"118 153 OFFCURVE",
"215 292 OFFCURVE",
"276 378 CURVE",
"285 385 OFFCURVE",
"296 391 OFFCURVE",
"305 401 CURVE SMOOTH",
"317 416 OFFCURVE",
"365 483 OFFCURVE",
"382 505 CURVE SMOOTH",
"393 520 OFFCURVE",
"424 551 OFFCURVE",
"440 565 CURVE SMOOTH",
"453 577 OFFCURVE",
"474 587 OFFCURVE",
"474 605 CURVE SMOOTH",
"474 612 OFFCURVE",
"471 620 OFFCURVE",
"463 630 CURVE",
"460 642 OFFCURVE",
"450 650 OFFCURVE",
"436 650 CURVE SMOOTH",
"428 650 OFFCURVE",
"419 648 OFFCURVE",
"410 643 CURVE",
"411 643 LINE SMOOTH",
"415 643 OFFCURVE",
"395 638 OFFCURVE",
"389 630 CURVE",
"378 619 OFFCURVE",
"351 575 OFFCURVE",
"350 574 CURVE",
"346 566 OFFCURVE",
"299 498 OFFCURVE",
"292 488 CURVE",
"265 458 OFFCURVE",
"276 458 OFFCURVE",
"254 426 CURVE",
"254 425 OFFCURVE",
"237 407 OFFCURVE",
"235 400 CURVE",
"235 401 OFFCURVE",
"113 230 OFFCURVE",
"112 229 CURVE SMOOTH",
"96 205 OFFCURVE",
"82 173 OFFCURVE",
"61 145 CURVE",
"60 145 LINE",
"54 131 OFFCURVE",
"36 94 OFFCURVE",
"23 60 CURVE",
"-2 51 OFFCURVE",
"-15 21 OFFCURVE",
"-15 2 CURVE SMOOTH",
"-15 -4 OFFCURVE",
"-14 -9 OFFCURVE",
"-11 -12 CURVE SMOOTH",
"-9 -15 OFFCURVE",
"-6 -17 OFFCURVE",
"-3 -22 CURVE"
);
}
);
width = 459;
}
);
note = L;
unicode = 004C;
},
{
glyphname = M;
lastChange = "2021-11-09 20:24:30 +0000";
layers = (
{
background = {
paths = (
{
closed = 1;
nodes = (
"14 -137 OFFCURVE",
"22 -132 OFFCURVE",
"23 -118 CURVE SMOOTH",
"23 -119 LINE SMOOTH",
"25 -109 OFFCURVE",
"23 -80 OFFCURVE",
"27 -68 CURVE SMOOTH",
"28 -64 OFFCURVE",
"28 -60 OFFCURVE",
"28 -56 CURVE SMOOTH",
"28 -44 OFFCURVE",
"26 -34 OFFCURVE",
"34 -23 CURVE",
"61 22 OFFCURVE",
"83 69 OFFCURVE",
"183 181 CURVE SMOOTH",
"223 225 LINE SMOOTH",
"236 239 OFFCURVE",
"283 295 OFFCURVE",
"297 309 CURVE SMOOTH",
"309 321 OFFCURVE",
"324 330 OFFCURVE",
"336 342 CURVE SMOOTH",
"422 428 OFFCURVE",
"481 468 OFFCURVE",
"498 478 CURVE",
"501 474 OFFCURVE",
"483 388 OFFCURVE",
"479 382 CURVE SMOOTH",
"468 363 OFFCURVE",
"453 301 OFFCURVE",
"452 281 CURVE SMOOTH",
"451 270 OFFCURVE",
"451 263 OFFCURVE",
"451 260 CURVE SMOOTH",
"451 246 OFFCURVE",
"453 265 OFFCURVE",
"432 180 CURVE SMOOTH",
"431 175 OFFCURVE",
"430 165 OFFCURVE",
"430 153 CURVE SMOOTH",
"430 133 OFFCURVE",
"433 108 OFFCURVE",
"441 98 CURVE",
"446 94 OFFCURVE",
"452 93 OFFCURVE",
"459 93 CURVE SMOOTH",
"473 93 OFFCURVE",
"489 98 OFFCURVE",
"495 101 CURVE SMOOTH",
"507 108 OFFCURVE",
"521 119 OFFCURVE",
"532 126 CURVE",
"532 125 LINE",
"541 132 OFFCURVE",
"551 147 OFFCURVE",
"560 154 CURVE SMOOTH",
"648 221 OFFCURVE",
"622 210 OFFCURVE",
"845 422 CURVE",
"846 424 LINE",
"850 428 LINE",
"832 400 OFFCURVE",
"835 391 OFFCURVE",
"787 320 CURVE SMOOTH",
"786 319 LINE",
"782 312 OFFCURVE",
"775 287 OFFCURVE",
"775 287 CURVE",
"737 228 OFFCURVE",
"730 168 OFFCURVE",
"698 101 CURVE SMOOTH",
"688 80 OFFCURVE",
"687 44 OFFCURVE",
"681 25 CURVE SMOOTH",
"678 15 OFFCURVE",
"685 8 OFFCURVE",
"685 2 CURVE SMOOTH",
"685 1 OFFCURVE",
"685 0 OFFCURVE",
"684 -1 CURVE",
"682 -7 OFFCURVE",
"681 -11 OFFCURVE",
"681 -16 CURVE SMOOTH",
"681 -24 OFFCURVE",
"684 -30 OFFCURVE",
"688 -39 CURVE",
"694 -48 OFFCURVE",
"700 -58 OFFCURVE",
"709 -58 CURVE SMOOTH",
"710 -58 OFFCURVE",
"712 -58 OFFCURVE",
"714 -57 CURVE SMOOTH",
"725 -50 OFFCURVE",
"729 -41 OFFCURVE",
"729 -33 CURVE SMOOTH",
"729 -24 OFFCURVE",
"725 -16 OFFCURVE",
"721 -11 CURVE",
"718 -9 OFFCURVE",
"726 12 OFFCURVE",
"728 25 CURVE SMOOTH",
"733 63 OFFCURVE",
"781 190 OFFCURVE",
"844 300 CURVE SMOOTH",
"890 380 OFFCURVE",
"942 461 OFFCURVE",
"1011 541 CURVE SMOOTH",
"1016 548 OFFCURVE",
"1034 554 OFFCURVE",
"1041 564 CURVE SMOOTH",
"1050 574 OFFCURVE",
"1065 580 OFFCURVE",
"1073 590 CURVE SMOOTH",
"1079 596 OFFCURVE",
"1081 602 OFFCURVE",
"1081 608 CURVE SMOOTH",
"1081 628 OFFCURVE",
"1052 644 OFFCURVE",
"1028 644 CURVE SMOOTH",
"1020 644 OFFCURVE",
"1012 642 OFFCURVE",
"1007 638 CURVE SMOOTH",
"1001 633 OFFCURVE",
"989 631 OFFCURVE",
"984 627 CURVE SMOOTH",
"977 620 OFFCURVE",
"981 614 OFFCURVE",
"978 609 CURVE SMOOTH",
"973 603 OFFCURVE",
"968 592 OFFCURVE",
"963 588 CURVE SMOOTH",
"900 534 OFFCURVE",
"856 475 OFFCURVE",
"801 421 CURVE SMOOTH",
"796 417 OFFCURVE",
"792 407 OFFCURVE",
"789 404 CURVE SMOOTH",
"783 398 OFFCURVE",
"777 398 OFFCURVE",
"768 390 CURVE SMOOTH",
"630 258 OFFCURVE",
"574 184 OFFCURVE",
"503 150 CURVE",
"503 146 OFFCURVE",
"494 166 OFFCURVE",
"493 170 CURVE SMOOTH",
"491 175 OFFCURVE",
"489 176 OFFCURVE",
"489 181 CURVE SMOOTH",
"489 184 OFFCURVE",
"490 189 OFFCURVE",
"492 199 CURVE SMOOTH",
"511 282 OFFCURVE",
"542 471 OFFCURVE",
"607 556 CURVE SMOOTH",
"615 567 OFFCURVE",
"619 574 OFFCURVE",
"619 579 CURVE SMOOTH",
"619 587 OFFCURVE",
"609 588 OFFCURVE",
"596 589 CURVE SMOOTH",
"591 590 OFFCURVE",
"586 591 OFFCURVE",
"581 591 CURVE SMOOTH",
"518 591 OFFCURVE",
"452 514 OFFCURVE",
"372 444 CURVE SMOOTH",
"365 438 OFFCURVE",
"364 435 OFFCURVE",
"364 433 CURVE SMOOTH",
"364 432 LINE SMOOTH",
"364 430 OFFCURVE",
"364 428 OFFCURVE",
"357 423 CURVE",
"345 411 OFFCURVE",
"325 404 OFFCURVE",
"313 392 CURVE SMOOTH",
"197 279 OFFCURVE",
"87 142 OFFCURVE",
"22 16 CURVE SMOOTH",
"-9 -44 OFFCURVE",
"-21 -77 OFFCURVE",
"-21 -98 CURVE SMOOTH",
"-21 -114 OFFCURVE",
"-14 -124 OFFCURVE",
"-4 -133 CURVE SMOOTH",
"-2 -135 OFFCURVE",
"2 -137 OFFCURVE",
"6 -137 CURVE SMOOTH"
);
}
);
};
layerId = "960B82ED-BAE9-407E-815C-F6C3A86A2215";
paths = (
{
closed = 1;
nodes = (
"14 -129 OFFCURVE",
"22 -124 OFFCURVE",
"23 -110 CURVE SMOOTH",
"23 -111 LINE SMOOTH",
"25 -101 OFFCURVE",
"23 -72 OFFCURVE",
"27 -60 CURVE SMOOTH",
"28 -56 OFFCURVE",
"28 -52 OFFCURVE",
"28 -48 CURVE SMOOTH",
"28 -36 OFFCURVE",
"26 -26 OFFCURVE",
"34 -15 CURVE",
"61 30 OFFCURVE",
"83 77 OFFCURVE",
"183 189 CURVE SMOOTH",
"223 233 LINE SMOOTH",
"236 247 OFFCURVE",
"283 303 OFFCURVE",
"297 317 CURVE SMOOTH",
"309 329 OFFCURVE",
"324 338 OFFCURVE",
"336 350 CURVE SMOOTH",
"422 436 OFFCURVE",
"481 476 OFFCURVE",
"498 486 CURVE",
"501 482 OFFCURVE",
"483 396 OFFCURVE",
"479 390 CURVE SMOOTH",
"468 371 OFFCURVE",
"453 309 OFFCURVE",
"452 289 CURVE SMOOTH",
"451 278 OFFCURVE",
"451 271 OFFCURVE",
"451 268 CURVE SMOOTH",
"451 254 OFFCURVE",
"453 273 OFFCURVE",
"432 188 CURVE SMOOTH",
"431 183 OFFCURVE",
"430 173 OFFCURVE",
"430 161 CURVE SMOOTH",
"430 141 OFFCURVE",
"433 116 OFFCURVE",
"441 106 CURVE",
"446 102 OFFCURVE",
"452 101 OFFCURVE",
"459 101 CURVE SMOOTH",
"473 101 OFFCURVE",
"489 106 OFFCURVE",
"495 109 CURVE SMOOTH",
"507 116 OFFCURVE",
"521 127 OFFCURVE",
"532 134 CURVE",
"532 133 LINE",
"541 140 OFFCURVE",
"551 155 OFFCURVE",
"560 162 CURVE SMOOTH",
"648 229 OFFCURVE",
"622 218 OFFCURVE",
"845 430 CURVE",
"846 432 LINE",
"850 436 LINE",
"832 408 OFFCURVE",
"835 399 OFFCURVE",
"787 328 CURVE SMOOTH",
"786 327 LINE",
"782 320 OFFCURVE",
"775 295 OFFCURVE",
"775 295 CURVE",
"737 236 OFFCURVE",
"730 176 OFFCURVE",
"698 109 CURVE SMOOTH",
"688 88 OFFCURVE",
"687 52 OFFCURVE",
"681 33 CURVE SMOOTH",
"678 23 OFFCURVE",
"685 16 OFFCURVE",
"685 10 CURVE SMOOTH",
"685 9 OFFCURVE",
"685 8 OFFCURVE",
"684 7 CURVE",
"682 1 OFFCURVE",
"681 -3 OFFCURVE",
"681 -8 CURVE SMOOTH",
"681 -16 OFFCURVE",
"684 -22 OFFCURVE",
"688 -31 CURVE",
"694 -40 OFFCURVE",
"700 -50 OFFCURVE",
"709 -50 CURVE SMOOTH",
"710 -50 OFFCURVE",
"712 -50 OFFCURVE",
"714 -49 CURVE SMOOTH",
"725 -42 OFFCURVE",
"729 -33 OFFCURVE",
"729 -25 CURVE SMOOTH",
"729 -16 OFFCURVE",
"725 -8 OFFCURVE",
"721 -3 CURVE",
"718 -1 OFFCURVE",
"726 20 OFFCURVE",
"728 33 CURVE SMOOTH",
"733 71 OFFCURVE",
"781 198 OFFCURVE",
"844 308 CURVE SMOOTH",
"890 388 OFFCURVE",
"942 469 OFFCURVE",
"1011 549 CURVE SMOOTH",
"1016 556 OFFCURVE",
"1034 562 OFFCURVE",
"1041 572 CURVE SMOOTH",
"1050 582 OFFCURVE",
"1065 588 OFFCURVE",
"1073 598 CURVE SMOOTH",
"1079 604 OFFCURVE",
"1081 610 OFFCURVE",
"1081 616 CURVE SMOOTH",
"1081 636 OFFCURVE",
"1052 652 OFFCURVE",
"1028 652 CURVE SMOOTH",
"1020 652 OFFCURVE",
"1012 650 OFFCURVE",
"1007 646 CURVE SMOOTH",
"1001 641 OFFCURVE",
"989 639 OFFCURVE",
"984 635 CURVE SMOOTH",
"977 628 OFFCURVE",
"981 622 OFFCURVE",
"978 617 CURVE SMOOTH",
"973 611 OFFCURVE",
"968 600 OFFCURVE",
"963 596 CURVE SMOOTH",
"900 542 OFFCURVE",
"856 483 OFFCURVE",
"801 429 CURVE SMOOTH",
"796 425 OFFCURVE",
"792 415 OFFCURVE",
"789 412 CURVE SMOOTH",
"783 406 OFFCURVE",
"777 406 OFFCURVE",
"768 398 CURVE SMOOTH",
"630 266 OFFCURVE",
"574 192 OFFCURVE",
"503 158 CURVE",
"503 154 OFFCURVE",
"494 174 OFFCURVE",
"493 178 CURVE SMOOTH",
"491 183 OFFCURVE",
"489 184 OFFCURVE",
"489 189 CURVE SMOOTH",
"489 192 OFFCURVE",
"490 197 OFFCURVE",
"492 207 CURVE SMOOTH",
"511 290 OFFCURVE",
"542 479 OFFCURVE",
"607 564 CURVE SMOOTH",
"615 575 OFFCURVE",
"619 582 OFFCURVE",
"619 587 CURVE SMOOTH",
"619 595 OFFCURVE",
"609 596 OFFCURVE",
"596 597 CURVE SMOOTH",
"591 598 OFFCURVE",
"586 599 OFFCURVE",
"581 599 CURVE SMOOTH",
"518 599 OFFCURVE",
"452 522 OFFCURVE",
"372 452 CURVE SMOOTH",
"365 446 OFFCURVE",
"364 443 OFFCURVE",
"364 441 CURVE SMOOTH",
"364 440 LINE SMOOTH",
"364 438 OFFCURVE",
"364 436 OFFCURVE",
"357 431 CURVE",
"345 419 OFFCURVE",
"325 412 OFFCURVE",
"313 400 CURVE SMOOTH",
"197 287 OFFCURVE",
"87 150 OFFCURVE",
"22 24 CURVE SMOOTH",
"-9 -36 OFFCURVE",
"-21 -69 OFFCURVE",
"-21 -90 CURVE SMOOTH",
"-21 -106 OFFCURVE",
"-14 -116 OFFCURVE",
"-4 -125 CURVE SMOOTH",
"-2 -127 OFFCURVE",
"2 -129 OFFCURVE",
"6 -129 CURVE SMOOTH"
);
}
);
width = 868;
}
);
note = M;
unicode = 004D;
},
{
glyphname = N;
lastChange = "2021-11-09 21:29:53 +0000";
layers = (
{
anchors = (
{
name = bottom;
position = "{203, 0}";
},
{
name = top;
position = "{691, 640}";
}
);
background = {
paths = (
{
closed = 1;
nodes = (
"42 -90 OFFCURVE",
"49 -86 OFFCURVE",
"49 -73 CURVE SMOOTH",
"49 -71 LINE SMOOTH",
"49 -61 OFFCURVE",
"42 -32 OFFCURVE",
"44 -20 CURVE SMOOTH",
"45 -7 OFFCURVE",
"39 3 OFFCURVE",
"39 14 CURVE SMOOTH",
"39 18 OFFCURVE",
"40 21 OFFCURVE",
"42 25 CURVE SMOOTH",
"98 146 OFFCURVE",
"89 108 OFFCURVE",
"171 213 CURVE SMOOTH",
"180 225 OFFCURVE",
"195 234 OFFCURVE",
"203 246 CURVE",
"275 332 OFFCURVE",
"343 395 OFFCURVE",
"359 404 CURVE",
"361 402 OFFCURVE",
"366 395 OFFCURVE",
"366 389 CURVE SMOOTH",
"366 387 OFFCURVE",
"366 386 OFFCURVE",
"365 385 CURVE",
"357 366 OFFCURVE",
"348 236 OFFCURVE",
"350 215 CURVE SMOOTH",
"353 193 OFFCURVE",
"354 185 OFFCURVE",
"354 175 CURVE SMOOTH",
"354 162 OFFCURVE",
"352 144 OFFCURVE",
"347 82 CURVE SMOOTH",
"346 68 OFFCURVE",
"355 16 OFFCURVE",
"370 1 CURVE",
"374 -2 OFFCURVE",
"380 -4 OFFCURVE",
"387 -4 CURVE SMOOTH",
"404 -4 OFFCURVE",
"423 4 OFFCURVE",
"423 4 CURVE",
"426 6 OFFCURVE",
"429 6 OFFCURVE",
"432 6 CURVE SMOOTH",
"441 6 OFFCURVE",
"449 2 OFFCURVE",
"456 7 CURVE SMOOTH",
"465 13 OFFCURVE",
"500 74 OFFCURVE",
"504 83 CURVE SMOOTH",
"531 141 OFFCURVE",
"507 166 OFFCURVE",
"691 378 CURVE",
"727 429 LINE",
"726 426 OFFCURVE",
"805 507 OFFCURVE",
"840 550 CURVE SMOOTH",
"846 557 OFFCURVE",
"872 576 OFFCURVE",
"879 586 CURVE",
"884 597 OFFCURVE",
"897 603 OFFCURVE",
"904 612 CURVE SMOOTH",
"909 618 OFFCURVE",
"911 624 OFFCURVE",
"911 629 CURVE SMOOTH",
"911 644 OFFCURVE",
"894 652 OFFCURVE",
"878 652 CURVE SMOOTH",
"868 652 OFFCURVE",
"858 649 OFFCURVE",
"851 643 CURVE SMOOTH",
"834 627 OFFCURVE",
"837 629 OFFCURVE",
"826 614 CURVE",
"842 630 OFFCURVE",
"801 575 OFFCURVE",
"785 559 CURVE SMOOTH",
"726 499 OFFCURVE",
"677 410 OFFCURVE",
"621 346 CURVE SMOOTH",
"504 213 OFFCURVE",
"423 53 OFFCURVE",
"423 53 CURVE",
"424 50 OFFCURVE",
"411 69 OFFCURVE",
"410 74 CURVE",
"409 74 LINE",
"404 80 OFFCURVE",
"403 80 OFFCURVE",
"403 91 CURVE SMOOTH",
"403 103 LINE SMOOTH",
"408 185 OFFCURVE",
"405 398 OFFCURVE",
"455 484 CURVE SMOOTH",
"460 494 OFFCURVE",
"463 500 OFFCURVE",
"463 505 CURVE SMOOTH",
"463 514 OFFCURVE",
"452 515 OFFCURVE",
"438 516 CURVE SMOOTH",
"433 517 OFFCURVE",
"428 518 OFFCURVE",
"423 518 CURVE SMOOTH",
"360 518 OFFCURVE",
"308 440 OFFCURVE",
"240 370 CURVE SMOOTH",
"235 364 OFFCURVE",
"234 362 OFFCURVE",
"234 360 CURVE SMOOTH",
"234 357 LINE SMOOTH",
"234 356 OFFCURVE",
"233 354 OFFCURVE",
"229 350 CURVE SMOOTH",
"218 337 OFFCURVE",
"183 308 OFFCURVE",
"173 296 CURVE SMOOTH",
"77 183 OFFCURVE",
"76 178 OFFCURVE",
"25 63 CURVE SMOOTH",
"5 18 OFFCURVE",
"-3 -13 OFFCURVE",
"-3 -34 CURVE SMOOTH",
"-3 -61 OFFCURVE",
"9 -74 OFFCURVE",
"25 -86 CURVE SMOOTH",
"27 -88 OFFCURVE",
"31 -90 OFFCURVE",
"35 -90 CURVE SMOOTH"
);
}
);
};
layerId = "960B82ED-BAE9-407E-815C-F6C3A86A2215";
paths = (
{
closed = 1;
nodes = (
"42 -82 OFFCURVE",
"49 -78 OFFCURVE",
"49 -65 CURVE SMOOTH",
"49 -63 LINE SMOOTH",
"49 -53 OFFCURVE",
"42 -24 OFFCURVE",
"44 -12 CURVE SMOOTH",
"45 1 OFFCURVE",
"39 11 OFFCURVE",
"39 22 CURVE SMOOTH",
"39 26 OFFCURVE",
"40 29 OFFCURVE",
"42 33 CURVE SMOOTH",
"98 154 OFFCURVE",
"89 116 OFFCURVE",
"171 221 CURVE SMOOTH",
"180 233 OFFCURVE",
"195 242 OFFCURVE",
"203 254 CURVE",
"275 340 OFFCURVE",
"343 403 OFFCURVE",
"359 412 CURVE",
"361 410 OFFCURVE",
"366 403 OFFCURVE",
"366 397 CURVE SMOOTH",
"366 395 OFFCURVE",
"366 394 OFFCURVE",
"365 393 CURVE",
"357 374 OFFCURVE",
"348 244 OFFCURVE",
"350 223 CURVE SMOOTH",
"353 201 OFFCURVE",
"354 193 OFFCURVE",
"354 183 CURVE SMOOTH",
"354 170 OFFCURVE",
"352 152 OFFCURVE",
"347 90 CURVE SMOOTH",
"346 76 OFFCURVE",
"355 24 OFFCURVE",
"370 9 CURVE",
"374 6 OFFCURVE",
"380 4 OFFCURVE",
"387 4 CURVE SMOOTH",
"404 4 OFFCURVE",
"423 12 OFFCURVE",
"423 12 CURVE",
"426 14 OFFCURVE",
"429 14 OFFCURVE",
"432 14 CURVE SMOOTH",
"438 14 OFFCURVE",
"443 12 OFFCURVE",
"447 12 CURVE SMOOTH",
"450 12 OFFCURVE",
"453 13 OFFCURVE",
"456 15 CURVE SMOOTH",
"465 21 OFFCURVE",
"500 82 OFFCURVE",
"504 91 CURVE SMOOTH",
"531 149 OFFCURVE",
"507 174 OFFCURVE",
"691 386 CURVE",
"727 437 LINE",
"726 434 OFFCURVE",
"805 515 OFFCURVE",
"840 558 CURVE SMOOTH",
"846 565 OFFCURVE",
"872 584 OFFCURVE",
"879 594 CURVE",
"884 605 OFFCURVE",
"897 611 OFFCURVE",
"904 620 CURVE SMOOTH",
"909 626 OFFCURVE",
"911 632 OFFCURVE",
"911 637 CURVE SMOOTH",
"911 652 OFFCURVE",
"894 660 OFFCURVE",
"878 660 CURVE SMOOTH",
"868 660 OFFCURVE",
"858 657 OFFCURVE",
"851 651 CURVE SMOOTH",
"834 635 OFFCURVE",
"837 637 OFFCURVE",
"826 622 CURVE",
"842 638 OFFCURVE",
"801 583 OFFCURVE",
"785 567 CURVE SMOOTH",
"726 507 OFFCURVE",
"677 418 OFFCURVE",
"621 354 CURVE SMOOTH",
"504 221 OFFCURVE",
"423 61 OFFCURVE",
"423 61 CURVE",
"424 58 OFFCURVE",
"411 77 OFFCURVE",
"410 82 CURVE",
"409 82 LINE",
"404 88 OFFCURVE",
"403 88 OFFCURVE",
"403 99 CURVE SMOOTH",
"403 111 LINE SMOOTH",
"403 193 OFFCURVE",
"405 406 OFFCURVE",
"455 492 CURVE SMOOTH",
"460 502 OFFCURVE",
"463 508 OFFCURVE",
"463 513 CURVE SMOOTH",
"463 522 OFFCURVE",
"452 523 OFFCURVE",
"438 524 CURVE SMOOTH",
"433 525 OFFCURVE",
"428 526 OFFCURVE",
"423 526 CURVE SMOOTH",
"360 526 OFFCURVE",
"308 448 OFFCURVE",
"240 378 CURVE SMOOTH",
"235 372 OFFCURVE",
"234 370 OFFCURVE",
"234 368 CURVE SMOOTH",
"234 365 LINE SMOOTH",
"234 364 OFFCURVE",
"233 362 OFFCURVE",
"229 358 CURVE SMOOTH",
"218 345 OFFCURVE",
"183 316 OFFCURVE",
"173 304 CURVE SMOOTH",
"77 191 OFFCURVE",
"76 186 OFFCURVE",
"25 71 CURVE SMOOTH",
"5 26 OFFCURVE",
"-3 -5 OFFCURVE",
"-3 -26 CURVE SMOOTH",
"-3 -53 OFFCURVE",
"9 -66 OFFCURVE",
"25 -78 CURVE SMOOTH",
"27 -80 OFFCURVE",
"31 -82 OFFCURVE",
"35 -82 CURVE SMOOTH"
);
}
);
width = 595;
}
);
note = N;
unicode = 004E;
},
{
glyphname = Eng;
lastChange = "2021-11-09 21:29:53 +0000";
layers = (
{
background = {
paths = (
{
closed = 1;
nodes = (
"42 -90 OFFCURVE",
"49 -86 OFFCURVE",
"49 -73 CURVE SMOOTH",
"49 -71 LINE SMOOTH",
"49 -61 OFFCURVE",
"42 -32 OFFCURVE",
"44 -20 CURVE SMOOTH",
"45 -7 OFFCURVE",
"39 3 OFFCURVE",
"39 14 CURVE SMOOTH",
"39 18 OFFCURVE",
"40 21 OFFCURVE",
"42 25 CURVE SMOOTH",
"98 146 OFFCURVE",
"89 108 OFFCURVE",
"171 213 CURVE SMOOTH",
"180 225 OFFCURVE",
"195 234 OFFCURVE",
"203 246 CURVE",
"275 332 OFFCURVE",
"343 395 OFFCURVE",
"359 404 CURVE",
"361 402 OFFCURVE",
"366 395 OFFCURVE",
"366 389 CURVE SMOOTH",
"366 387 OFFCURVE",
"366 386 OFFCURVE",
"365 385 CURVE",
"357 366 OFFCURVE",
"348 236 OFFCURVE",
"350 215 CURVE SMOOTH",
"353 193 OFFCURVE",
"354 185 OFFCURVE",
"354 175 CURVE SMOOTH",
"354 162 OFFCURVE",
"352 144 OFFCURVE",
"347 82 CURVE SMOOTH",
"346 68 OFFCURVE",
"355 16 OFFCURVE",
"370 1 CURVE",
"374 -2 OFFCURVE",
"380 -4 OFFCURVE",
"387 -4 CURVE SMOOTH",
"404 -4 OFFCURVE",
"423 4 OFFCURVE",
"423 4 CURVE",
"426 6 OFFCURVE",
"429 6 OFFCURVE",
"432 6 CURVE SMOOTH",
"441 6 OFFCURVE",
"449 2 OFFCURVE",
"456 7 CURVE SMOOTH",
"465 13 OFFCURVE",
"482 62 OFFCURVE",
"487 71 CURVE SMOOTH",
"521 135 OFFCURVE",
"645 326 OFFCURVE",
"691 378 CURVE",
"727 429 LINE",
"840 550 LINE",
"860 575 OFFCURVE",
"889 597 OFFCURVE",
"904 612 CURVE",
"908 618 OFFCURVE",
"910 623 OFFCURVE",
"910 627 CURVE SMOOTH",
"910 643 OFFCURVE",
"888 652 OFFCURVE",
"868 652 CURVE SMOOTH",
"857 652 OFFCURVE",
"846 649 OFFCURVE",
"839 643 CURVE SMOOTH",
"806 612 OFFCURVE",
"800 574 OFFCURVE",
"765 533 CURVE SMOOTH",
"706 463 OFFCURVE",
"675 427 OFFCURVE",
"621 358 CURVE SMOOTH",
"504 207 OFFCURVE",
"433 61 OFFCURVE",
"423 53 CURVE",
"414 52 OFFCURVE",
"402 73 OFFCURVE",
"403 103 CURVE SMOOTH",
"408 185 OFFCURVE",
"405 398 OFFCURVE",
"455 484 CURVE SMOOTH",
"460 494 OFFCURVE",
"463 500 OFFCURVE",
"463 505 CURVE SMOOTH",
"463 514 OFFCURVE",
"452 515 OFFCURVE",
"438 516 CURVE SMOOTH",
"433 517 OFFCURVE",
"428 518 OFFCURVE",
"423 518 CURVE SMOOTH",
"360 518 OFFCURVE",
"308 440 OFFCURVE",
"240 370 CURVE SMOOTH",
"235 364 OFFCURVE",
"234 362 OFFCURVE",
"234 360 CURVE SMOOTH",
"234 357 LINE SMOOTH",
"234 356 OFFCURVE",
"233 354 OFFCURVE",
"229 350 CURVE SMOOTH",
"218 337 OFFCURVE",
"183 308 OFFCURVE",
"173 296 CURVE SMOOTH",
"77 183 OFFCURVE",
"76 178 OFFCURVE",
"25 63 CURVE SMOOTH",
"5 18 OFFCURVE",
"-3 -13 OFFCURVE",
"-3 -34 CURVE SMOOTH",
"-3 -61 OFFCURVE",
"9 -74 OFFCURVE",
"25 -86 CURVE SMOOTH",
"27 -88 OFFCURVE",
"31 -90 OFFCURVE",
"35 -90 CURVE SMOOTH"
);
},
{
closed = 1;
nodes = (
"204 -440 OFFCURVE",
"293 -278 OFFCURVE",
"355 -192 CURVE SMOOTH",
"387 -148 OFFCURVE",
"405 -104 OFFCURVE",
"421 -58 CURVE",
"437 -32 OFFCURVE",
"449 -21 OFFCURVE",
"456 7 CURVE",
"438 9 OFFCURVE",
"427 34 OFFCURVE",
"409 36 CURVE",
"409 29 OFFCURVE",
"397 17 OFFCURVE",
"398 11 CURVE",
"362 -56 OFFCURVE",
"341 -129 OFFCURVE",
"300 -186 CURVE SMOOTH",
"291 -199 OFFCURVE",
"286 -218 OFFCURVE",
"276 -234 CURVE SMOOTH",
"266 -249 OFFCURVE",
"251 -261 OFFCURVE",
"241 -277 CURVE SMOOTH",
"199 -344 OFFCURVE",
"151 -410 OFFCURVE",
"75 -410 CURVE SMOOTH",
"21 -410 OFFCURVE",
"27 -305 OFFCURVE",
"27 -265 CURVE SMOOTH",
"27 -249 OFFCURVE",
"29 -233 OFFCURVE",
"23 -233 CURVE SMOOTH",
"21 -233 OFFCURVE",
"17 -235 OFFCURVE",
"12 -240 CURVE",
"-9 -267 OFFCURVE",
"-7 -280 OFFCURVE",
"-14 -310 CURVE",
"-14 -358 OFFCURVE",
"8 -440 OFFCURVE",
"75 -440 CURVE SMOOTH"
);
}
);
};
layerId = "960B82ED-BAE9-407E-815C-F6C3A86A2215";
paths = (
{
closed = 1;
nodes = (
"42 -82 OFFCURVE",
"49 -78 OFFCURVE",
"49 -65 CURVE SMOOTH",
"49 -63 LINE SMOOTH",
"49 -53 OFFCURVE",
"42 -24 OFFCURVE",
"44 -12 CURVE SMOOTH",
"45 1 OFFCURVE",
"39 11 OFFCURVE",
"39 22 CURVE SMOOTH",
"39 26 OFFCURVE",
"40 29 OFFCURVE",
"42 33 CURVE SMOOTH",
"98 154 OFFCURVE",
"89 116 OFFCURVE",
"171 221 CURVE SMOOTH",
"180 233 OFFCURVE",
"195 242 OFFCURVE",
"203 254 CURVE",
"275 340 OFFCURVE",
"343 403 OFFCURVE",
"359 412 CURVE",
"361 410 OFFCURVE",
"366 403 OFFCURVE",
"366 397 CURVE SMOOTH",
"366 395 OFFCURVE",
"366 394 OFFCURVE",
"365 393 CURVE",
"357 374 OFFCURVE",
"348 244 OFFCURVE",
"350 223 CURVE SMOOTH",
"353 201 OFFCURVE",
"354 193 OFFCURVE",
"354 183 CURVE SMOOTH",
"354 170 OFFCURVE",
"352 152 OFFCURVE",
"347 90 CURVE SMOOTH",
"346 76 OFFCURVE",
"355 24 OFFCURVE",
"370 9 CURVE",
"374 6 OFFCURVE",
"380 4 OFFCURVE",
"387 4 CURVE SMOOTH",
"404 4 OFFCURVE",
"423 12 OFFCURVE",
"423 12 CURVE",
"426 14 OFFCURVE",
"429 14 OFFCURVE",
"432 14 CURVE SMOOTH",
"438 14 OFFCURVE",
"443 12 OFFCURVE",
"447 12 CURVE SMOOTH",
"450 12 OFFCURVE",
"453 13 OFFCURVE",
"456 15 CURVE SMOOTH",
"465 21 OFFCURVE",
"482 70 OFFCURVE",
"487 79 CURVE SMOOTH",
"521 143 OFFCURVE",
"645 334 OFFCURVE",
"691 386 CURVE",
"727 437 LINE",
"840 558 LINE",
"860 583 OFFCURVE",
"889 605 OFFCURVE",
"904 620 CURVE",
"908 626 OFFCURVE",
"910 631 OFFCURVE",
"910 635 CURVE SMOOTH",
"910 651 OFFCURVE",
"888 660 OFFCURVE",
"868 660 CURVE SMOOTH",
"857 660 OFFCURVE",
"846 657 OFFCURVE",
"839 651 CURVE SMOOTH",
"806 620 OFFCURVE",
"800 582 OFFCURVE",
"765 541 CURVE SMOOTH",
"706 471 OFFCURVE",
"675 435 OFFCURVE",
"621 366 CURVE SMOOTH",
"504 215 OFFCURVE",
"433 69 OFFCURVE",
"423 61 CURVE",
"414 60 OFFCURVE",
"402 81 OFFCURVE",
"403 111 CURVE SMOOTH",
"408 193 OFFCURVE",
"405 406 OFFCURVE",
"455 492 CURVE SMOOTH",
"460 502 OFFCURVE",
"463 508 OFFCURVE",
"463 513 CURVE SMOOTH",
"463 522 OFFCURVE",
"452 523 OFFCURVE",
"438 524 CURVE SMOOTH",
"433 525 OFFCURVE",
"428 526 OFFCURVE",
"423 526 CURVE SMOOTH",
"360 526 OFFCURVE",
"308 448 OFFCURVE",
"240 378 CURVE SMOOTH",
"235 372 OFFCURVE",
"234 370 OFFCURVE",
"234 368 CURVE SMOOTH",
"234 365 LINE SMOOTH",
"234 364 OFFCURVE",
"233 362 OFFCURVE",
"229 358 CURVE SMOOTH",
"218 345 OFFCURVE",
"183 316 OFFCURVE",
"173 304 CURVE SMOOTH",
"77 191 OFFCURVE",
"76 186 OFFCURVE",
"25 71 CURVE SMOOTH",
"5 26 OFFCURVE",
"-3 -5 OFFCURVE",
"-3 -26 CURVE SMOOTH",
"-3 -53 OFFCURVE",
"9 -66 OFFCURVE",
"25 -78 CURVE SMOOTH",
"27 -80 OFFCURVE",
"31 -82 OFFCURVE",
"35 -82 CURVE SMOOTH"
);
},
{
closed = 1;
nodes = (
"204 -432 OFFCURVE",
"293 -270 OFFCURVE",
"355 -184 CURVE SMOOTH",
"387 -140 OFFCURVE",
"405 -96 OFFCURVE",
"421 -50 CURVE",
"437 -24 OFFCURVE",
"449 -13 OFFCURVE",
"456 15 CURVE",
"438 17 OFFCURVE",
"427 42 OFFCURVE",
"409 44 CURVE",
"409 37 OFFCURVE",
"397 25 OFFCURVE",
"398 19 CURVE",
"362 -48 OFFCURVE",
"341 -121 OFFCURVE",
"300 -178 CURVE SMOOTH",
"291 -191 OFFCURVE",
"286 -210 OFFCURVE",
"276 -226 CURVE SMOOTH",
"266 -241 OFFCURVE",
"251 -253 OFFCURVE",
"241 -269 CURVE SMOOTH",
"199 -336 OFFCURVE",
"151 -402 OFFCURVE",
"75 -402 CURVE SMOOTH",
"21 -402 OFFCURVE",
"27 -297 OFFCURVE",
"27 -257 CURVE SMOOTH",
"27 -241 OFFCURVE",
"29 -225 OFFCURVE",
"23 -225 CURVE SMOOTH",
"21 -225 OFFCURVE",
"17 -227 OFFCURVE",
"12 -232 CURVE",
"-9 -259 OFFCURVE",
"-7 -272 OFFCURVE",
"-14 -302 CURVE",
"-14 -350 OFFCURVE",
"8 -432 OFFCURVE",
"75 -432 CURVE SMOOTH"
);
}
);
width = 595;
}
);
unicode = 014A;
},
{
glyphname = O;
lastChange = "2021-11-09 21:29:53 +0000";
layers = (
{
anchors = (
{
name = bottom;
position = "{203, 0}";
},
{
name = center;
position = "{347, 320}";
},
{
name = ogonek;
position = "{356, 0}";
},
{
name = top;
position = "{614, 631}";
},
{
name = topleft;
position = "{20, 640}";
},
{
name = topright;
position = "{689, 573}";
}
);
background = {
paths = (
{
closed = 1;
nodes = (
"303 -29 OFFCURVE",
"366 -11 OFFCURVE",
"388 -5 CURVE SMOOTH",
"406 0 OFFCURVE",
"420 14 OFFCURVE",
"437 20 CURVE",
"450 27 OFFCURVE",
"474 20 OFFCURVE",
"483 37 CURVE",
"485 43 OFFCURVE",
"484 39 OFFCURVE",
"494 41 CURVE",
"497 35 OFFCURVE",
"503 44 OFFCURVE",
"504 43 CURVE",
"506 43 LINE",
"557 77 OFFCURVE",
"647 130 OFFCURVE",
"705 235 CURVE SMOOTH",
"736 290 OFFCURVE",
"748 342 OFFCURVE",
"748 386 CURVE",
"747 395 OFFCURVE",
"738 397 OFFCURVE",
"739 400 CURVE",
"739 409 OFFCURVE",
"740 421 OFFCURVE",
"740 429 CURVE SMOOTH",
"740 430 LINE",
"734 450 OFFCURVE",
"719 464 OFFCURVE",
"708 478 CURVE SMOOTH",
"701 487 OFFCURVE",
"694 495 OFFCURVE",
"685 501 CURVE",
"698 500 OFFCURVE",
"715 520 OFFCURVE",
"715 542 CURVE SMOOTH",
"715 546 OFFCURVE",
"714 550 OFFCURVE",
"713 554 CURVE SMOOTH",
"707 575 OFFCURVE",
"712 605 OFFCURVE",
"669 615 CURVE SMOOTH",
"652 619 OFFCURVE",
"629 621 OFFCURVE",
"605 621 CURVE SMOOTH",
"554 621 OFFCURVE",
"495 613 OFFCURVE",
"458 598 CURVE SMOOTH",
"414 581 OFFCURVE",
"357 564 OFFCURVE",
"318 536 CURVE",
"310 529 OFFCURVE",
"310 510 OFFCURVE",
"304 506 CURVE",
"301 503 OFFCURVE",
"295 503 OFFCURVE",
"289 503 CURVE SMOOTH",
"283 503 OFFCURVE",
"276 503 OFFCURVE",
"270 499 CURVE SMOOTH",
"259 490 OFFCURVE",
"249 480 OFFCURVE",
"238 470 CURVE SMOOTH",
"143 383 OFFCURVE",
"82 300 OFFCURVE",
"59 202 CURVE SMOOTH",
"56 188 OFFCURVE",
"53 168 OFFCURVE",
"53 147 CURVE SMOOTH",
"53 98 OFFCURVE",
"65 39 OFFCURVE",
"99 11 CURVE SMOOTH",
"137 -19 OFFCURVE",
"187 -29 OFFCURVE",
"236 -29 CURVE SMOOTH"
);
},
{
closed = 1;
nodes = (
"207 5 OFFCURVE",
"156 14 OFFCURVE",
"135 53 CURVE SMOOTH",
"124 73 OFFCURVE",
"114 104 OFFCURVE",
"114 136 CURVE SMOOTH",
"114 154 OFFCURVE",
"117 173 OFFCURVE",
"125 190 CURVE SMOOTH",
"139 220 OFFCURVE",
"143 279 OFFCURVE",
"173 321 CURVE SMOOTH",
"178 329 OFFCURVE",
"195 347 OFFCURVE",
"202 355 CURVE SMOOTH",
"211 367 OFFCURVE",
"210 367 OFFCURVE",
"218 378 CURVE",
"280 449 OFFCURVE",
"380 500 OFFCURVE",
"483 546 CURVE SMOOTH",
"516 561 OFFCURVE",
"546 565 OFFCURVE",
"571 565 CURVE SMOOTH",
"588 565 OFFCURVE",
"603 563 OFFCURVE",
"615 561 CURVE SMOOTH",
"616 561 LINE SMOOTH",
"637 557 OFFCURVE",
"657 543 OFFCURVE",
"657 543 CURVE",
"657 534 OFFCURVE",
"670 523 OFFCURVE",
"670 517 CURVE SMOOTH",
"670 516 LINE",
"673 510 LINE",
"651 523 OFFCURVE",
"626 527 OFFCURVE",
"600 527 CURVE SMOOTH",
"523 527 OFFCURVE",
"495 502 OFFCURVE",
"495 489 CURVE SMOOTH",
"495 485 OFFCURVE",
"498 482 OFFCURVE",
"504 482 CURVE SMOOTH",
"508 482 OFFCURVE",
"514 483 OFFCURVE",
"520 487 CURVE SMOOTH",
"537 497 OFFCURVE",
"558 502 OFFCURVE",
"580 502 CURVE SMOOTH",
"616 502 OFFCURVE",
"650 481 OFFCURVE",
"670 444 CURVE",
"675 437 OFFCURVE",
"683 433 OFFCURVE",
"683 429 CURVE SMOOTH",
"683 423 OFFCURVE",
"689 404 OFFCURVE",
"689 400 CURVE SMOOTH",
"689 388 OFFCURVE",
"686 374 OFFCURVE",
"686 359 CURVE SMOOTH",
"686 326 OFFCURVE",
"681 295 OFFCURVE",
"657 250 CURVE SMOOTH",
"635 208 OFFCURVE",
"607 182 OFFCURVE",
"590 160 CURVE",
"583 154 OFFCURVE",
"572 146 OFFCURVE",
"561 137 CURVE SMOOTH",
"520 103 OFFCURVE",
"486 68 OFFCURVE",
"421 44 CURVE SMOOTH",
"408 39 OFFCURVE",
"388 32 OFFCURVE",
"377 32 CURVE SMOOTH",
"365 32 OFFCURVE",
"335 12 OFFCURVE",
"327 12 CURVE SMOOTH",
"326 12 LINE SMOOTH",
"314 10 OFFCURVE",
"284 5 OFFCURVE",
"252 5 CURVE SMOOTH"
);
}
);
};
layerId = "960B82ED-BAE9-407E-815C-F6C3A86A2215";
paths = (
{
closed = 1;
nodes = (
"303 -21 OFFCURVE",
"366 -3 OFFCURVE",
"388 3 CURVE SMOOTH",
"406 8 OFFCURVE",
"420 22 OFFCURVE",
"437 28 CURVE",
"450 35 OFFCURVE",
"474 28 OFFCURVE",
"483 45 CURVE",
"485 51 OFFCURVE",
"484 47 OFFCURVE",
"494 49 CURVE",
"497 43 OFFCURVE",
"503 52 OFFCURVE",
"504 51 CURVE",
"506 51 LINE",
"557 85 OFFCURVE",
"647 138 OFFCURVE",
"705 243 CURVE SMOOTH",
"736 298 OFFCURVE",
"748 350 OFFCURVE",
"748 394 CURVE",
"747 403 OFFCURVE",
"738 405 OFFCURVE",
"739 408 CURVE",
"739 417 OFFCURVE",
"740 429 OFFCURVE",
"740 437 CURVE SMOOTH",
"740 438 LINE",
"734 458 OFFCURVE",
"719 472 OFFCURVE",
"708 486 CURVE SMOOTH",
"701 495 OFFCURVE",
"694 503 OFFCURVE",
"685 509 CURVE",
"698 508 OFFCURVE",
"715 528 OFFCURVE",
"715 550 CURVE SMOOTH",
"715 554 OFFCURVE",
"714 558 OFFCURVE",
"713 562 CURVE SMOOTH",
"707 583 OFFCURVE",
"712 613 OFFCURVE",
"669 623 CURVE SMOOTH",
"652 627 OFFCURVE",
"629 629 OFFCURVE",
"605 629 CURVE SMOOTH",
"554 629 OFFCURVE",
"495 621 OFFCURVE",
"458 606 CURVE SMOOTH",
"414 589 OFFCURVE",
"357 572 OFFCURVE",
"318 544 CURVE",
"310 537 OFFCURVE",
"310 518 OFFCURVE",
"304 514 CURVE",
"301 511 OFFCURVE",
"295 511 OFFCURVE",
"289 511 CURVE SMOOTH",
"283 511 OFFCURVE",
"276 511 OFFCURVE",
"270 507 CURVE SMOOTH",
"259 498 OFFCURVE",
"249 488 OFFCURVE",
"238 478 CURVE SMOOTH",
"143 391 OFFCURVE",
"82 308 OFFCURVE",
"59 210 CURVE SMOOTH",
"56 196 OFFCURVE",
"53 176 OFFCURVE",
"53 155 CURVE SMOOTH",
"53 106 OFFCURVE",
"65 47 OFFCURVE",
"99 19 CURVE SMOOTH",
"137 -11 OFFCURVE",
"187 -21 OFFCURVE",
"236 -21 CURVE SMOOTH"
);
},
{
closed = 1;
nodes = (
"207 13 OFFCURVE",
"156 22 OFFCURVE",
"135 61 CURVE SMOOTH",
"124 81 OFFCURVE",
"114 112 OFFCURVE",
"114 144 CURVE SMOOTH",
"114 162 OFFCURVE",
"117 181 OFFCURVE",
"125 198 CURVE SMOOTH",
"139 228 OFFCURVE",
"143 287 OFFCURVE",
"173 329 CURVE SMOOTH",
"178 337 OFFCURVE",
"195 355 OFFCURVE",
"202 363 CURVE SMOOTH",
"211 375 OFFCURVE",
"210 375 OFFCURVE",
"218 386 CURVE",
"280 457 OFFCURVE",
"380 508 OFFCURVE",
"483 554 CURVE SMOOTH",
"516 569 OFFCURVE",
"546 573 OFFCURVE",
"571 573 CURVE SMOOTH",
"588 573 OFFCURVE",
"603 569 OFFCURVE",
"615 569 CURVE SMOOTH",
"616 569 LINE SMOOTH",
"637 569 OFFCURVE",
"657 551 OFFCURVE",
"657 551 CURVE",
"657 542 OFFCURVE",
"670 531 OFFCURVE",
"670 525 CURVE SMOOTH",
"670 524 LINE",
"673 518 LINE",
"651 531 OFFCURVE",
"626 535 OFFCURVE",
"600 535 CURVE SMOOTH",
"523 535 OFFCURVE",
"495 510 OFFCURVE",
"495 497 CURVE SMOOTH",
"495 493 OFFCURVE",
"498 490 OFFCURVE",
"504 490 CURVE SMOOTH",
"508 490 OFFCURVE",
"514 491 OFFCURVE",
"520 495 CURVE SMOOTH",
"537 505 OFFCURVE",
"558 510 OFFCURVE",
"580 510 CURVE SMOOTH",
"616 510 OFFCURVE",
"650 489 OFFCURVE",
"670 452 CURVE",
"675 445 OFFCURVE",
"683 441 OFFCURVE",
"683 437 CURVE SMOOTH",
"683 431 OFFCURVE",
"689 412 OFFCURVE",
"689 408 CURVE SMOOTH",
"689 396 OFFCURVE",
"686 382 OFFCURVE",
"686 367 CURVE SMOOTH",
"686 334 OFFCURVE",
"681 303 OFFCURVE",
"657 258 CURVE SMOOTH",
"635 216 OFFCURVE",
"607 190 OFFCURVE",
"590 168 CURVE",
"583 162 OFFCURVE",
"572 154 OFFCURVE",
"561 145 CURVE SMOOTH",
"520 111 OFFCURVE",
"486 76 OFFCURVE",
"421 52 CURVE SMOOTH",
"408 47 OFFCURVE",
"388 40 OFFCURVE",
"377 40 CURVE SMOOTH",
"365 40 OFFCURVE",
"335 20 OFFCURVE",
"327 20 CURVE SMOOTH",
"326 20 LINE SMOOTH",
"314 20 OFFCURVE",
"284 13 OFFCURVE",
"252 13 CURVE SMOOTH"
);
}
);
width = 693;
}
);
note = O;
unicode = 004F;
},
{
glyphname = Oslash;
lastChange = "2021-11-09 21:29:53 +0000";
layers = (
{
anchors = (
{
name = bottom;
position = "{322, 0}";
},
{
name = top;
position = "{576, 640}";
}
);
background = {
paths = (
{
closed = 1;
nodes = (
"83 -52 OFFCURVE",
"108 -49 OFFCURVE",
"121 -33 CURVE SMOOTH",
"128 -25 OFFCURVE",
"133 -18 OFFCURVE",
"139 -12 CURVE",
"169 -25 OFFCURVE",
"203 -29 OFFCURVE",
"236 -29 CURVE SMOOTH",
"302 -29 OFFCURVE",
"366 -11 OFFCURVE",
"388 -5 CURVE SMOOTH",
"406 0 OFFCURVE",
"420 14 OFFCURVE",
"437 20 CURVE",
"450 27 OFFCURVE",
"474 20 OFFCURVE",
"483 37 CURVE",
"485 43 OFFCURVE",
"484 39 OFFCURVE",
"494 41 CURVE",
"497 35 OFFCURVE",
"503 44 OFFCURVE",
"504 43 CURVE",
"506 43 LINE",
"557 77 OFFCURVE",
"647 130 OFFCURVE",
"705 235 CURVE SMOOTH",
"736 290 OFFCURVE",
"748 342 OFFCURVE",
"748 386 CURVE",
"747 395 OFFCURVE",
"738 397 OFFCURVE",
"739 400 CURVE",
"739 409 OFFCURVE",
"740 421 OFFCURVE",
"740 429 CURVE SMOOTH",
"740 430 LINE",
"734 450 OFFCURVE",
"719 464 OFFCURVE",
"708 478 CURVE SMOOTH",
"701 487 OFFCURVE",
"694 495 OFFCURVE",
"685 501 CURVE",
"698 500 OFFCURVE",
"715 520 OFFCURVE",
"715 542 CURVE SMOOTH",
"715 546 OFFCURVE",
"714 550 OFFCURVE",
"713 554 CURVE SMOOTH",
"709 566 OFFCURVE",
"710 581 OFFCURVE",
"702 594 CURVE",
"711 600 OFFCURVE",
"718 607 OFFCURVE",
"718 617 CURVE SMOOTH",
"718 623 OFFCURVE",
"715 631 OFFCURVE",
"709 640 CURVE",
"707 655 OFFCURVE",
"695 664 OFFCURVE",
"679 664 CURVE SMOOTH",
"672 664 OFFCURVE",
"666 663 OFFCURVE",
"658 660 CURVE",
"659 660 LINE SMOOTH",
"655 660 OFFCURVE",
"642 657 OFFCURVE",
"635 649 CURVE",
"629 645 OFFCURVE",
"618 632 OFFCURVE",
"609 621 CURVE",
"557 621 OFFCURVE",
"496 613 OFFCURVE",
"458 598 CURVE SMOOTH",
"414 581 OFFCURVE",
"357 564 OFFCURVE",
"318 536 CURVE",
"310 529 OFFCURVE",
"310 510 OFFCURVE",
"304 506 CURVE",
"301 503 OFFCURVE",
"295 503 OFFCURVE",
"289 503 CURVE SMOOTH",
"283 503 OFFCURVE",
"276 503 OFFCURVE",
"270 499 CURVE SMOOTH",
"259 490 OFFCURVE",
"249 480 OFFCURVE",
"238 470 CURVE SMOOTH",
"143 383 OFFCURVE",
"82 300 OFFCURVE",
"59 202 CURVE SMOOTH",
"56 188 OFFCURVE",
"53 168 OFFCURVE",
"53 147 CURVE SMOOTH",
"53 98 OFFCURVE",
"65 39 OFFCURVE",
"99 11 CURVE SMOOTH",
"107 5 LINE",
"94 -15 OFFCURVE",
"74 -39 OFFCURVE",
"81 -48 CURVE"
);
},
{
closed = 1;
nodes = (
"123 75 OFFCURVE",
"114 105 OFFCURVE",
"114 136 CURVE SMOOTH",
"114 155 OFFCURVE",
"117 173 OFFCURVE",
"125 190 CURVE SMOOTH",
"139 220 OFFCURVE",
"143 279 OFFCURVE",
"173 321 CURVE SMOOTH",
"178 329 OFFCURVE",
"195 347 OFFCURVE",
"202 355 CURVE SMOOTH",
"211 367 OFFCURVE",
"210 367 OFFCURVE",
"218 378 CURVE",
"280 449 OFFCURVE",
"380 500 OFFCURVE",
"483 546 CURVE SMOOTH",
"512 559 OFFCURVE",
"538 564 OFFCURVE",
"561 565 CURVE",
"561 565 LINE",
"514 511 LINE",
"501 503 OFFCURVE",
"495 495 OFFCURVE",
"495 489 CURVE",
"488 481 LINE",
"457 455 OFFCURVE",
"468 453 OFFCURVE",
"442 424 CURVE",
"442 423 OFFCURVE",
"423 408 OFFCURVE",
"420 401 CURVE",
"225 179 LINE SMOOTH",
"206 157 OFFCURVE",
"188 127 OFFCURVE",
"164 102 CURVE",
"163 102 LINE",
"134 55 LINE"
);
},
{
closed = 1;
nodes = (
"223 5 OFFCURVE",
"191 9 OFFCURVE",
"167 22 CURVE",
"181 39 OFFCURVE",
"193 56 OFFCURVE",
"215 92 CURVE SMOOTH",
"222 103 OFFCURVE",
"322 229 OFFCURVE",
"393 307 CURVE",
"403 313 OFFCURVE",
"481 385 OFFCURVE",
"490 393 CURVE SMOOTH",
"505 407 OFFCURVE",
"560 468 OFFCURVE",
"579 487 CURVE SMOOTH",
"593 501 LINE",
"624 497 OFFCURVE",
"652 476 OFFCURVE",
"670 444 CURVE",
"675 437 OFFCURVE",
"683 433 OFFCURVE",
"683 429 CURVE SMOOTH",
"683 423 OFFCURVE",
"689 404 OFFCURVE",
"689 400 CURVE SMOOTH",
"689 388 OFFCURVE",
"686 374 OFFCURVE",
"686 359 CURVE SMOOTH",
"686 326 OFFCURVE",
"681 295 OFFCURVE",
"657 250 CURVE SMOOTH",
"635 208 OFFCURVE",
"607 182 OFFCURVE",
"590 160 CURVE",
"583 154 OFFCURVE",
"572 146 OFFCURVE",
"561 137 CURVE SMOOTH",
"520 103 OFFCURVE",
"486 68 OFFCURVE",
"421 44 CURVE SMOOTH",
"408 39 OFFCURVE",
"388 32 OFFCURVE",
"377 32 CURVE SMOOTH",
"365 32 OFFCURVE",
"335 12 OFFCURVE",
"327 12 CURVE SMOOTH",
"326 12 LINE SMOOTH",
"314 10 OFFCURVE",
"285 5 OFFCURVE",
"252 5 CURVE SMOOTH"
);
},
{
closed = 1;
nodes = (
"657 520 OFFCURVE",
"639 526 OFFCURVE",
"620 527 CURVE",
"628 535 OFFCURVE",
"637 543 OFFCURVE",
"645 550 CURVE",
"657 543 LINE",
"657 534 OFFCURVE",
"670 523 OFFCURVE",
"670 517 CURVE SMOOTH",
"670 516 LINE",
"673 510 LINE"
);
}
);
};
layerId = "960B82ED-BAE9-407E-815C-F6C3A86A2215";
paths = (
{
closed = 1;
nodes = (
"83 -44 OFFCURVE",
"108 -41 OFFCURVE",
"121 -25 CURVE SMOOTH",
"128 -17 OFFCURVE",
"133 -10 OFFCURVE",
"139 -4 CURVE",
"169 -17 OFFCURVE",
"203 -21 OFFCURVE",
"236 -21 CURVE SMOOTH",
"302 -21 OFFCURVE",
"366 -3 OFFCURVE",
"388 3 CURVE SMOOTH",
"406 8 OFFCURVE",
"420 22 OFFCURVE",
"437 28 CURVE",
"450 35 OFFCURVE",
"474 28 OFFCURVE",
"483 45 CURVE",
"485 51 OFFCURVE",
"484 47 OFFCURVE",
"494 49 CURVE",
"497 43 OFFCURVE",
"503 52 OFFCURVE",
"504 51 CURVE",
"506 51 LINE",
"557 85 OFFCURVE",
"647 138 OFFCURVE",
"705 243 CURVE SMOOTH",
"736 298 OFFCURVE",
"748 350 OFFCURVE",
"748 394 CURVE",
"747 403 OFFCURVE",
"738 405 OFFCURVE",
"739 408 CURVE",
"739 417 OFFCURVE",
"740 429 OFFCURVE",
"740 437 CURVE SMOOTH",
"740 438 LINE",
"734 458 OFFCURVE",
"719 472 OFFCURVE",
"708 486 CURVE SMOOTH",
"701 495 OFFCURVE",
"694 503 OFFCURVE",
"685 509 CURVE",
"698 508 OFFCURVE",
"715 528 OFFCURVE",
"715 550 CURVE SMOOTH",
"715 554 OFFCURVE",
"714 558 OFFCURVE",
"713 562 CURVE SMOOTH",
"709 574 OFFCURVE",
"710 589 OFFCURVE",
"702 602 CURVE",
"711 608 OFFCURVE",
"718 615 OFFCURVE",
"718 625 CURVE SMOOTH",
"718 631 OFFCURVE",
"715 639 OFFCURVE",
"709 648 CURVE",
"707 663 OFFCURVE",
"695 672 OFFCURVE",
"679 672 CURVE SMOOTH",
"672 672 OFFCURVE",
"666 671 OFFCURVE",
"658 668 CURVE",
"659 668 LINE SMOOTH",
"663 668 OFFCURVE",
"642 665 OFFCURVE",
"635 657 CURVE",
"629 653 OFFCURVE",
"618 640 OFFCURVE",
"609 629 CURVE",
"557 629 OFFCURVE",
"496 621 OFFCURVE",
"458 606 CURVE SMOOTH",
"414 589 OFFCURVE",
"357 572 OFFCURVE",
"318 544 CURVE",
"310 537 OFFCURVE",
"310 518 OFFCURVE",
"304 514 CURVE",
"301 511 OFFCURVE",
"295 511 OFFCURVE",
"289 511 CURVE SMOOTH",
"283 511 OFFCURVE",
"276 511 OFFCURVE",
"270 507 CURVE SMOOTH",
"259 498 OFFCURVE",
"249 488 OFFCURVE",
"238 478 CURVE SMOOTH",
"143 391 OFFCURVE",
"82 308 OFFCURVE",
"59 210 CURVE SMOOTH",
"56 196 OFFCURVE",
"53 176 OFFCURVE",
"53 155 CURVE SMOOTH",
"53 106 OFFCURVE",
"64 45 OFFCURVE",
"99 19 CURVE SMOOTH",
"107 13 LINE",
"94 -7 OFFCURVE",
"74 -31 OFFCURVE",
"81 -40 CURVE"
);
},
{
closed = 1;
nodes = (
"123 83 OFFCURVE",
"114 113 OFFCURVE",
"114 144 CURVE SMOOTH",
"114 163 OFFCURVE",
"117 181 OFFCURVE",
"125 198 CURVE SMOOTH",
"139 228 OFFCURVE",
"143 287 OFFCURVE",
"173 329 CURVE SMOOTH",
"178 337 OFFCURVE",
"195 355 OFFCURVE",
"202 363 CURVE SMOOTH",
"211 375 OFFCURVE",
"210 375 OFFCURVE",
"218 386 CURVE",
"280 457 OFFCURVE",
"380 508 OFFCURVE",
"483 554 CURVE SMOOTH",
"512 567 OFFCURVE",
"538 572 OFFCURVE",
"561 573 CURVE",
"514 519 LINE",
"501 511 OFFCURVE",
"495 503 OFFCURVE",
"495 497 CURVE",
"488 489 LINE",
"457 463 OFFCURVE",
"468 461 OFFCURVE",
"442 432 CURVE",
"442 431 OFFCURVE",
"423 416 OFFCURVE",
"420 409 CURVE",
"225 187 LINE SMOOTH",
"206 165 OFFCURVE",
"188 135 OFFCURVE",
"164 110 CURVE",
"163 110 LINE",
"134 63 LINE"
);
},
{
closed = 1;
nodes = (
"223 13 OFFCURVE",
"191 17 OFFCURVE",
"167 30 CURVE",
"181 47 OFFCURVE",
"193 64 OFFCURVE",
"215 100 CURVE SMOOTH",
"222 111 OFFCURVE",
"322 237 OFFCURVE",
"393 315 CURVE",
"403 321 OFFCURVE",
"481 393 OFFCURVE",
"490 401 CURVE SMOOTH",
"505 415 OFFCURVE",
"560 476 OFFCURVE",
"579 495 CURVE SMOOTH",
"593 509 LINE",
"624 505 OFFCURVE",
"652 484 OFFCURVE",
"670 452 CURVE",
"675 445 OFFCURVE",
"683 441 OFFCURVE",
"683 437 CURVE SMOOTH",
"683 431 OFFCURVE",
"689 412 OFFCURVE",
"689 408 CURVE SMOOTH",
"689 396 OFFCURVE",
"686 382 OFFCURVE",
"686 367 CURVE SMOOTH",
"686 334 OFFCURVE",
"681 303 OFFCURVE",
"657 258 CURVE SMOOTH",
"635 216 OFFCURVE",
"607 190 OFFCURVE",
"590 168 CURVE",
"583 162 OFFCURVE",
"572 154 OFFCURVE",
"561 145 CURVE SMOOTH",
"520 111 OFFCURVE",
"486 76 OFFCURVE",
"421 52 CURVE SMOOTH",
"408 47 OFFCURVE",
"388 40 OFFCURVE",
"377 40 CURVE SMOOTH",
"365 40 OFFCURVE",
"335 20 OFFCURVE",
"327 20 CURVE SMOOTH",
"326 20 LINE SMOOTH",
"314 20 OFFCURVE",
"285 13 OFFCURVE",
"252 13 CURVE SMOOTH"
);
},
{
closed = 1;
nodes = (
"657 528 OFFCURVE",
"639 534 OFFCURVE",
"620 535 CURVE",
"628 543 OFFCURVE",
"637 551 OFFCURVE",
"645 558 CURVE",
"657 551 LINE",
"657 542 OFFCURVE",
"670 531 OFFCURVE",
"670 525 CURVE SMOOTH",
"670 524 LINE",
"673 518 LINE"
);
}
);
width = 644;
}
);
note = Oslash;
unicode = 00D8;
},
{
glyphname = OE;
lastChange = "2021-11-09 21:29:53 +0000";
layers = (
{
background = {
paths = (
{
closed = 1;
nodes = (
"303 -29 OFFCURVE",
"366 -11 OFFCURVE",
"388 -5 CURVE SMOOTH",
"406 0 OFFCURVE",
"420 14 OFFCURVE",
"437 20 CURVE",
"450 27 OFFCURVE",
"474 20 OFFCURVE",
"483 37 CURVE",
"485 43 OFFCURVE",
"484 39 OFFCURVE",
"493 40 CURVE",
"495 30 OFFCURVE",
"501 17 OFFCURVE",
"513 0 CURVE",
"516 -3 OFFCURVE",
"537 -8 OFFCURVE",
"541 -12 CURVE SMOOTH",
"542 -13 LINE",
"542 -13 OFFCURVE",
"551 -15 OFFCURVE",
"563 -9 CURVE",
"562 -9 LINE",
"570 -6 OFFCURVE",
"572 7 OFFCURVE",
"576 17 CURVE",
"605 8 OFFCURVE",
"640 1 OFFCURVE",
"668 -1 CURVE",
"677 -3 OFFCURVE",
"706 -4 OFFCURVE",
"744 -4 CURVE SMOOTH",
"807 -4 OFFCURVE",
"892 -1 OFFCURVE",
"937 8 CURVE",
"953 9 OFFCURVE",
"987 13 OFFCURVE",
"1002 21 CURVE SMOOTH",
"1021 31 OFFCURVE",
"1047 39 OFFCURVE",
"1059 56 CURVE SMOOTH",
"1071 74 OFFCURVE",
"1067 99 OFFCURVE",
"1079 115 CURVE SMOOTH",
"1082 119 OFFCURVE",
"1083 127 OFFCURVE",
"1083 136 CURVE SMOOTH",
"1083 150 OFFCURVE",
"1079 166 OFFCURVE",
"1065 168 CURVE",
"1042 167 OFFCURVE",
"1030 129 OFFCURVE",
"1025 122 CURVE SMOOTH",
"1015 108 OFFCURVE",
"1014 108 OFFCURVE",
"1004 99 CURVE SMOOTH",
"986 83 OFFCURVE",
"960 64 OFFCURVE",
"929 58 CURVE SMOOTH",
"893 51 OFFCURVE",
"860 46 OFFCURVE",
"828 43 CURVE SMOOTH",
"817 42 OFFCURVE",
"812 32 OFFCURVE",
"806 32 CURVE SMOOTH",
"805 32 LINE SMOOTH",
"798 32 OFFCURVE",
"782 38 OFFCURVE",
"774 38 CURVE SMOOTH",
"683 38 LINE SMOOTH",
"654 38 OFFCURVE",
"619 43 OFFCURVE",
"586 54 CURVE",
"587 69 OFFCURVE",
"593 88 OFFCURVE",
"594 95 CURVE SMOOTH",
"597 109 OFFCURVE",
"604 112 OFFCURVE",
"614 133 CURVE SMOOTH",
"620 144 OFFCURVE",
"677 242 OFFCURVE",
"736 321 CURVE",
"750 326 OFFCURVE",
"764 330 OFFCURVE",
"776 330 CURVE",
"882 342 OFFCURVE",
"949 342 OFFCURVE",
"1051 342 CURVE",
"1058 340 OFFCURVE",
"1064 337 OFFCURVE",
"1069 337 CURVE SMOOTH",
"1072 337 OFFCURVE",
"1075 339 OFFCURVE",
"1076 344 CURVE",
"1076 351 OFFCURVE",
"1068 362 OFFCURVE",
"1058 363 CURVE",
"1049 366 OFFCURVE",
"1045 368 OFFCURVE",
"1036 368 CURVE SMOOTH",
"991 368 OFFCURVE",
"947 373 OFFCURVE",
"902 373 CURVE SMOOTH",
"886 373 OFFCURVE",
"870 375 OFFCURVE",
"856 375 CURVE",
"849 374 OFFCURVE",
"848 371 OFFCURVE",
"848 369 CURVE",
"840 369 OFFCURVE",
"819 377 OFFCURVE",
"810 377 CURVE SMOOTH",
"783 375 LINE",
"791 380 OFFCURVE",
"799 386 OFFCURVE",
"806 393 CURVE SMOOTH",
"819 408 OFFCURVE",
"867 475 OFFCURVE",
"882 497 CURVE",
"895 512 OFFCURVE",
"926 543 OFFCURVE",
"941 557 CURVE SMOOTH",
"959 574 OFFCURVE",
"973 570 OFFCURVE",
"976 580 CURVE",
"1029 583 OFFCURVE",
"1069 597 OFFCURVE",
"1120 597 CURVE SMOOTH",
"1180 597 OFFCURVE",
"1169 590 OFFCURVE",
"1201 590 CURVE SMOOTH",
"1202 590 OFFCURVE",
"1221 577 OFFCURVE",
"1239 569 CURVE SMOOTH",
"1262 560 OFFCURVE",
"1252 536 OFFCURVE",
"1276 538 CURVE",
"1295 543 OFFCURVE",
"1302 559 OFFCURVE",
"1302 573 CURVE SMOOTH",
"1302 583 OFFCURVE",
"1298 593 OFFCURVE",
"1293 597 CURVE SMOOTH",
"1287 603 OFFCURVE",
"1262 616 OFFCURVE",
"1262 616 CURVE",
"1245 617 LINE",
"1241 616 OFFCURVE",
"1236 625 OFFCURVE",
"1225 625 CURVE",
"1199 630 OFFCURVE",
"1187 631 OFFCURVE",
"1172 631 CURVE SMOOTH",
"1116 631 OFFCURVE",
"1046 629 OFFCURVE",
"963 623 CURVE",
"959 635 OFFCURVE",
"949 642 OFFCURVE",
"936 642 CURVE SMOOTH",
"929 642 OFFCURVE",
"920 640 OFFCURVE",
"911 635 CURVE",
"906 634 OFFCURVE",
"895 629 OFFCURVE",
"890 623 CURVE",
"852 626 OFFCURVE",
"794 594 OFFCURVE",
"794 582 CURVE SMOOTH",
"794 578 OFFCURVE",
"800 577 OFFCURVE",
"812 578 CURVE SMOOTH",
"846 582 OFFCURVE",
"837 580 OFFCURVE",
"873 587 CURVE",
"862 577 OFFCURVE",
"801 490 OFFCURVE",
"793 480 CURVE SMOOTH",
"766 450 OFFCURVE",
"776 450 OFFCURVE",
"755 418 CURVE",
"755 417 OFFCURVE",
"744 406 OFFCURVE",
"739 398 CURVE",
"739 400 LINE SMOOTH",
"739 409 OFFCURVE",
"740 421 OFFCURVE",
"740 429 CURVE SMOOTH",
"740 430 LINE",
"734 450 OFFCURVE",
"719 464 OFFCURVE",
"708 478 CURVE SMOOTH",
"701 487 OFFCURVE",
"694 495 OFFCURVE",
"685 501 CURVE",
"698 500 OFFCURVE",
"715 520 OFFCURVE",
"715 542 CURVE SMOOTH",
"715 546 OFFCURVE",
"714 550 OFFCURVE",
"713 554 CURVE SMOOTH",
"707 575 OFFCURVE",
"712 605 OFFCURVE",
"669 615 CURVE SMOOTH",
"652 619 OFFCURVE",
"629 621 OFFCURVE",
"605 621 CURVE SMOOTH",
"554 621 OFFCURVE",
"495 613 OFFCURVE",
"458 598 CURVE SMOOTH",
"414 581 OFFCURVE",
"357 564 OFFCURVE",
"318 536 CURVE",
"310 529 OFFCURVE",
"310 510 OFFCURVE",
"304 506 CURVE",
"301 503 OFFCURVE",
"295 503 OFFCURVE",
"289 503 CURVE SMOOTH",
"283 503 OFFCURVE",
"276 503 OFFCURVE",
"270 499 CURVE SMOOTH",
"259 490 OFFCURVE",
"249 480 OFFCURVE",
"238 470 CURVE SMOOTH",
"143 383 OFFCURVE",
"82 300 OFFCURVE",
"59 202 CURVE SMOOTH",
"56 188 OFFCURVE",
"53 168 OFFCURVE",
"53 147 CURVE SMOOTH",
"53 98 OFFCURVE",
"65 39 OFFCURVE",
"99 11 CURVE SMOOTH",
"137 -19 OFFCURVE",
"187 -29 OFFCURVE",
"236 -29 CURVE SMOOTH"
);
},
{
closed = 1;
nodes = (
"207 5 OFFCURVE",
"156 14 OFFCURVE",
"135 53 CURVE SMOOTH",
"124 73 OFFCURVE",
"114 104 OFFCURVE",
"114 136 CURVE SMOOTH",
"114 154 OFFCURVE",
"117 173 OFFCURVE",
"125 190 CURVE SMOOTH",
"139 220 OFFCURVE",
"143 279 OFFCURVE",
"173 321 CURVE SMOOTH",
"178 329 OFFCURVE",
"195 347 OFFCURVE",
"202 355 CURVE SMOOTH",
"211 367 OFFCURVE",
"210 367 OFFCURVE",
"218 378 CURVE",
"280 449 OFFCURVE",
"380 500 OFFCURVE",
"483 546 CURVE SMOOTH",
"516 561 OFFCURVE",
"546 565 OFFCURVE",
"571 565 CURVE SMOOTH",
"588 565 OFFCURVE",
"603 563 OFFCURVE",
"615 561 CURVE SMOOTH",
"616 561 LINE SMOOTH",
"637 557 OFFCURVE",
"657 543 OFFCURVE",
"657 543 CURVE",
"657 534 OFFCURVE",
"670 523 OFFCURVE",
"670 517 CURVE SMOOTH",
"670 516 LINE",
"673 510 LINE",
"651 523 OFFCURVE",
"626 527 OFFCURVE",
"600 527 CURVE SMOOTH",
"523 527 OFFCURVE",
"495 502 OFFCURVE",
"495 489 CURVE SMOOTH",
"495 485 OFFCURVE",
"498 482 OFFCURVE",
"504 482 CURVE SMOOTH",
"508 482 OFFCURVE",
"514 483 OFFCURVE",
"520 487 CURVE SMOOTH",
"537 497 OFFCURVE",
"558 502 OFFCURVE",
"580 502 CURVE SMOOTH",
"616 502 OFFCURVE",
"650 481 OFFCURVE",
"670 444 CURVE",
"675 437 OFFCURVE",
"683 433 OFFCURVE",
"683 429 CURVE SMOOTH",
"683 423 OFFCURVE",
"689 404 OFFCURVE",
"689 400 CURVE SMOOTH",
"689 390 OFFCURVE",
"687 380 OFFCURVE",
"686 369 CURVE",
"676 369 LINE SMOOTH",
"668 369 OFFCURVE",
"667 364 OFFCURVE",
"663 364 CURVE SMOOTH",
"662 364 LINE SMOOTH",
"653 364 OFFCURVE",
"638 362 OFFCURVE",
"632 362 CURVE SMOOTH",
"613 361 OFFCURVE",
"586 330 OFFCURVE",
"589 313 CURVE SMOOTH",
"590 307 OFFCURVE",
"603 295 OFFCURVE",
"611 294 CURVE",
"635 294 LINE",
"635 294 OFFCURVE",
"652 297 OFFCURVE",
"669 301 CURVE",
"613 221 LINE SMOOTH",
"596 197 OFFCURVE",
"582 165 OFFCURVE",
"561 137 CURVE",
"520 103 OFFCURVE",
"486 68 OFFCURVE",
"421 44 CURVE SMOOTH",
"408 39 OFFCURVE",
"388 32 OFFCURVE",
"377 32 CURVE SMOOTH",
"365 32 OFFCURVE",
"335 12 OFFCURVE",
"327 12 CURVE SMOOTH",
"326 12 LINE SMOOTH",
"314 10 OFFCURVE",
"284 5 OFFCURVE",
"252 5 CURVE SMOOTH"
);
}
);
};
layerId = "960B82ED-BAE9-407E-815C-F6C3A86A2215";
paths = (
{
closed = 1;
nodes = (
"303 -21 OFFCURVE",
"366 -3 OFFCURVE",
"388 3 CURVE SMOOTH",
"406 8 OFFCURVE",
"420 22 OFFCURVE",
"437 28 CURVE",
"450 35 OFFCURVE",
"474 28 OFFCURVE",
"483 45 CURVE",
"485 51 OFFCURVE",
"484 47 OFFCURVE",
"493 48 CURVE",
"495 38 OFFCURVE",
"501 25 OFFCURVE",
"513 8 CURVE",
"516 5 OFFCURVE",
"537 0 OFFCURVE",
"541 -4 CURVE SMOOTH",
"542 -5 LINE",
"542 -5 OFFCURVE",
"551 -7 OFFCURVE",
"563 -1 CURVE",
"562 -1 LINE",
"570 2 OFFCURVE",
"572 15 OFFCURVE",
"576 25 CURVE",
"605 16 OFFCURVE",
"640 9 OFFCURVE",
"668 7 CURVE",
"677 5 OFFCURVE",
"706 4 OFFCURVE",
"744 4 CURVE SMOOTH",
"807 4 OFFCURVE",
"892 7 OFFCURVE",
"937 16 CURVE",
"953 17 OFFCURVE",
"987 21 OFFCURVE",
"1002 29 CURVE SMOOTH",
"1021 39 OFFCURVE",
"1047 47 OFFCURVE",
"1059 64 CURVE SMOOTH",
"1071 82 OFFCURVE",
"1067 107 OFFCURVE",
"1079 123 CURVE SMOOTH",
"1082 127 OFFCURVE",
"1083 135 OFFCURVE",
"1083 144 CURVE SMOOTH",
"1083 158 OFFCURVE",
"1079 174 OFFCURVE",
"1065 176 CURVE",
"1042 175 OFFCURVE",
"1030 137 OFFCURVE",
"1025 130 CURVE SMOOTH",
"1015 116 OFFCURVE",
"1014 116 OFFCURVE",
"1004 107 CURVE SMOOTH",
"986 91 OFFCURVE",
"960 72 OFFCURVE",
"929 66 CURVE SMOOTH",
"893 59 OFFCURVE",
"860 54 OFFCURVE",
"828 51 CURVE SMOOTH",
"817 50 OFFCURVE",
"812 40 OFFCURVE",
"806 40 CURVE SMOOTH",
"805 40 LINE SMOOTH",
"798 40 OFFCURVE",
"782 46 OFFCURVE",
"774 46 CURVE SMOOTH",
"683 46 LINE SMOOTH",
"654 46 OFFCURVE",
"619 51 OFFCURVE",
"586 62 CURVE",
"587 77 OFFCURVE",
"593 96 OFFCURVE",
"594 103 CURVE SMOOTH",
"597 117 OFFCURVE",
"604 120 OFFCURVE",
"614 141 CURVE SMOOTH",
"620 152 OFFCURVE",
"677 250 OFFCURVE",
"736 329 CURVE",
"750 334 OFFCURVE",
"764 338 OFFCURVE",
"776 338 CURVE",
"882 350 OFFCURVE",
"949 350 OFFCURVE",
"1051 350 CURVE",
"1058 348 OFFCURVE",
"1064 345 OFFCURVE",
"1069 345 CURVE SMOOTH",
"1072 345 OFFCURVE",
"1075 347 OFFCURVE",
"1076 352 CURVE",
"1076 359 OFFCURVE",
"1068 370 OFFCURVE",
"1058 371 CURVE",
"1049 374 OFFCURVE",
"1045 376 OFFCURVE",
"1036 376 CURVE SMOOTH",
"991 376 OFFCURVE",
"947 381 OFFCURVE",
"902 381 CURVE SMOOTH",
"886 381 OFFCURVE",
"870 383 OFFCURVE",
"856 383 CURVE",
"849 382 OFFCURVE",
"848 379 OFFCURVE",
"848 377 CURVE",
"840 377 OFFCURVE",
"819 385 OFFCURVE",
"810 385 CURVE SMOOTH",
"783 383 LINE",
"791 388 OFFCURVE",
"799 394 OFFCURVE",
"806 401 CURVE SMOOTH",
"819 416 OFFCURVE",
"867 483 OFFCURVE",
"882 505 CURVE",
"895 520 OFFCURVE",
"926 551 OFFCURVE",
"941 565 CURVE SMOOTH",
"959 582 OFFCURVE",
"973 578 OFFCURVE",
"976 588 CURVE",
"1029 591 OFFCURVE",
"1069 605 OFFCURVE",
"1120 605 CURVE SMOOTH",
"1180 605 OFFCURVE",
"1169 598 OFFCURVE",
"1201 598 CURVE SMOOTH",
"1202 598 OFFCURVE",
"1221 585 OFFCURVE",
"1239 577 CURVE SMOOTH",
"1262 568 OFFCURVE",
"1252 544 OFFCURVE",
"1276 546 CURVE",
"1295 551 OFFCURVE",
"1302 567 OFFCURVE",
"1302 581 CURVE SMOOTH",
"1302 591 OFFCURVE",
"1298 601 OFFCURVE",
"1293 605 CURVE SMOOTH",
"1287 611 OFFCURVE",
"1262 624 OFFCURVE",
"1262 624 CURVE",
"1245 625 LINE",
"1241 624 OFFCURVE",
"1236 633 OFFCURVE",
"1225 633 CURVE",
"1199 638 OFFCURVE",
"1187 639 OFFCURVE",
"1172 639 CURVE SMOOTH",
"1116 639 OFFCURVE",
"1046 637 OFFCURVE",
"963 631 CURVE",
"959 643 OFFCURVE",
"949 650 OFFCURVE",
"936 650 CURVE SMOOTH",
"929 650 OFFCURVE",
"920 648 OFFCURVE",
"911 643 CURVE",
"906 642 OFFCURVE",
"895 637 OFFCURVE",
"890 631 CURVE",
"852 634 OFFCURVE",
"794 603 OFFCURVE",
"794 591 CURVE SMOOTH",
"794 588 OFFCURVE",
"798 586 OFFCURVE",
"805 586 CURVE SMOOTH",
"812 586 LINE",
"846 590 OFFCURVE",
"837 588 OFFCURVE",
"873 595 CURVE",
"862 585 OFFCURVE",
"801 498 OFFCURVE",
"793 488 CURVE SMOOTH",
"766 458 OFFCURVE",
"776 458 OFFCURVE",
"755 426 CURVE",
"755 425 OFFCURVE",
"744 414 OFFCURVE",
"739 406 CURVE",
"739 408 LINE SMOOTH",
"739 417 OFFCURVE",
"740 429 OFFCURVE",
"740 437 CURVE SMOOTH",
"740 438 LINE",
"734 458 OFFCURVE",
"719 472 OFFCURVE",
"708 486 CURVE SMOOTH",
"701 495 OFFCURVE",
"694 503 OFFCURVE",
"685 509 CURVE",
"698 508 OFFCURVE",
"715 528 OFFCURVE",
"715 550 CURVE SMOOTH",
"715 554 OFFCURVE",
"714 558 OFFCURVE",
"713 562 CURVE SMOOTH",
"707 583 OFFCURVE",
"712 613 OFFCURVE",
"669 623 CURVE SMOOTH",
"652 627 OFFCURVE",
"629 629 OFFCURVE",
"605 629 CURVE SMOOTH",
"554 629 OFFCURVE",
"495 621 OFFCURVE",
"458 606 CURVE SMOOTH",
"414 589 OFFCURVE",
"357 572 OFFCURVE",
"318 544 CURVE",
"310 537 OFFCURVE",
"310 518 OFFCURVE",
"304 514 CURVE",
"301 511 OFFCURVE",
"295 511 OFFCURVE",
"289 511 CURVE SMOOTH",
"283 511 OFFCURVE",
"276 511 OFFCURVE",
"270 507 CURVE SMOOTH",
"259 498 OFFCURVE",
"249 488 OFFCURVE",
"238 478 CURVE SMOOTH",
"143 391 OFFCURVE",
"82 308 OFFCURVE",
"59 210 CURVE SMOOTH",
"56 196 OFFCURVE",
"53 176 OFFCURVE",
"53 155 CURVE SMOOTH",
"53 106 OFFCURVE",
"65 47 OFFCURVE",
"99 19 CURVE SMOOTH",
"137 -11 OFFCURVE",
"187 -21 OFFCURVE",
"236 -21 CURVE SMOOTH"
);
},
{
closed = 1;
nodes = (
"207 13 OFFCURVE",
"156 22 OFFCURVE",
"135 61 CURVE SMOOTH",
"124 81 OFFCURVE",
"114 112 OFFCURVE",
"114 144 CURVE SMOOTH",
"114 162 OFFCURVE",
"117 181 OFFCURVE",
"125 198 CURVE SMOOTH",
"139 228 OFFCURVE",
"143 287 OFFCURVE",
"173 329 CURVE SMOOTH",
"178 337 OFFCURVE",
"195 355 OFFCURVE",
"202 363 CURVE SMOOTH",
"211 375 OFFCURVE",
"210 375 OFFCURVE",
"218 386 CURVE",
"280 457 OFFCURVE",
"380 508 OFFCURVE",
"483 554 CURVE SMOOTH",
"516 569 OFFCURVE",
"546 573 OFFCURVE",
"571 573 CURVE SMOOTH",
"588 573 OFFCURVE",
"603 571 OFFCURVE",
"615 569 CURVE SMOOTH",
"616 569 LINE SMOOTH",
"637 565 OFFCURVE",
"657 551 OFFCURVE",
"657 551 CURVE",
"657 542 OFFCURVE",
"670 531 OFFCURVE",
"670 525 CURVE SMOOTH",
"670 524 LINE",
"673 518 LINE",
"651 531 OFFCURVE",
"626 535 OFFCURVE",
"600 535 CURVE SMOOTH",
"523 535 OFFCURVE",
"495 510 OFFCURVE",
"495 497 CURVE SMOOTH",
"495 493 OFFCURVE",
"498 490 OFFCURVE",
"504 490 CURVE SMOOTH",
"508 490 OFFCURVE",
"514 491 OFFCURVE",
"520 495 CURVE SMOOTH",
"537 505 OFFCURVE",
"558 510 OFFCURVE",
"580 510 CURVE SMOOTH",
"616 510 OFFCURVE",
"650 489 OFFCURVE",
"670 452 CURVE",
"675 445 OFFCURVE",
"683 441 OFFCURVE",
"683 437 CURVE SMOOTH",
"683 431 OFFCURVE",
"689 412 OFFCURVE",
"689 408 CURVE SMOOTH",
"689 398 OFFCURVE",
"687 388 OFFCURVE",
"686 377 CURVE",
"676 377 LINE SMOOTH",
"668 377 OFFCURVE",
"667 372 OFFCURVE",
"663 372 CURVE SMOOTH",
"662 372 LINE SMOOTH",
"653 372 OFFCURVE",
"638 370 OFFCURVE",
"632 370 CURVE SMOOTH",
"613 369 OFFCURVE",
"586 338 OFFCURVE",
"589 321 CURVE SMOOTH",
"590 315 OFFCURVE",
"603 303 OFFCURVE",
"611 302 CURVE",
"635 302 LINE",
"635 302 OFFCURVE",
"652 305 OFFCURVE",
"669 309 CURVE",
"613 229 LINE SMOOTH",
"596 205 OFFCURVE",
"582 173 OFFCURVE",
"561 145 CURVE",
"520 111 OFFCURVE",
"486 76 OFFCURVE",
"421 52 CURVE SMOOTH",
"408 47 OFFCURVE",
"388 40 OFFCURVE",
"377 40 CURVE SMOOTH",
"365 40 OFFCURVE",
"335 20 OFFCURVE",
"327 20 CURVE SMOOTH",
"326 20 LINE SMOOTH",
"314 18 OFFCURVE",
"284 13 OFFCURVE",
"252 13 CURVE SMOOTH"
);
}
);
width = 1096;
}
);
note = OE;
unicode = 0152;
},
{
glyphname = P;
lastChange = "2021-11-09 21:29:53 +0000";
layers = (
{
background = {
paths = (
{
closed = 1;
nodes = (
"18 -13 OFFCURVE",
"27 -15 OFFCURVE",
"39 -9 CURVE",
"46 -4 OFFCURVE",
"57 6 OFFCURVE",
"65 12 CURVE SMOOTH",
"66 13 LINE",
"85 66 LINE SMOOTH",
"86 68 OFFCURVE",
"84 70 OFFCURVE",
"82 70 CURVE SMOOTH",
"78 69 OFFCURVE",
"68 84 OFFCURVE",
"68 92 CURVE SMOOTH",
"68 93 OFFCURVE",
"69 94 OFFCURVE",
"69 95 CURVE",
"73 109 OFFCURVE",
"80 112 OFFCURVE",
"89 133 CURVE SMOOTH",
"94 144 OFFCURVE",
"178 250 OFFCURVE",
"205 296 CURVE SMOOTH",
"229 337 OFFCURVE",
"273 383 OFFCURVE",
"281 393 CURVE SMOOTH",
"294 408 OFFCURVE",
"342 475 OFFCURVE",
"358 497 CURVE SMOOTH",
"370 512 OFFCURVE",
"401 543 OFFCURVE",
"416 557 CURVE SMOOTH",
"434 574 OFFCURVE",
"458 576 OFFCURVE",
"462 587 CURVE",
"481 588 OFFCURVE",
"494 589 OFFCURVE",
"505 589 CURVE SMOOTH",
"525 589 OFFCURVE",
"540 587 OFFCURVE",
"574 581 CURVE SMOOTH",
"580 580 OFFCURVE",
"602 581 OFFCURVE",
"624 570 CURVE",
"623 570 LINE",
"641 560 OFFCURVE",
"670 538 OFFCURVE",
"670 508 CURVE SMOOTH",
"670 485 OFFCURVE",
"672 464 OFFCURVE",
"653 437 CURVE SMOOTH",
"652 435 LINE",
"652 430 OFFCURVE",
"651 426 OFFCURVE",
"648 422 CURVE SMOOTH",
"644 417 OFFCURVE",
"634 412 OFFCURVE",
"628 405 CURVE SMOOTH",
"594 366 OFFCURVE",
"481 282 OFFCURVE",
"394 264 CURVE SMOOTH",
"371 259 OFFCURVE",
"324 238 OFFCURVE",
"268 238 CURVE SMOOTH",
"259 238 OFFCURVE",
"251 239 OFFCURVE",
"242 240 CURVE SMOOTH",
"219 242 OFFCURVE",
"205 231 OFFCURVE",
"205 221 CURVE SMOOTH",
"205 215 OFFCURVE",
"211 209 OFFCURVE",
"225 209 CURVE SMOOTH",
"250 209 LINE SMOOTH",
"258 209 OFFCURVE",
"274 215 OFFCURVE",
"278 215 CURVE SMOOTH",
"339 215 OFFCURVE",
"395 235 OFFCURVE",
"409 235 CURVE SMOOTH",
"446 235 OFFCURVE",
"508 257 OFFCURVE",
"538 273 CURVE",
"601 297 OFFCURVE",
"597 320 OFFCURVE",
"637 345 CURVE",
"642 350 OFFCURVE",
"652 349 OFFCURVE",
"659 354 CURVE SMOOTH",
"667 359 OFFCURVE",
"668 368 OFFCURVE",
"671 371 CURVE SMOOTH",
"693 389 OFFCURVE",
"708 406 OFFCURVE",
"718 422 CURVE",
"719 422 LINE",
"739 453 OFFCURVE",
"746 479 OFFCURVE",
"746 501 CURVE SMOOTH",
"746 525 OFFCURVE",
"738 545 OFFCURVE",
"729 562 CURVE SMOOTH",
"707 605 OFFCURVE",
"624 622 OFFCURVE",
"547 626 CURVE SMOOTH",
"540 626 OFFCURVE",
"534 625 OFFCURVE",
"531 625 CURVE SMOOTH",
"502 625 OFFCURVE",
"472 623 OFFCURVE",
"439 623 CURVE",
"436 635 OFFCURVE",
"426 642 OFFCURVE",
"412 642 CURVE SMOOTH",
"405 642 OFFCURVE",
"396 640 OFFCURVE",
"387 635 CURVE",
"388 635 LINE SMOOTH",
"381 634 OFFCURVE",
"377 627 OFFCURVE",
"373 619 CURVE",
"329 618 OFFCURVE",
"258 625 OFFCURVE",
"162 575 CURVE",
"141 567 OFFCURVE",
"134 555 OFFCURVE",
"134 546 CURVE SMOOTH",
"134 538 OFFCURVE",
"141 531 OFFCURVE",
"150 531 CURVE SMOOTH",
"155 531 OFFCURVE",
"160 532 OFFCURVE",
"165 536 CURVE SMOOTH",
"188 553 OFFCURVE",
"239 574 OFFCURVE",
"270 579 CURVE SMOOTH",
"287 582 OFFCURVE",
"318 586 OFFCURVE",
"348 587 CURVE",
"338 576 OFFCURVE",
"276 490 OFFCURVE",
"268 480 CURVE SMOOTH",
"241 450 OFFCURVE",
"252 450 OFFCURVE",
"230 418 CURVE",
"230 417 OFFCURVE",
"213 399 OFFCURVE",
"211 392 CURVE",
"211 393 OFFCURVE",
"89 222 OFFCURVE",
"88 221 CURVE SMOOTH",
"72 197 OFFCURVE",
"58 165 OFFCURVE",
"37 137 CURVE",
"36 137 LINE",
"4 71 OFFCURVE",
"-5 38 OFFCURVE",
"-5 20 CURVE SMOOTH",
"-5 3 OFFCURVE",
"4 1 OFFCURVE",
"8 -3 CURVE SMOOTH",
"12 -6 OFFCURVE",
"13 -8 OFFCURVE",
"16 -12 CURVE SMOOTH",
"17 -13 LINE"
);
}
);
};
layerId = "960B82ED-BAE9-407E-815C-F6C3A86A2215";
paths = (
{
closed = 1;
nodes = (
"18 -5 OFFCURVE",
"27 -7 OFFCURVE",
"39 -1 CURVE",
"46 4 OFFCURVE",
"57 14 OFFCURVE",
"65 20 CURVE SMOOTH",
"66 21 LINE",
"85 74 LINE SMOOTH",
"86 76 OFFCURVE",
"84 78 OFFCURVE",
"82 78 CURVE SMOOTH",
"78 77 OFFCURVE",
"68 92 OFFCURVE",
"68 100 CURVE SMOOTH",
"68 101 OFFCURVE",
"69 102 OFFCURVE",
"69 103 CURVE",
"73 117 OFFCURVE",
"80 120 OFFCURVE",
"89 141 CURVE SMOOTH",
"94 152 OFFCURVE",
"178 258 OFFCURVE",
"205 304 CURVE SMOOTH",
"229 345 OFFCURVE",
"273 391 OFFCURVE",
"281 401 CURVE SMOOTH",
"294 416 OFFCURVE",
"342 483 OFFCURVE",
"358 505 CURVE SMOOTH",
"370 520 OFFCURVE",
"401 551 OFFCURVE",
"416 565 CURVE SMOOTH",
"434 582 OFFCURVE",
"458 584 OFFCURVE",
"462 595 CURVE",
"481 596 OFFCURVE",
"494 597 OFFCURVE",
"505 597 CURVE SMOOTH",
"525 597 OFFCURVE",
"540 595 OFFCURVE",
"574 589 CURVE SMOOTH",
"580 588 OFFCURVE",
"602 589 OFFCURVE",
"624 578 CURVE",
"623 578 LINE",
"641 568 OFFCURVE",
"670 546 OFFCURVE",
"670 516 CURVE SMOOTH",
"670 493 OFFCURVE",
"672 472 OFFCURVE",
"653 445 CURVE SMOOTH",
"652 443 LINE",
"652 438 OFFCURVE",
"651 434 OFFCURVE",
"648 430 CURVE SMOOTH",
"644 425 OFFCURVE",
"634 420 OFFCURVE",
"628 413 CURVE SMOOTH",
"594 374 OFFCURVE",
"481 290 OFFCURVE",
"394 272 CURVE SMOOTH",
"371 267 OFFCURVE",
"324 246 OFFCURVE",
"268 246 CURVE SMOOTH",
"257 246 OFFCURVE",
"248 248 OFFCURVE",
"237 248 CURVE SMOOTH",
"217 248 OFFCURVE",
"205 238 OFFCURVE",
"205 229 CURVE SMOOTH",
"205 223 OFFCURVE",
"211 217 OFFCURVE",
"225 217 CURVE SMOOTH",
"250 217 LINE SMOOTH",
"258 217 OFFCURVE",
"274 223 OFFCURVE",
"278 223 CURVE SMOOTH",
"339 223 OFFCURVE",
"395 243 OFFCURVE",
"409 243 CURVE SMOOTH",
"446 243 OFFCURVE",
"508 265 OFFCURVE",
"538 281 CURVE",
"601 305 OFFCURVE",
"597 328 OFFCURVE",
"637 353 CURVE",
"642 358 OFFCURVE",
"652 357 OFFCURVE",
"659 362 CURVE SMOOTH",
"667 367 OFFCURVE",
"668 376 OFFCURVE",
"671 379 CURVE SMOOTH",
"693 397 OFFCURVE",
"708 414 OFFCURVE",
"718 430 CURVE",
"719 430 LINE",
"739 461 OFFCURVE",
"746 487 OFFCURVE",
"746 509 CURVE SMOOTH",
"746 533 OFFCURVE",
"738 553 OFFCURVE",
"729 570 CURVE SMOOTH",
"707 613 OFFCURVE",
"624 630 OFFCURVE",
"547 634 CURVE SMOOTH",
"540 634 OFFCURVE",
"534 633 OFFCURVE",
"531 633 CURVE SMOOTH",
"502 633 OFFCURVE",
"472 631 OFFCURVE",
"439 631 CURVE",
"436 643 OFFCURVE",
"426 650 OFFCURVE",
"412 650 CURVE SMOOTH",
"405 650 OFFCURVE",
"396 648 OFFCURVE",
"387 643 CURVE",
"388 643 LINE SMOOTH",
"381 642 OFFCURVE",
"377 635 OFFCURVE",
"373 627 CURVE",
"329 626 OFFCURVE",
"258 633 OFFCURVE",
"162 583 CURVE",
"141 575 OFFCURVE",
"134 563 OFFCURVE",
"134 554 CURVE SMOOTH",
"134 546 OFFCURVE",
"141 539 OFFCURVE",
"150 539 CURVE SMOOTH",
"155 539 OFFCURVE",
"160 540 OFFCURVE",
"165 544 CURVE SMOOTH",
"188 561 OFFCURVE",
"239 582 OFFCURVE",
"270 587 CURVE SMOOTH",
"287 590 OFFCURVE",
"318 594 OFFCURVE",
"348 595 CURVE",
"338 584 OFFCURVE",
"276 498 OFFCURVE",
"268 488 CURVE SMOOTH",
"241 458 OFFCURVE",
"252 458 OFFCURVE",
"230 426 CURVE",
"230 425 OFFCURVE",
"213 407 OFFCURVE",
"211 400 CURVE",
"211 401 OFFCURVE",
"89 230 OFFCURVE",
"88 229 CURVE SMOOTH",
"72 205 OFFCURVE",
"58 173 OFFCURVE",
"37 145 CURVE",
"36 145 LINE",
"4 79 OFFCURVE",
"-5 46 OFFCURVE",
"-5 28 CURVE SMOOTH",
"-5 11 OFFCURVE",
"4 9 OFFCURVE",
"8 5 CURVE SMOOTH",
"12 2 OFFCURVE",
"13 0 OFFCURVE",
"16 -4 CURVE SMOOTH",
"17 -5 LINE"
);
}
);
width = 579;
}
);
note = P;
unicode = 0050;
},
{
glyphname = Thorn;
lastChange = "2021-11-09 20:24:30 +0000";
layers = (
{
background = {
paths = (
{
closed = 1;
nodes = (
"51 -107 OFFCURVE",
"59 -109 OFFCURVE",
"70 -102 CURVE",
"77 -96 OFFCURVE",
"87 -85 OFFCURVE",
"95 -77 CURVE SMOOTH",
"96 -76 LINE",
"114 -13 LINE",
"115 -11 OFFCURVE",
"113 -8 OFFCURVE",
"111 -8 CURVE",
"107 -10 OFFCURVE",
"98 8 OFFCURVE",
"98 17 CURVE SMOOTH",
"98 19 OFFCURVE",
"99 20 OFFCURVE",
"99 21 CURVE SMOOTH",
"102 38 OFFCURVE",
"109 41 OFFCURVE",
"118 66 CURVE",
"119 71 OFFCURVE",
"133 94 OFFCURVE",
"151 124 CURVE",
"179 124 LINE SMOOTH",
"187 124 OFFCURVE",
"203 130 OFFCURVE",
"207 130 CURVE SMOOTH",
"268 130 OFFCURVE",
"324 150 OFFCURVE",
"338 150 CURVE SMOOTH",
"375 150 OFFCURVE",
"437 172 OFFCURVE",
"467 188 CURVE",
"530 212 OFFCURVE",
"526 235 OFFCURVE",
"566 260 CURVE",
"571 265 OFFCURVE",
"581 264 OFFCURVE",
"588 269 CURVE SMOOTH",
"596 274 OFFCURVE",
"597 283 OFFCURVE",
"600 286 CURVE SMOOTH",
"622 304 OFFCURVE",
"637 321 OFFCURVE",
"647 337 CURVE",
"648 337 LINE",
"668 368 OFFCURVE",
"675 394 OFFCURVE",
"675 416 CURVE SMOOTH",
"675 440 OFFCURVE",
"667 460 OFFCURVE",
"658 477 CURVE SMOOTH",
"636 520 OFFCURVE",
"553 537 OFFCURVE",
"476 541 CURVE SMOOTH",
"469 541 OFFCURVE",
"463 540 OFFCURVE",
"460 540 CURVE SMOOTH",
"445 540 OFFCURVE",
"424 539 OFFCURVE",
"402 539 CURVE",
"422 563 OFFCURVE",
"442 607 OFFCURVE",
"462 631 CURVE SMOOTH",
"504 682 OFFCURVE",
"515 732 OFFCURVE",
"519 745 CURVE",
"516 760 OFFCURVE",
"506 768 OFFCURVE",
"494 768 CURVE SMOOTH",
"487 768 OFFCURVE",
"478 765 OFFCURVE",
"470 759 CURVE",
"468 765 OFFCURVE",
"422 695 OFFCURVE",
"404 663 CURVE",
"375 623 OFFCURVE",
"339 567 OFFCURVE",
"322 537 CURVE",
"269 536 OFFCURVE",
"175 533 OFFCURVE",
"91 490 CURVE",
"70 482 OFFCURVE",
"63 470 OFFCURVE",
"63 461 CURVE SMOOTH",
"63 453 OFFCURVE",
"70 446 OFFCURVE",
"79 446 CURVE SMOOTH",
"84 446 OFFCURVE",
"89 447 OFFCURVE",
"94 451 CURVE SMOOTH",
"117 468 OFFCURVE",
"168 489 OFFCURVE",
"199 494 CURVE SMOOTH",
"211 496 OFFCURVE",
"261 499 OFFCURVE",
"300 500 CURVE",
"294 489 OFFCURVE",
"288 480 OFFCURVE",
"287 477 CURVE",
"261 441 OFFCURVE",
"271 441 OFFCURVE",
"251 404 CURVE",
"251 402 OFFCURVE",
"235 381 OFFCURVE",
"233 373 CURVE",
"233 374 OFFCURVE",
"118 171 OFFCURVE",
"117 170 CURVE",
"102 142 OFFCURVE",
"88 104 OFFCURVE",
"68 71 CURVE",
"37 -7 OFFCURVE",
"29 -46 OFFCURVE",
"29 -67 CURVE SMOOTH",
"29 -88 OFFCURVE",
"37 -90 OFFCURVE",
"41 -95 CURVE",
"45 -98 OFFCURVE",
"45 -102 OFFCURVE",
"49 -106 CURVE SMOOTH",
"50 -107 LINE"
);
},
{
closed = 1;
nodes = (
"192 193 OFFCURVE",
"215 234 OFFCURVE",
"227 259 CURVE SMOOTH",
"250 308 OFFCURVE",
"291 362 OFFCURVE",
"299 374 CURVE SMOOTH",
"311 392 OFFCURVE",
"354 472 OFFCURVE",
"371 497 CURVE SMOOTH",
"375 503 LINE",
"417 504 OFFCURVE",
"461 503 OFFCURVE",
"503 496 CURVE SMOOTH",
"509 495 OFFCURVE",
"531 496 OFFCURVE",
"553 485 CURVE",
"552 485 LINE",
"570 475 OFFCURVE",
"599 453 OFFCURVE",
"599 423 CURVE SMOOTH",
"599 400 OFFCURVE",
"596 382 OFFCURVE",
"582 352 CURVE SMOOTH",
"581 350 LINE",
"581 345 OFFCURVE",
"580 341 OFFCURVE",
"577 337 CURVE SMOOTH",
"573 332 OFFCURVE",
"563 327 OFFCURVE",
"557 320 CURVE SMOOTH",
"523 281 OFFCURVE",
"410 197 OFFCURVE",
"323 179 CURVE SMOOTH",
"296 173 OFFCURVE",
"238 155 OFFCURVE",
"171 155 CURVE SMOOTH",
"169 155 LINE"
);
}
);
};
layerId = "960B82ED-BAE9-407E-815C-F6C3A86A2215";
paths = (
{
closed = 1;
nodes = (
"51 -99 OFFCURVE",
"59 -101 OFFCURVE",
"70 -94 CURVE",
"77 -88 OFFCURVE",
"87 -77 OFFCURVE",
"95 -69 CURVE SMOOTH",
"96 -68 LINE",
"114 -5 LINE",
"115 -3 OFFCURVE",
"113 0 OFFCURVE",
"111 0 CURVE",
"107 -2 OFFCURVE",
"98 16 OFFCURVE",
"98 25 CURVE SMOOTH",
"98 27 OFFCURVE",
"99 28 OFFCURVE",
"99 29 CURVE SMOOTH",
"102 46 OFFCURVE",
"109 49 OFFCURVE",
"118 74 CURVE",
"119 79 OFFCURVE",
"133 102 OFFCURVE",
"151 132 CURVE",
"179 132 LINE SMOOTH",
"187 132 OFFCURVE",
"203 138 OFFCURVE",
"207 138 CURVE SMOOTH",
"268 138 OFFCURVE",
"324 158 OFFCURVE",
"338 158 CURVE SMOOTH",
"375 158 OFFCURVE",
"437 180 OFFCURVE",
"467 196 CURVE",
"530 220 OFFCURVE",
"526 243 OFFCURVE",
"566 268 CURVE",
"571 273 OFFCURVE",
"581 272 OFFCURVE",
"588 277 CURVE SMOOTH",
"596 282 OFFCURVE",
"597 291 OFFCURVE",
"600 294 CURVE SMOOTH",
"622 312 OFFCURVE",
"637 329 OFFCURVE",
"647 345 CURVE",
"648 345 LINE",
"668 376 OFFCURVE",
"675 402 OFFCURVE",
"675 424 CURVE SMOOTH",
"675 448 OFFCURVE",
"667 468 OFFCURVE",
"658 485 CURVE SMOOTH",
"636 528 OFFCURVE",
"553 545 OFFCURVE",
"476 549 CURVE SMOOTH",
"469 549 OFFCURVE",
"463 548 OFFCURVE",
"460 548 CURVE SMOOTH",
"445 548 OFFCURVE",
"424 547 OFFCURVE",
"402 547 CURVE",
"422 571 OFFCURVE",
"442 615 OFFCURVE",
"462 639 CURVE SMOOTH",
"504 690 OFFCURVE",
"515 740 OFFCURVE",
"519 753 CURVE",
"516 768 OFFCURVE",
"506 776 OFFCURVE",
"494 776 CURVE SMOOTH",
"487 776 OFFCURVE",
"478 773 OFFCURVE",
"470 767 CURVE",
"468 773 OFFCURVE",
"422 703 OFFCURVE",
"404 671 CURVE",
"375 631 OFFCURVE",
"339 575 OFFCURVE",
"322 545 CURVE",
"269 544 OFFCURVE",
"175 541 OFFCURVE",
"91 498 CURVE",
"70 490 OFFCURVE",
"63 478 OFFCURVE",
"63 469 CURVE SMOOTH",
"63 461 OFFCURVE",
"70 454 OFFCURVE",
"79 454 CURVE SMOOTH",
"84 454 OFFCURVE",
"89 455 OFFCURVE",
"94 459 CURVE SMOOTH",
"117 476 OFFCURVE",
"168 497 OFFCURVE",
"199 502 CURVE SMOOTH",
"211 504 OFFCURVE",
"261 507 OFFCURVE",
"300 508 CURVE",
"294 497 OFFCURVE",
"288 488 OFFCURVE",
"287 485 CURVE",
"261 449 OFFCURVE",
"271 449 OFFCURVE",
"251 412 CURVE",
"251 410 OFFCURVE",
"235 389 OFFCURVE",
"233 381 CURVE",
"233 382 OFFCURVE",
"118 179 OFFCURVE",
"117 178 CURVE",
"102 150 OFFCURVE",
"88 112 OFFCURVE",
"68 79 CURVE",
"37 1 OFFCURVE",
"29 -38 OFFCURVE",
"29 -59 CURVE SMOOTH",
"29 -80 OFFCURVE",
"37 -82 OFFCURVE",
"41 -87 CURVE",
"45 -90 OFFCURVE",
"45 -94 OFFCURVE",
"49 -98 CURVE SMOOTH",
"50 -99 LINE"
);
},
{
closed = 1;
nodes = (
"192 201 OFFCURVE",
"215 242 OFFCURVE",
"227 267 CURVE SMOOTH",
"250 316 OFFCURVE",
"291 370 OFFCURVE",
"299 382 CURVE SMOOTH",
"311 400 OFFCURVE",
"354 480 OFFCURVE",
"371 505 CURVE SMOOTH",
"375 511 LINE",
"417 512 OFFCURVE",
"461 511 OFFCURVE",
"503 504 CURVE SMOOTH",
"509 503 OFFCURVE",
"531 504 OFFCURVE",
"553 493 CURVE",
"552 493 LINE",
"570 483 OFFCURVE",
"599 461 OFFCURVE",
"599 431 CURVE SMOOTH",
"599 408 OFFCURVE",
"596 390 OFFCURVE",
"582 360 CURVE SMOOTH",
"581 358 LINE",
"581 353 OFFCURVE",
"580 349 OFFCURVE",
"577 345 CURVE SMOOTH",
"573 340 OFFCURVE",
"563 335 OFFCURVE",
"557 328 CURVE SMOOTH",
"523 289 OFFCURVE",
"410 205 OFFCURVE",
"323 187 CURVE SMOOTH",
"296 181 OFFCURVE",
"238 163 OFFCURVE",
"171 163 CURVE SMOOTH",
"169 163 LINE"
);
}
);
width = 579;
}
);
note = Thorn;
unicode = 00DE;
},
{
glyphname = Q;
lastChange = "2021-11-09 21:29:53 +0000";
layers = (
{
background = {
paths = (
{
closed = 1;
nodes = (
"303 -29 OFFCURVE",
"366 -11 OFFCURVE",
"388 -5 CURVE SMOOTH",
"406 0 OFFCURVE",
"420 14 OFFCURVE",
"437 20 CURVE",
"450 27 OFFCURVE",
"474 20 OFFCURVE",
"483 37 CURVE",
"485 43 OFFCURVE",
"484 39 OFFCURVE",
"494 41 CURVE",
"497 35 OFFCURVE",
"503 44 OFFCURVE",
"504 43 CURVE",
"506 43 LINE",
"557 77 OFFCURVE",
"647 130 OFFCURVE",
"705 235 CURVE SMOOTH",
"736 290 OFFCURVE",
"748 342 OFFCURVE",
"748 386 CURVE",
"747 395 OFFCURVE",
"738 397 OFFCURVE",
"739 400 CURVE",
"739 409 OFFCURVE",
"740 421 OFFCURVE",
"740 429 CURVE SMOOTH",
"740 430 LINE",
"734 450 OFFCURVE",
"719 464 OFFCURVE",
"708 478 CURVE SMOOTH",
"701 487 OFFCURVE",
"694 495 OFFCURVE",
"685 501 CURVE",
"698 500 OFFCURVE",
"715 520 OFFCURVE",
"715 542 CURVE SMOOTH",
"715 546 OFFCURVE",
"714 550 OFFCURVE",
"713 554 CURVE SMOOTH",
"707 575 OFFCURVE",
"712 605 OFFCURVE",
"669 615 CURVE SMOOTH",
"652 619 OFFCURVE",
"629 621 OFFCURVE",
"605 621 CURVE SMOOTH",
"554 621 OFFCURVE",
"495 613 OFFCURVE",
"458 598 CURVE SMOOTH",
"414 581 OFFCURVE",
"357 564 OFFCURVE",
"318 536 CURVE",
"310 529 OFFCURVE",
"310 510 OFFCURVE",
"304 506 CURVE",
"301 503 OFFCURVE",
"295 503 OFFCURVE",
"289 503 CURVE SMOOTH",
"283 503 OFFCURVE",
"276 503 OFFCURVE",
"270 499 CURVE SMOOTH",
"259 490 OFFCURVE",
"249 480 OFFCURVE",
"238 470 CURVE SMOOTH",
"143 383 OFFCURVE",
"82 300 OFFCURVE",
"59 202 CURVE SMOOTH",
"56 188 OFFCURVE",
"53 168 OFFCURVE",
"53 147 CURVE SMOOTH",
"53 98 OFFCURVE",
"65 39 OFFCURVE",
"99 11 CURVE SMOOTH",
"137 -19 OFFCURVE",
"187 -29 OFFCURVE",
"236 -29 CURVE SMOOTH"
);
},
{
closed = 1;
nodes = (
"617 -207 OFFCURVE",
"659 -176 OFFCURVE",
"674 -153 CURVE SMOOTH",
"679 -145 OFFCURVE",
"680 -139 OFFCURVE",
"680 -133 CURVE SMOOTH",
"680 -123 OFFCURVE",
"675 -116 OFFCURVE",
"677 -114 CURVE",
"677 -108 OFFCURVE",
"676 -106 OFFCURVE",
"673 -106 CURVE SMOOTH",
"668 -106 OFFCURVE",
"658 -118 OFFCURVE",
"647 -128 CURVE SMOOTH",
"642 -132 OFFCURVE",
"643 -143 OFFCURVE",
"641 -146 CURVE SMOOTH",
"637 -152 OFFCURVE",
"627 -153 OFFCURVE",
"619 -158 CURVE SMOOTH",
"605 -166 OFFCURVE",
"587 -170 OFFCURVE",
"564 -170 CURVE SMOOTH",
"547 -170 OFFCURVE",
"526 -167 OFFCURVE",
"503 -163 CURVE SMOOTH",
"466 -156 OFFCURVE",
"429 -143 OFFCURVE",
"391 -128 CURVE SMOOTH",
"383 -125 OFFCURVE",
"374 -130 OFFCURVE",
"370 -127 CURVE",
"361 -124 OFFCURVE",
"355 -113 OFFCURVE",
"344 -108 CURVE SMOOTH",
"282 -82 OFFCURVE",
"221 -55 OFFCURVE",
"163 -44 CURVE SMOOTH",
"153 -43 OFFCURVE",
"144 -51 OFFCURVE",
"138 -51 CURVE SMOOTH",
"137 -51 LINE SMOOTH",
"127 -50 OFFCURVE",
"116 -41 OFFCURVE",
"104 -41 CURVE SMOOTH",
"85 -41 OFFCURVE",
"55 -54 OFFCURVE",
"45 -72 CURVE SMOOTH",
"39 -81 OFFCURVE",
"34 -97 OFFCURVE",
"34 -110 CURVE SMOOTH",
"34 -116 OFFCURVE",
"35 -121 OFFCURVE",
"37 -125 CURVE SMOOTH",
"43 -135 OFFCURVE",
"59 -130 OFFCURVE",
"62 -133 CURVE SMOOTH",
"65 -135 OFFCURVE",
"67 -136 OFFCURVE",
"70 -136 CURVE SMOOTH",
"77 -136 OFFCURVE",
"85 -129 OFFCURVE",
"101 -122 CURVE SMOOTH",
"113 -116 OFFCURVE",
"117 -107 OFFCURVE",
"145 -107 CURVE SMOOTH",
"247 -107 OFFCURVE",
"352 -163 OFFCURVE",
"455 -190 CURVE SMOOTH",
"461 -191 OFFCURVE",
"471 -200 OFFCURVE",
"479 -203 CURVE SMOOTH",
"491 -206 OFFCURVE",
"498 -201 OFFCURVE",
"506 -203 CURVE SMOOTH",
"507 -203 LINE SMOOTH",
"523 -203 OFFCURVE",
"539 -207 OFFCURVE",
"554 -207 CURVE SMOOTH"
);
},
{
closed = 1;
nodes = (
"207 5 OFFCURVE",
"156 14 OFFCURVE",
"135 53 CURVE SMOOTH",
"124 73 OFFCURVE",
"114 104 OFFCURVE",
"114 136 CURVE SMOOTH",
"114 154 OFFCURVE",
"117 173 OFFCURVE",
"125 190 CURVE SMOOTH",
"139 220 OFFCURVE",
"143 279 OFFCURVE",
"173 321 CURVE SMOOTH",
"178 329 OFFCURVE",
"195 347 OFFCURVE",
"202 355 CURVE SMOOTH",
"211 367 OFFCURVE",
"210 367 OFFCURVE",
"218 378 CURVE",
"280 449 OFFCURVE",
"380 500 OFFCURVE",
"483 546 CURVE SMOOTH",
"516 561 OFFCURVE",
"546 565 OFFCURVE",
"571 565 CURVE SMOOTH",
"588 565 OFFCURVE",
"603 563 OFFCURVE",
"615 561 CURVE SMOOTH",
"616 561 LINE SMOOTH",
"637 557 OFFCURVE",
"657 543 OFFCURVE",
"657 543 CURVE",
"657 534 OFFCURVE",
"670 523 OFFCURVE",
"670 517 CURVE SMOOTH",
"670 516 LINE",
"673 510 LINE",
"651 523 OFFCURVE",
"626 527 OFFCURVE",
"600 527 CURVE SMOOTH",
"523 527 OFFCURVE",
"495 502 OFFCURVE",
"495 489 CURVE SMOOTH",
"495 485 OFFCURVE",
"498 482 OFFCURVE",
"504 482 CURVE SMOOTH",
"508 482 OFFCURVE",
"514 483 OFFCURVE",
"520 487 CURVE SMOOTH",
"537 497 OFFCURVE",
"558 502 OFFCURVE",
"580 502 CURVE SMOOTH",
"616 502 OFFCURVE",
"650 481 OFFCURVE",
"670 444 CURVE",
"675 437 OFFCURVE",
"683 433 OFFCURVE",
"683 429 CURVE SMOOTH",
"683 423 OFFCURVE",
"689 404 OFFCURVE",
"689 400 CURVE SMOOTH",
"689 388 OFFCURVE",
"686 374 OFFCURVE",
"686 359 CURVE SMOOTH",
"686 326 OFFCURVE",
"681 295 OFFCURVE",
"657 250 CURVE SMOOTH",
"635 208 OFFCURVE",
"607 182 OFFCURVE",
"590 160 CURVE",
"583 154 OFFCURVE",
"572 146 OFFCURVE",
"561 137 CURVE SMOOTH",
"520 103 OFFCURVE",
"486 68 OFFCURVE",
"421 44 CURVE SMOOTH",
"408 39 OFFCURVE",
"388 32 OFFCURVE",
"377 32 CURVE SMOOTH",
"365 32 OFFCURVE",
"335 12 OFFCURVE",
"327 12 CURVE SMOOTH",
"326 12 LINE SMOOTH",
"314 10 OFFCURVE",
"284 5 OFFCURVE",
"252 5 CURVE SMOOTH"
);
}
);
};
layerId = "960B82ED-BAE9-407E-815C-F6C3A86A2215";
paths = (
{
closed = 1;
nodes = (
"303 -21 OFFCURVE",
"366 -3 OFFCURVE",
"388 3 CURVE SMOOTH",
"406 8 OFFCURVE",
"420 22 OFFCURVE",
"437 28 CURVE",
"450 35 OFFCURVE",
"474 28 OFFCURVE",
"483 45 CURVE",
"485 51 OFFCURVE",
"484 47 OFFCURVE",
"494 49 CURVE",
"497 43 OFFCURVE",
"503 52 OFFCURVE",
"504 51 CURVE",
"506 51 LINE",
"557 85 OFFCURVE",
"647 138 OFFCURVE",
"705 243 CURVE SMOOTH",
"736 298 OFFCURVE",
"748 350 OFFCURVE",
"748 394 CURVE",
"747 403 OFFCURVE",
"738 405 OFFCURVE",
"739 408 CURVE",
"739 417 OFFCURVE",
"740 429 OFFCURVE",
"740 437 CURVE SMOOTH",
"740 438 LINE",
"734 458 OFFCURVE",
"719 472 OFFCURVE",
"708 486 CURVE SMOOTH",
"701 495 OFFCURVE",
"694 503 OFFCURVE",
"685 509 CURVE",
"698 508 OFFCURVE",
"715 528 OFFCURVE",
"715 550 CURVE SMOOTH",
"715 554 OFFCURVE",
"714 558 OFFCURVE",
"713 562 CURVE SMOOTH",
"707 583 OFFCURVE",
"712 613 OFFCURVE",
"669 623 CURVE SMOOTH",
"652 627 OFFCURVE",
"629 629 OFFCURVE",
"605 629 CURVE SMOOTH",
"554 629 OFFCURVE",
"495 621 OFFCURVE",
"458 606 CURVE SMOOTH",
"414 589 OFFCURVE",
"357 572 OFFCURVE",
"318 544 CURVE",
"310 537 OFFCURVE",
"310 518 OFFCURVE",
"304 514 CURVE",
"301 511 OFFCURVE",
"295 511 OFFCURVE",
"289 511 CURVE SMOOTH",
"283 511 OFFCURVE",
"276 511 OFFCURVE",
"270 507 CURVE SMOOTH",
"259 498 OFFCURVE",
"249 488 OFFCURVE",
"238 478 CURVE SMOOTH",
"143 391 OFFCURVE",
"82 308 OFFCURVE",
"59 210 CURVE SMOOTH",
"56 196 OFFCURVE",
"53 176 OFFCURVE",
"53 155 CURVE SMOOTH",
"53 106 OFFCURVE",
"65 47 OFFCURVE",
"99 19 CURVE SMOOTH",
"137 -11 OFFCURVE",
"187 -21 OFFCURVE",
"236 -21 CURVE SMOOTH"
);
},
{
closed = 1;
nodes = (
"617 -199 OFFCURVE",
"659 -168 OFFCURVE",
"674 -145 CURVE SMOOTH",
"679 -137 OFFCURVE",
"680 -131 OFFCURVE",
"680 -125 CURVE SMOOTH",
"680 -117 OFFCURVE",
"677 -110 OFFCURVE",
"677 -107 CURVE SMOOTH",
"677 -106 LINE SMOOTH",
"677 -100 OFFCURVE",
"676 -98 OFFCURVE",
"673 -98 CURVE SMOOTH",
"668 -98 OFFCURVE",
"658 -110 OFFCURVE",
"647 -120 CURVE SMOOTH",
"642 -124 OFFCURVE",
"643 -135 OFFCURVE",
"641 -138 CURVE SMOOTH",
"637 -144 OFFCURVE",
"627 -145 OFFCURVE",
"619 -150 CURVE SMOOTH",
"605 -158 OFFCURVE",
"587 -162 OFFCURVE",
"564 -162 CURVE SMOOTH",
"547 -162 OFFCURVE",
"526 -159 OFFCURVE",
"503 -155 CURVE SMOOTH",
"466 -148 OFFCURVE",
"429 -135 OFFCURVE",
"391 -120 CURVE SMOOTH",
"383 -117 OFFCURVE",
"374 -122 OFFCURVE",
"370 -119 CURVE",
"361 -116 OFFCURVE",
"355 -105 OFFCURVE",
"344 -100 CURVE SMOOTH",
"282 -74 OFFCURVE",
"221 -47 OFFCURVE",
"163 -36 CURVE SMOOTH",
"153 -35 OFFCURVE",
"144 -43 OFFCURVE",
"138 -43 CURVE SMOOTH",
"137 -43 LINE SMOOTH",
"127 -42 OFFCURVE",
"116 -33 OFFCURVE",
"104 -33 CURVE SMOOTH",
"85 -33 OFFCURVE",
"55 -46 OFFCURVE",
"45 -64 CURVE SMOOTH",
"39 -73 OFFCURVE",
"34 -89 OFFCURVE",
"34 -102 CURVE SMOOTH",
"34 -108 OFFCURVE",
"35 -113 OFFCURVE",
"37 -117 CURVE SMOOTH",
"43 -127 OFFCURVE",
"59 -122 OFFCURVE",
"62 -125 CURVE SMOOTH",
"65 -127 OFFCURVE",
"67 -128 OFFCURVE",
"70 -128 CURVE SMOOTH",
"77 -128 OFFCURVE",
"85 -121 OFFCURVE",
"101 -114 CURVE SMOOTH",
"113 -108 OFFCURVE",
"117 -99 OFFCURVE",
"145 -99 CURVE SMOOTH",
"247 -99 OFFCURVE",
"352 -155 OFFCURVE",
"455 -182 CURVE SMOOTH",
"461 -183 OFFCURVE",
"471 -192 OFFCURVE",
"479 -195 CURVE SMOOTH",
"491 -198 OFFCURVE",
"498 -193 OFFCURVE",
"506 -195 CURVE SMOOTH",
"507 -195 LINE SMOOTH",
"523 -195 OFFCURVE",
"539 -199 OFFCURVE",
"554 -199 CURVE SMOOTH"
);
},
{
closed = 1;
nodes = (
"207 13 OFFCURVE",
"156 22 OFFCURVE",
"135 61 CURVE SMOOTH",
"124 81 OFFCURVE",
"114 112 OFFCURVE",
"114 144 CURVE SMOOTH",
"114 162 OFFCURVE",
"117 181 OFFCURVE",
"125 198 CURVE SMOOTH",
"139 228 OFFCURVE",
"143 287 OFFCURVE",
"173 329 CURVE SMOOTH",
"178 337 OFFCURVE",
"195 355 OFFCURVE",
"202 363 CURVE SMOOTH",
"211 375 OFFCURVE",
"210 375 OFFCURVE",
"218 386 CURVE",
"280 457 OFFCURVE",
"380 508 OFFCURVE",
"483 554 CURVE SMOOTH",
"516 569 OFFCURVE",
"546 573 OFFCURVE",
"571 573 CURVE SMOOTH",
"588 573 OFFCURVE",
"603 571 OFFCURVE",
"615 569 CURVE SMOOTH",
"616 569 LINE SMOOTH",
"637 565 OFFCURVE",
"657 551 OFFCURVE",
"657 551 CURVE",
"657 542 OFFCURVE",
"670 531 OFFCURVE",
"670 525 CURVE SMOOTH",
"670 524 LINE",
"673 518 LINE",
"651 531 OFFCURVE",
"626 535 OFFCURVE",
"600 535 CURVE SMOOTH",
"523 535 OFFCURVE",
"495 510 OFFCURVE",
"495 497 CURVE SMOOTH",
"495 493 OFFCURVE",
"498 490 OFFCURVE",
"504 490 CURVE SMOOTH",
"508 490 OFFCURVE",
"514 491 OFFCURVE",
"520 495 CURVE SMOOTH",
"537 505 OFFCURVE",
"558 510 OFFCURVE",
"580 510 CURVE SMOOTH",
"616 510 OFFCURVE",
"650 489 OFFCURVE",
"670 452 CURVE",
"675 445 OFFCURVE",
"683 441 OFFCURVE",
"683 437 CURVE SMOOTH",
"683 431 OFFCURVE",
"689 412 OFFCURVE",
"689 408 CURVE SMOOTH",
"689 396 OFFCURVE",
"686 382 OFFCURVE",
"686 367 CURVE SMOOTH",
"686 334 OFFCURVE",
"681 303 OFFCURVE",
"657 258 CURVE SMOOTH",
"635 216 OFFCURVE",
"607 190 OFFCURVE",
"590 168 CURVE",
"583 162 OFFCURVE",
"572 154 OFFCURVE",
"561 145 CURVE SMOOTH",
"520 111 OFFCURVE",
"486 76 OFFCURVE",
"421 52 CURVE SMOOTH",
"408 47 OFFCURVE",
"388 40 OFFCURVE",
"377 40 CURVE SMOOTH",
"365 40 OFFCURVE",
"335 20 OFFCURVE",
"327 20 CURVE SMOOTH",
"326 20 LINE SMOOTH",
"314 18 OFFCURVE",
"284 13 OFFCURVE",
"252 13 CURVE SMOOTH"
);
}
);
width = 714;
}
);
note = Q;
unicode = 0051;
},
{
glyphname = R;
lastChange = "2021-11-09 21:29:53 +0000";
layers = (
{
anchors = (
{
name = bottom;
position = "{185, 0}";
},
{
name = top;
position = "{620, 640}";
}
);
background = {
paths = (
{
closed = 1;
nodes = (
"-78 -174 OFFCURVE",
"-63 -158 OFFCURVE",
"-52 -112 CURVE SMOOTH",
"-38 -57 OFFCURVE",
"-12 -30 OFFCURVE",
"-8 -18 CURVE SMOOTH",
"-4 -3 OFFCURVE",
"23 36 OFFCURVE",
"33 58 CURVE SMOOTH",
"40 72 OFFCURVE",
"75 92 OFFCURVE",
"88 110 CURVE",
"95 123 OFFCURVE",
"101 143 OFFCURVE",
"140 194 CURVE",
"176 167 OFFCURVE",
"222 134 OFFCURVE",
"227 127 CURVE SMOOTH",
"240 112 OFFCURVE",
"323 31 OFFCURVE",
"369 -2 CURVE SMOOTH",
"416 -35 OFFCURVE",
"518 -101 OFFCURVE",
"545 -102 CURVE",
"550 -104 OFFCURVE",
"560 -99 OFFCURVE",
"560 -92 CURVE SMOOTH",
"560 -87 OFFCURVE",
"555 -80 OFFCURVE",
"538 -73 CURVE",
"539 -73 LINE",
"508 -56 OFFCURVE",
"442 -6 OFFCURVE",
"422 10 CURVE",
"419 17 OFFCURVE",
"408 20 OFFCURVE",
"402 22 CURVE",
"399 26 OFFCURVE",
"401 32 OFFCURVE",
"393 40 CURVE SMOOTH",
"341 94 OFFCURVE",
"289 146 OFFCURVE",
"274 167 CURVE",
"274 167 OFFCURVE",
"263 179 OFFCURVE",
"253 191 CURVE",
"278 197 OFFCURVE",
"308 200 OFFCURVE",
"308 200 CURVE",
"333 204 OFFCURVE",
"354 202 OFFCURVE",
"375 212 CURVE",
"374 212 LINE SMOOTH",
"395 212 OFFCURVE",
"423 232 OFFCURVE",
"442 239 CURVE SMOOTH",
"511 266 OFFCURVE",
"540 278 OFFCURVE",
"587 305 CURVE SMOOTH",
"631 330 LINE",
"638 335 OFFCURVE",
"648 334 OFFCURVE",
"656 340 CURVE SMOOTH",
"731 391 OFFCURVE",
"760 439 OFFCURVE",
"760 481 CURVE SMOOTH",
"760 586 OFFCURVE",
"577 656 OFFCURVE",
"451 656 CURVE SMOOTH",
"356 656 OFFCURVE",
"175 618 OFFCURVE",
"70 526 CURVE",
"68 523 OFFCURVE",
"42 496 OFFCURVE",
"38 488 CURVE SMOOTH",
"17 447 OFFCURVE",
"15 483 OFFCURVE",
"15 420 CURVE SMOOTH",
"15 419 LINE",
"25 402 OFFCURVE",
"52 403 OFFCURVE",
"83 403 CURVE SMOOTH",
"89 403 OFFCURVE",
"115 409 OFFCURVE",
"126 419 CURVE",
"134 424 OFFCURVE",
"138 427 OFFCURVE",
"138 430 CURVE SMOOTH",
"138 438 OFFCURVE",
"108 439 OFFCURVE",
"107 462 CURVE SMOOTH",
"103 587 OFFCURVE",
"363 635 OFFCURVE",
"443 631 CURVE SMOOTH",
"580 624 OFFCURVE",
"675 587 OFFCURVE",
"678 517 CURVE SMOOTH",
"680 460 OFFCURVE",
"669 437 OFFCURVE",
"633 396 CURVE SMOOTH",
"578 333 OFFCURVE",
"468 252 OFFCURVE",
"354 249 CURVE SMOOTH",
"324 248 OFFCURVE",
"279 235 OFFCURVE",
"218 235 CURVE",
"194 262 LINE",
"217 292 OFFCURVE",
"259 344 OFFCURVE",
"268 356 CURVE",
"282 370 OFFCURVE",
"340 403 OFFCURVE",
"357 428 CURVE SMOOTH",
"368 445 OFFCURVE",
"401 460 OFFCURVE",
"420 476 CURVE SMOOTH",
"451 504 OFFCURVE",
"459 534 OFFCURVE",
"462 556 CURVE SMOOTH",
"462 555 LINE SMOOTH",
"463 569 OFFCURVE",
"452 574 OFFCURVE",
"435 574 CURVE SMOOTH",
"412 574 OFFCURVE",
"377 563 OFFCURVE",
"355 552 CURVE SMOOTH",
"343 546 OFFCURVE",
"328 528 OFFCURVE",
"318 519 CURVE SMOOTH",
"308 509 OFFCURVE",
"289 472 OFFCURVE",
"282 463 CURVE SMOOTH",
"253 430 OFFCURVE",
"202 373 OFFCURVE",
"177 337 CURVE",
"177 337 OFFCURVE",
"165 322 OFFCURVE",
"152 307 CURVE",
"148 310 OFFCURVE",
"146 314 OFFCURVE",
"146 314 CURVE",
"146 315 LINE",
"143 317 OFFCURVE",
"139 318 OFFCURVE",
"135 318 CURVE SMOOTH",
"113 318 OFFCURVE",
"79 290 OFFCURVE",
"79 260 CURVE SMOOTH",
"79 250 OFFCURVE",
"83 239 OFFCURVE",
"93 229 CURVE",
"70 195 OFFCURVE",
"41 151 OFFCURVE",
"21 120 CURVE SMOOTH",
"4 94 OFFCURVE",
"-50 -3 OFFCURVE",
"-70 -45 CURVE SMOOTH",
"-93 -92 OFFCURVE",
"-100 -140 OFFCURVE",
"-101 -154 CURVE SMOOTH",
"-101 -166 OFFCURVE",
"-96 -174 OFFCURVE",
"-89 -174 CURVE SMOOTH"
);
}
);
};
layerId = "960B82ED-BAE9-407E-815C-F6C3A86A2215";
paths = (
{
closed = 1;
nodes = (
"-78 -166 OFFCURVE",
"-63 -150 OFFCURVE",
"-52 -104 CURVE SMOOTH",
"-38 -49 OFFCURVE",
"-12 -22 OFFCURVE",
"-8 -10 CURVE SMOOTH",
"-4 5 OFFCURVE",
"23 44 OFFCURVE",
"33 66 CURVE SMOOTH",
"40 80 OFFCURVE",
"75 100 OFFCURVE",
"88 118 CURVE",
"95 131 OFFCURVE",
"101 151 OFFCURVE",
"140 202 CURVE",
"176 175 OFFCURVE",
"222 142 OFFCURVE",
"227 135 CURVE SMOOTH",
"240 120 OFFCURVE",
"323 39 OFFCURVE",
"369 6 CURVE SMOOTH",
"416 -27 OFFCURVE",
"518 -93 OFFCURVE",
"545 -94 CURVE",
"550 -96 OFFCURVE",
"560 -91 OFFCURVE",
"560 -84 CURVE SMOOTH",
"560 -79 OFFCURVE",
"555 -72 OFFCURVE",
"538 -65 CURVE",
"539 -65 LINE",
"508 -48 OFFCURVE",
"442 2 OFFCURVE",
"422 18 CURVE",
"419 25 OFFCURVE",
"408 28 OFFCURVE",
"402 30 CURVE",
"399 34 OFFCURVE",
"401 40 OFFCURVE",
"393 48 CURVE SMOOTH",
"341 102 OFFCURVE",
"289 154 OFFCURVE",
"274 175 CURVE",
"274 175 OFFCURVE",
"263 187 OFFCURVE",
"253 199 CURVE",
"278 205 OFFCURVE",
"308 208 OFFCURVE",
"308 208 CURVE",
"333 212 OFFCURVE",
"354 210 OFFCURVE",
"375 220 CURVE",
"374 220 LINE SMOOTH",
"353 220 OFFCURVE",
"423 240 OFFCURVE",
"442 247 CURVE SMOOTH",
"511 274 OFFCURVE",
"540 286 OFFCURVE",
"587 313 CURVE SMOOTH",
"631 338 LINE",
"638 343 OFFCURVE",
"648 342 OFFCURVE",
"656 348 CURVE SMOOTH",
"731 399 OFFCURVE",
"760 447 OFFCURVE",
"760 489 CURVE SMOOTH",
"760 594 OFFCURVE",
"577 664 OFFCURVE",
"451 664 CURVE SMOOTH",
"356 664 OFFCURVE",
"175 626 OFFCURVE",
"70 534 CURVE",
"68 531 OFFCURVE",
"42 504 OFFCURVE",
"38 496 CURVE SMOOTH",
"17 455 OFFCURVE",
"15 491 OFFCURVE",
"15 428 CURVE SMOOTH",
"15 427 LINE",
"25 410 OFFCURVE",
"52 411 OFFCURVE",
"83 411 CURVE SMOOTH",
"89 411 OFFCURVE",
"115 417 OFFCURVE",
"126 427 CURVE",
"134 432 OFFCURVE",
"138 435 OFFCURVE",
"138 438 CURVE SMOOTH",
"138 446 OFFCURVE",
"107 447 OFFCURVE",
"107 473 CURVE SMOOTH",
"107 596 OFFCURVE",
"364 643 OFFCURVE",
"443 639 CURVE SMOOTH",
"580 632 OFFCURVE",
"675 595 OFFCURVE",
"678 525 CURVE SMOOTH",
"680 468 OFFCURVE",
"669 445 OFFCURVE",
"633 404 CURVE SMOOTH",
"578 341 OFFCURVE",
"468 260 OFFCURVE",
"354 257 CURVE SMOOTH",
"324 256 OFFCURVE",
"279 243 OFFCURVE",
"218 243 CURVE",
"194 270 LINE",
"217 300 OFFCURVE",
"259 352 OFFCURVE",
"268 364 CURVE",
"282 378 OFFCURVE",
"340 411 OFFCURVE",
"357 436 CURVE SMOOTH",
"368 453 OFFCURVE",
"401 468 OFFCURVE",
"420 484 CURVE SMOOTH",
"451 512 OFFCURVE",
"462 586 OFFCURVE",
"462 564 CURVE SMOOTH",
"462 563 LINE SMOOTH",
"462 549 OFFCURVE",
"452 582 OFFCURVE",
"435 582 CURVE SMOOTH",
"412 582 OFFCURVE",
"377 571 OFFCURVE",
"355 560 CURVE SMOOTH",
"343 554 OFFCURVE",
"328 536 OFFCURVE",
"318 527 CURVE SMOOTH",
"308 517 OFFCURVE",
"289 480 OFFCURVE",
"282 471 CURVE SMOOTH",
"253 438 OFFCURVE",
"202 381 OFFCURVE",
"177 345 CURVE",
"177 345 OFFCURVE",
"165 330 OFFCURVE",
"152 315 CURVE",
"148 318 OFFCURVE",
"146 322 OFFCURVE",
"146 322 CURVE",
"146 323 LINE",
"143 325 OFFCURVE",
"139 326 OFFCURVE",
"135 326 CURVE SMOOTH",
"113 326 OFFCURVE",
"79 298 OFFCURVE",
"79 268 CURVE SMOOTH",
"79 258 OFFCURVE",
"83 247 OFFCURVE",
"93 237 CURVE",
"70 203 OFFCURVE",
"41 159 OFFCURVE",
"21 128 CURVE SMOOTH",
"4 102 OFFCURVE",
"-50 5 OFFCURVE",
"-70 -37 CURVE SMOOTH",
"-93 -84 OFFCURVE",
"-100 -132 OFFCURVE",
"-101 -146 CURVE SMOOTH",
"-101 -158 OFFCURVE",
"-96 -166 OFFCURVE",
"-89 -166 CURVE SMOOTH"
);
}
);
width = 624;
}
);
note = R;
unicode = 0052;
},
{
glyphname = S;
lastChange = "2021-11-09 21:29:53 +0000";
layers = (
{
anchors = (
{
name = bottom;
position = "{215, -49}";
},
{
name = top;
position = "{546, 677}";
}
);
background = {
paths = (
{
closed = 1;
nodes = (
"213 -81 OFFCURVE",
"467 -3 OFFCURVE",
"467 97 CURVE SMOOTH",
"467 106 OFFCURVE",
"465 114 OFFCURVE",
"461 123 CURVE SMOOTH",
"441 169 OFFCURVE",
"299 226 OFFCURVE",
"207 251 CURVE SMOOTH",
"160 264 OFFCURVE",
"140 290 OFFCURVE",
"140 323 CURVE SMOOTH",
"140 375 OFFCURVE",
"190 443 OFFCURVE",
"259 503 CURVE",
"269 510 OFFCURVE",
"278 525 OFFCURVE",
"288 533 CURVE SMOOTH",
"296 539 OFFCURVE",
"304 538 OFFCURVE",
"314 545 CURVE SMOOTH",
"352 571 OFFCURVE",
"392 593 OFFCURVE",
"430 607 CURVE SMOOTH",
"475 623 OFFCURVE",
"546 630 OFFCURVE",
"602 637 CURVE SMOOTH",
"629 640 OFFCURVE",
"651 586 OFFCURVE",
"651 554 CURVE SMOOTH",
"651 547 OFFCURVE",
"649 541 OFFCURVE",
"647 537 CURVE",
"647 538 LINE",
"631 511 OFFCURVE",
"624 480 OFFCURVE",
"608 459 CURVE SMOOTH",
"603 453 OFFCURVE",
"597 438 OFFCURVE",
"594 435 CURVE SMOOTH",
"579 417 OFFCURVE",
"567 402 OFFCURVE",
"560 396 CURVE SMOOTH",
"541 381 OFFCURVE",
"515 378 OFFCURVE",
"516 378 CURVE",
"514 377 LINE",
"499 363 OFFCURVE",
"494 350 OFFCURVE",
"494 341 CURVE SMOOTH",
"494 327 OFFCURVE",
"506 318 OFFCURVE",
"519 318 CURVE SMOOTH",
"522 318 OFFCURVE",
"525 318 OFFCURVE",
"528 319 CURVE SMOOTH",
"536 322 OFFCURVE",
"562 343 OFFCURVE",
"570 350 CURVE SMOOTH",
"578 357 OFFCURVE",
"593 366 OFFCURVE",
"598 372 CURVE",
"610 383 OFFCURVE",
"615 385 OFFCURVE",
"622 394 CURVE SMOOTH",
"648 427 OFFCURVE",
"721 481 OFFCURVE",
"721 564 CURVE SMOOTH",
"721 572 OFFCURVE",
"721 580 OFFCURVE",
"719 589 CURVE SMOOTH",
"709 650 OFFCURVE",
"658 669 OFFCURVE",
"597 669 CURVE SMOOTH",
"527 669 OFFCURVE",
"444 644 OFFCURVE",
"391 626 CURVE SMOOTH",
"317 602 OFFCURVE",
"210 525 OFFCURVE",
"137 445 CURVE SMOOTH",
"126 433 OFFCURVE",
"116 421 OFFCURVE",
"107 409 CURVE SMOOTH",
"103 402 OFFCURVE",
"103 383 OFFCURVE",
"96 373 CURVE SMOOTH",
"93 368 OFFCURVE",
"80 370 OFFCURVE",
"75 364 CURVE",
"75 365 LINE",
"60 341 OFFCURVE",
"53 319 OFFCURVE",
"53 300 CURVE SMOOTH",
"53 265 OFFCURVE",
"78 239 OFFCURVE",
"131 220 CURVE SMOOTH",
"145 216 OFFCURVE",
"163 197 OFFCURVE",
"182 197 CURVE SMOOTH",
"192 197 OFFCURVE",
"202 199 OFFCURVE",
"211 199 CURVE SMOOTH",
"215 199 OFFCURVE",
"218 198 OFFCURVE",
"222 197 CURVE SMOOTH",
"232 194 OFFCURVE",
"240 183 OFFCURVE",
"252 179 CURVE SMOOTH",
"314 157 OFFCURVE",
"369 134 OFFCURVE",
"383 109 CURVE SMOOTH",
"389 100 OFFCURVE",
"392 91 OFFCURVE",
"392 82 CURVE SMOOTH",
"392 65 OFFCURVE",
"380 49 OFFCURVE",
"364 34 CURVE SMOOTH",
"355 25 OFFCURVE",
"343 17 OFFCURVE",
"330 10 CURVE",
"325 6 OFFCURVE",
"321 8 OFFCURVE",
"314 8 CURVE SMOOTH",
"312 8 OFFCURVE",
"309 8 OFFCURVE",
"306 7 CURVE SMOOTH",
"283 -3 OFFCURVE",
"254 -21 OFFCURVE",
"223 -29 CURVE SMOOTH",
"197 -35 OFFCURVE",
"134 -40 OFFCURVE",
"108 -45 CURVE SMOOTH",
"102 -46 OFFCURVE",
"98 -47 OFFCURVE",
"94 -47 CURVE SMOOTH",
"87 -47 OFFCURVE",
"84 -44 OFFCURVE",
"84 -40 CURVE SMOOTH",
"84 -28 OFFCURVE",
"109 -4 OFFCURVE",
"93 -3 CURVE",
"59 -13 OFFCURVE",
"40 -36 OFFCURVE",
"40 -54 CURVE SMOOTH",
"40 -65 OFFCURVE",
"47 -74 OFFCURVE",
"63 -78 CURVE SMOOTH",
"72 -80 OFFCURVE",
"83 -81 OFFCURVE",
"96 -81 CURVE SMOOTH"
);
}
);
};
layerId = "960B82ED-BAE9-407E-815C-F6C3A86A2215";
paths = (
{
closed = 1;
nodes = (
"213 -73 OFFCURVE",
"467 5 OFFCURVE",
"467 105 CURVE SMOOTH",
"467 114 OFFCURVE",
"465 122 OFFCURVE",
"461 131 CURVE SMOOTH",
"441 177 OFFCURVE",
"299 234 OFFCURVE",
"207 259 CURVE SMOOTH",
"160 272 OFFCURVE",
"140 298 OFFCURVE",
"140 331 CURVE SMOOTH",
"140 383 OFFCURVE",
"190 451 OFFCURVE",
"259 511 CURVE",
"269 518 OFFCURVE",
"278 533 OFFCURVE",
"288 541 CURVE SMOOTH",
"296 547 OFFCURVE",
"304 546 OFFCURVE",
"314 553 CURVE SMOOTH",
"352 579 OFFCURVE",
"392 601 OFFCURVE",
"430 615 CURVE SMOOTH",
"475 631 OFFCURVE",
"546 638 OFFCURVE",
"602 645 CURVE SMOOTH",
"629 648 OFFCURVE",
"651 594 OFFCURVE",
"651 562 CURVE SMOOTH",
"651 555 OFFCURVE",
"649 549 OFFCURVE",
"647 545 CURVE",
"647 546 LINE",
"631 519 OFFCURVE",
"624 488 OFFCURVE",
"608 467 CURVE SMOOTH",
"603 461 OFFCURVE",
"597 446 OFFCURVE",
"594 443 CURVE SMOOTH",
"579 425 OFFCURVE",
"567 410 OFFCURVE",
"560 404 CURVE SMOOTH",
"541 389 OFFCURVE",
"515 386 OFFCURVE",
"516 386 CURVE",
"514 385 LINE",
"499 371 OFFCURVE",
"494 358 OFFCURVE",
"494 349 CURVE SMOOTH",
"494 335 OFFCURVE",
"506 326 OFFCURVE",
"519 326 CURVE SMOOTH",
"522 326 OFFCURVE",
"525 326 OFFCURVE",
"528 327 CURVE SMOOTH",
"536 330 OFFCURVE",
"562 351 OFFCURVE",
"570 358 CURVE SMOOTH",
"578 365 OFFCURVE",
"593 374 OFFCURVE",
"598 380 CURVE",
"610 391 OFFCURVE",
"615 393 OFFCURVE",
"622 402 CURVE SMOOTH",
"648 435 OFFCURVE",
"721 489 OFFCURVE",
"721 572 CURVE SMOOTH",
"721 580 OFFCURVE",
"721 588 OFFCURVE",
"719 597 CURVE SMOOTH",
"709 658 OFFCURVE",
"658 677 OFFCURVE",
"597 677 CURVE SMOOTH",
"527 677 OFFCURVE",
"444 652 OFFCURVE",
"391 634 CURVE SMOOTH",
"317 610 OFFCURVE",
"210 533 OFFCURVE",
"137 453 CURVE SMOOTH",
"126 441 OFFCURVE",
"116 429 OFFCURVE",
"107 417 CURVE SMOOTH",
"103 410 OFFCURVE",
"103 391 OFFCURVE",
"96 381 CURVE SMOOTH",
"93 376 OFFCURVE",
"80 378 OFFCURVE",
"75 372 CURVE",
"75 373 LINE",
"60 349 OFFCURVE",
"53 327 OFFCURVE",
"53 308 CURVE SMOOTH",
"53 273 OFFCURVE",
"78 247 OFFCURVE",
"131 228 CURVE SMOOTH",
"145 224 OFFCURVE",
"163 205 OFFCURVE",
"182 205 CURVE SMOOTH",
"192 205 OFFCURVE",
"202 207 OFFCURVE",
"211 207 CURVE SMOOTH",
"215 207 OFFCURVE",
"218 206 OFFCURVE",
"222 205 CURVE SMOOTH",
"232 202 OFFCURVE",
"240 191 OFFCURVE",
"252 187 CURVE SMOOTH",
"314 165 OFFCURVE",
"369 142 OFFCURVE",
"383 117 CURVE SMOOTH",
"389 108 OFFCURVE",
"392 99 OFFCURVE",
"392 90 CURVE SMOOTH",
"392 73 OFFCURVE",
"380 57 OFFCURVE",
"364 42 CURVE SMOOTH",
"355 33 OFFCURVE",
"343 25 OFFCURVE",
"330 18 CURVE",
"325 14 OFFCURVE",
"321 16 OFFCURVE",
"314 16 CURVE SMOOTH",
"312 16 OFFCURVE",
"309 16 OFFCURVE",
"306 15 CURVE SMOOTH",
"283 5 OFFCURVE",
"254 -13 OFFCURVE",
"223 -21 CURVE SMOOTH",
"197 -27 OFFCURVE",
"134 -32 OFFCURVE",
"108 -37 CURVE SMOOTH",
"102 -38 OFFCURVE",
"98 -39 OFFCURVE",
"94 -39 CURVE SMOOTH",
"87 -39 OFFCURVE",
"84 -36 OFFCURVE",
"84 -32 CURVE SMOOTH",
"84 -20 OFFCURVE",
"109 4 OFFCURVE",
"93 5 CURVE",
"59 -5 OFFCURVE",
"40 -28 OFFCURVE",
"40 -46 CURVE SMOOTH",
"40 -57 OFFCURVE",
"47 -66 OFFCURVE",
"63 -70 CURVE SMOOTH",
"72 -72 OFFCURVE",
"83 -73 OFFCURVE",
"96 -73 CURVE SMOOTH"
);
}
);
width = 524;
}
);
note = S;
unicode = 0053;
},
